M48
; DRILL file {KiCad 6.0.11+dfsg-1} date Tue 13 Jan 2026 09:19:27 PM EST
; FORMAT={-:-/ absolute / metric / decimal}
; #@! TF.CreationDate,2026-01-13T21:19:27-05:00
; #@! TF.GenerationSoftware,Kicad,Pcbnew,6.0.11+dfsg-1
; #@! TF.FileFunction,Plated,1,4,PTH
FMAT,2
METRIC
; #@! TA.AperFunction,Plated,PTH,ViaDrill
T1C0.200
; #@! TA.AperFunction,Plated,PTH,ViaDrill
T2C0.300
; #@! TA.AperFunction,Plated,PTH,ComponentDrill
T3C0.300
; #@! TA.AperFunction,Plated,PTH,ViaDrill
T4C0.400
; #@! TA.AperFunction,Plated,PTH,ComponentDrill
T5C0.700
; #@! TA.AperFunction,Plated,PTH,ComponentDrill
T6C0.800
; #@! TA.AperFunction,Plated,PTH,ComponentDrill
T7C1.000
%
G90
G05
T1
X108.9Y-97.2
X117.9Y-98.45
T2
X83.55Y-109.8
X84.0Y-113.5
X84.5Y-106.1
X86.6Y-108.2
X87.4Y-120.7
X87.4Y-122.0
X87.49Y-124.41
X88.4Y-98.9
X89.25Y-104.2
X89.3Y-123.3
X89.7Y-106.5
X90.2Y-114.3
X91.825Y-98.625
X92.5Y-104.05
X92.95Y-104.95
X93.8Y-101.6
X93.9Y-123.6
X94.0Y-104.6
X94.0Y-106.2
X94.0Y-109.4
X94.0Y-111.8
X94.0Y-114.2
X94.0Y-115.8
X94.0Y-117.4
X94.3Y-98.4
X94.3Y-120.4
X94.8Y-107.8
X94.8Y-109.4
X94.8Y-112.6
X94.8Y-113.4
X94.8Y-114.2
X94.8Y-115.8
X94.8Y-116.6
X95.6Y-104.6
X95.6Y-105.4
X95.6Y-107.8
X95.6Y-109.4
X95.6Y-111.8
X95.6Y-113.4
X95.6Y-115.0
X95.6Y-115.8
X95.6Y-117.4
X95.65Y-106.15
X96.1Y-123.6
X96.4Y-109.4
X96.4Y-110.2
X96.4Y-114.2
X96.4Y-115.0
X96.4Y-116.6
X97.2Y-104.6
X97.2Y-106.2
X97.2Y-107.8
X97.2Y-108.6
X97.2Y-109.4
X97.2Y-113.4
X97.2Y-114.2
X97.2Y-115.8
X97.2Y-117.4
X98.0Y-105.4
X98.0Y-107.8
X98.0Y-109.4
X98.0Y-110.2
X98.0Y-111.0
X98.0Y-111.8
X98.0Y-112.6
X98.0Y-115.0
X98.0Y-116.6
X98.2Y-120.4
X98.775Y-111.775
X98.8Y-106.2
X98.8Y-107.8
X98.8Y-109.4
X98.8Y-112.6
X98.8Y-114.2
X98.8Y-115.8
X98.8Y-117.4
X99.6Y-104.6
X99.6Y-107.8
X99.6Y-109.4
X99.6Y-110.2
X99.6Y-113.4
X99.6Y-116.6
X99.625Y-112.625
X100.375Y-115.775
X100.4Y-106.2
X100.4Y-107.8
X100.4Y-109.4
X100.4Y-111.0
X100.4Y-111.8
X100.4Y-113.4
X100.4Y-117.4
X101.2Y-103.8
X101.2Y-105.4
X101.2Y-106.2
X101.2Y-107.8
X101.2Y-109.4
X101.2Y-111.0
X101.2Y-111.8
X101.2Y-112.6
X101.2Y-115.0
X101.2Y-116.6
X101.9Y-123.6
X102.0Y-103.8
X102.0Y-105.45
X102.0Y-106.2
X102.0Y-109.4
X102.0Y-110.2
X102.0Y-111.0
X102.0Y-111.8
X102.0Y-117.4
X102.775Y-116.625
X102.799Y-109.35
X102.8Y-103.8
X102.8Y-108.6
X102.8Y-110.2
X102.8Y-111.0
X102.8Y-111.8
X102.8Y-112.6
X102.8Y-115.8
X103.3Y-103.0
X103.599Y-109.372
X103.6Y-107.8
X103.6Y-110.2
X103.6Y-111.0
X103.6Y-112.6
X103.6Y-115.0
X103.6Y-117.4
X103.65Y-108.65
X103.8Y-120.45
X104.4Y-105.4
X104.4Y-107.8
X104.4Y-109.4
X104.4Y-110.2
X104.4Y-111.0
X104.4Y-111.8
X104.4Y-112.6
X104.4Y-113.4
X104.4Y-115.0
X104.4Y-115.8
X105.2Y-105.4
X105.2Y-116.6
X105.2Y-107.799
X105.263Y-110.187
X106.0Y-104.6
X106.0Y-109.4
X106.0Y-117.4
X106.775Y-109.425
X106.8Y-106.2
X106.8Y-107.8
X106.8Y-111.0
X106.8Y-111.8
X106.8Y-112.6
X106.8Y-113.4
X106.8Y-115.0
X106.8Y-116.6
X107.55Y-103.85
X107.575Y-110.975
X108.507Y-103.457
X108.618Y-104.132
X109.81Y-102.99
X110.3Y-112.4
X110.4Y-101.8
X111.311Y-102.59
X111.8Y-118.3
X112.6Y-107.95
X113.1Y-118.3
X113.661Y-118.451
X114.199Y-117.793
X114.7Y-117.8
X115.5Y-120.3
X117.3Y-115.5
T3
X111.3Y-114.7
X112.8Y-113.2
X112.8Y-114.7
X112.8Y-116.2
X114.3Y-114.7
T4
X83.0Y-108.55
X84.35Y-104.65
X84.85Y-100.45
X86.5Y-104.05
X91.25Y-115.95
X91.25Y-116.95
X101.15Y-118.7
X102.55Y-118.7
X103.9Y-118.7
X105.9Y-98.4
X107.0Y-97.0
X107.9Y-123.6
X107.95Y-108.7
X107.95Y-109.9
X108.05Y-98.4
X108.15Y-113.85
X108.15Y-114.95
X108.15Y-116.0
X108.15Y-117.1
X108.3Y-105.55
X109.75Y-117.1
X110.1Y-121.85
X110.1Y-123.6
X110.3Y-109.6
X111.26Y-105.289
X111.85Y-109.6
X112.46Y-105.289
X113.0Y-101.9
X113.4Y-109.65
X114.25Y-123.9
X115.0Y-109.6
X115.55Y-112.25
X115.8Y-103.05
X116.2Y-105.85
X116.4Y-108.4
X116.4Y-109.5
X116.85Y-121.0
X117.325Y-101.175
X118.1Y-118.1
X118.45Y-102.3
X118.85Y-103.6
X118.85Y-105.4
X119.099Y-113.473
X119.25Y-110.0
T5
X112.387Y-97.025
X116.438Y-97.025
T6
X91.0Y-100.0
X91.0Y-122.0
X93.0Y-100.0
X93.0Y-122.0
X95.0Y-100.0
X95.0Y-122.0
X97.0Y-100.0
X97.0Y-122.0
X99.0Y-100.0
X99.0Y-122.0
X101.0Y-100.0
X101.0Y-122.0
X103.0Y-100.0
X103.0Y-122.0
X105.0Y-100.0
X105.0Y-122.0
X107.0Y-100.0
X107.0Y-122.0
X109.0Y-100.0
X109.0Y-122.0
T7
X81.8Y-104.65
X81.8Y-107.19
X81.8Y-109.73
X81.8Y-112.27
X81.8Y-114.81
X81.8Y-117.35
T0
M30
