%TF.GenerationSoftware,KiCad,Pcbnew,6.0.11+dfsg-1*%
%TF.CreationDate,2026-01-14T12:01:48-05:00*%
%TF.ProjectId,Deck_FPGA,4465636b-5f46-4504-9741-2e6b69636164,rev?*%
%TF.SameCoordinates,Original*%
%TF.FileFunction,Drillmap*%
%TF.FilePolarity,Positive*%
%FSLAX45Y45*%
G04 Gerber Fmt 4.5, Leading zero omitted, Abs format (unit mm)*
G04 Created by KiCad (PCBNEW 6.0.11+dfsg-1) date 2026-01-14 12:01:48*
%MOMM*%
%LPD*%
G01*
G04 APERTURE LIST*
%ADD10C,0.100000*%
%ADD11C,0.200000*%
G04 APERTURE END LIST*
D10*
X12100000Y-10000000D02*
X12100000Y-12200000D01*
X8400000Y-9600000D02*
G75*
G03*
X8000000Y-10000000I0J-400000D01*
G01*
X8000000Y-12200000D02*
G75*
G03*
X8400000Y-12600000I400000J0D01*
G01*
X11700000Y-12600000D02*
G75*
G03*
X12100000Y-12200000I0J400000D01*
G01*
X8000000Y-10000000D02*
X8000000Y-12200000D01*
X12100000Y-10000000D02*
G75*
G03*
X11700000Y-9600000I-400000J0D01*
G01*
X8400000Y-12600000D02*
X11700000Y-12600000D01*
X8400000Y-9600000D02*
X11700000Y-9600000D01*
D11*
X8252619Y-12915476D02*
X8252619Y-12715476D01*
X8300238Y-12715476D01*
X8328809Y-12725000D01*
X8347857Y-12744048D01*
X8357381Y-12763095D01*
X8366905Y-12801190D01*
X8366905Y-12829762D01*
X8357381Y-12867857D01*
X8347857Y-12886905D01*
X8328809Y-12905952D01*
X8300238Y-12915476D01*
X8252619Y-12915476D01*
X8452619Y-12915476D02*
X8452619Y-12782143D01*
X8452619Y-12820238D02*
X8462143Y-12801190D01*
X8471667Y-12791667D01*
X8490714Y-12782143D01*
X8509762Y-12782143D01*
X8576429Y-12915476D02*
X8576429Y-12782143D01*
X8576429Y-12715476D02*
X8566905Y-12725000D01*
X8576429Y-12734524D01*
X8585952Y-12725000D01*
X8576429Y-12715476D01*
X8576429Y-12734524D01*
X8700238Y-12915476D02*
X8681190Y-12905952D01*
X8671667Y-12886905D01*
X8671667Y-12715476D01*
X8805000Y-12915476D02*
X8785952Y-12905952D01*
X8776429Y-12886905D01*
X8776429Y-12715476D01*
X9033571Y-12915476D02*
X9033571Y-12715476D01*
X9100238Y-12858333D01*
X9166905Y-12715476D01*
X9166905Y-12915476D01*
X9347857Y-12915476D02*
X9347857Y-12810714D01*
X9338333Y-12791667D01*
X9319286Y-12782143D01*
X9281190Y-12782143D01*
X9262143Y-12791667D01*
X9347857Y-12905952D02*
X9328810Y-12915476D01*
X9281190Y-12915476D01*
X9262143Y-12905952D01*
X9252619Y-12886905D01*
X9252619Y-12867857D01*
X9262143Y-12848809D01*
X9281190Y-12839286D01*
X9328810Y-12839286D01*
X9347857Y-12829762D01*
X9443095Y-12782143D02*
X9443095Y-12982143D01*
X9443095Y-12791667D02*
X9462143Y-12782143D01*
X9500238Y-12782143D01*
X9519286Y-12791667D01*
X9528810Y-12801190D01*
X9538333Y-12820238D01*
X9538333Y-12877381D01*
X9528810Y-12896428D01*
X9519286Y-12905952D01*
X9500238Y-12915476D01*
X9462143Y-12915476D01*
X9443095Y-12905952D01*
X9624048Y-12896428D02*
X9633571Y-12905952D01*
X9624048Y-12915476D01*
X9614524Y-12905952D01*
X9624048Y-12896428D01*
X9624048Y-12915476D01*
X9624048Y-12791667D02*
X9633571Y-12801190D01*
X9624048Y-12810714D01*
X9614524Y-12801190D01*
X9624048Y-12791667D01*
X9624048Y-12810714D01*
M02*
