%TF.GenerationSoftware,KiCad,Pcbnew,6.0.11+dfsg-1*%
%TF.CreationDate,2026-01-09T10:43:08-05:00*%
%TF.ProjectId,Deck_FPGA,4465636b-5f46-4504-9741-2e6b69636164,rev?*%
%TF.SameCoordinates,Original*%
%TF.FileFunction,Legend,Bot*%
%TF.FilePolarity,Positive*%
%FSLAX46Y46*%
G04 Gerber Fmt 4.6, Leading zero omitted, Abs format (unit mm)*
G04 Created by KiCad (PCBNEW 6.0.11+dfsg-1) date 2026-01-09 10:43:08*
%MOMM*%
%LPD*%
G01*
G04 APERTURE LIST*
G04 Aperture macros list*
%AMRoundRect*
0 Rectangle with rounded corners*
0 $1 Rounding radius*
0 $2 $3 $4 $5 $6 $7 $8 $9 X,Y pos of 4 corners*
0 Add a 4 corners polygon primitive as box body*
4,1,4,$2,$3,$4,$5,$6,$7,$8,$9,$2,$3,0*
0 Add four circle primitives for the rounded corners*
1,1,$1+$1,$2,$3*
1,1,$1+$1,$4,$5*
1,1,$1+$1,$6,$7*
1,1,$1+$1,$8,$9*
0 Add four rect primitives between the rounded corners*
20,1,$1+$1,$2,$3,$4,$5,0*
20,1,$1+$1,$4,$5,$6,$7,0*
20,1,$1+$1,$6,$7,$8,$9,0*
20,1,$1+$1,$8,$9,$2,$3,0*%
G04 Aperture macros list end*
%ADD10C,0.150000*%
%ADD11C,0.120000*%
%ADD12RoundRect,0.135000X-0.185000X0.135000X-0.185000X-0.135000X0.185000X-0.135000X0.185000X0.135000X0*%
%ADD13RoundRect,0.135000X0.185000X-0.135000X0.185000X0.135000X-0.185000X0.135000X-0.185000X-0.135000X0*%
%ADD14R,1.700000X1.700000*%
%ADD15O,1.700000X1.700000*%
%ADD16C,0.499999*%
%ADD17R,1.050000X1.050000*%
%ADD18C,1.050000*%
%ADD19RoundRect,0.140000X-0.140000X-0.170000X0.140000X-0.170000X0.140000X0.170000X-0.140000X0.170000X0*%
%ADD20RoundRect,0.140000X0.140000X0.170000X-0.140000X0.170000X-0.140000X-0.170000X0.140000X-0.170000X0*%
%ADD21RoundRect,0.140000X0.170000X-0.140000X0.170000X0.140000X-0.170000X0.140000X-0.170000X-0.140000X0*%
%ADD22RoundRect,0.135000X-0.135000X-0.185000X0.135000X-0.185000X0.135000X0.185000X-0.135000X0.185000X0*%
%ADD23RoundRect,0.140000X-0.170000X0.140000X-0.170000X-0.140000X0.170000X-0.140000X0.170000X0.140000X0*%
%ADD24RoundRect,0.150000X0.150000X-0.512500X0.150000X0.512500X-0.150000X0.512500X-0.150000X-0.512500X0*%
G04 APERTURE END LIST*
D10*
%TO.C,R25*%
X86802380Y-99157142D02*
X86326190Y-98823809D01*
X86802380Y-98585714D02*
X85802380Y-98585714D01*
X85802380Y-98966666D01*
X85850000Y-99061904D01*
X85897619Y-99109523D01*
X85992857Y-99157142D01*
X86135714Y-99157142D01*
X86230952Y-99109523D01*
X86278571Y-99061904D01*
X86326190Y-98966666D01*
X86326190Y-98585714D01*
X85897619Y-99538095D02*
X85850000Y-99585714D01*
X85802380Y-99680952D01*
X85802380Y-99919047D01*
X85850000Y-100014285D01*
X85897619Y-100061904D01*
X85992857Y-100109523D01*
X86088095Y-100109523D01*
X86230952Y-100061904D01*
X86802380Y-99490476D01*
X86802380Y-100109523D01*
X85802380Y-101014285D02*
X85802380Y-100538095D01*
X86278571Y-100490476D01*
X86230952Y-100538095D01*
X86183333Y-100633333D01*
X86183333Y-100871428D01*
X86230952Y-100966666D01*
X86278571Y-101014285D01*
X86373809Y-101061904D01*
X86611904Y-101061904D01*
X86707142Y-101014285D01*
X86754761Y-100966666D01*
X86802380Y-100871428D01*
X86802380Y-100633333D01*
X86754761Y-100538095D01*
X86707142Y-100490476D01*
%TO.C,R24*%
X88152380Y-99157142D02*
X87676190Y-98823809D01*
X88152380Y-98585714D02*
X87152380Y-98585714D01*
X87152380Y-98966666D01*
X87200000Y-99061904D01*
X87247619Y-99109523D01*
X87342857Y-99157142D01*
X87485714Y-99157142D01*
X87580952Y-99109523D01*
X87628571Y-99061904D01*
X87676190Y-98966666D01*
X87676190Y-98585714D01*
X87247619Y-99538095D02*
X87200000Y-99585714D01*
X87152380Y-99680952D01*
X87152380Y-99919047D01*
X87200000Y-100014285D01*
X87247619Y-100061904D01*
X87342857Y-100109523D01*
X87438095Y-100109523D01*
X87580952Y-100061904D01*
X88152380Y-99490476D01*
X88152380Y-100109523D01*
X87485714Y-100966666D02*
X88152380Y-100966666D01*
X87104761Y-100728571D02*
X87819047Y-100490476D01*
X87819047Y-101109523D01*
%TO.C,C14*%
X107992857Y-104685714D02*
X108040476Y-104723809D01*
X108183333Y-104761904D01*
X108278571Y-104761904D01*
X108421428Y-104723809D01*
X108516666Y-104647619D01*
X108564285Y-104571428D01*
X108611904Y-104419047D01*
X108611904Y-104304761D01*
X108564285Y-104152380D01*
X108516666Y-104076190D01*
X108421428Y-104000000D01*
X108278571Y-103961904D01*
X108183333Y-103961904D01*
X108040476Y-104000000D01*
X107992857Y-104038095D01*
X107040476Y-104761904D02*
X107611904Y-104761904D01*
X107326190Y-104761904D02*
X107326190Y-103961904D01*
X107421428Y-104076190D01*
X107516666Y-104152380D01*
X107611904Y-104190476D01*
X106183333Y-104228571D02*
X106183333Y-104761904D01*
X106421428Y-103923809D02*
X106659523Y-104495238D01*
X106040476Y-104495238D01*
%TO.C,C17*%
X97292857Y-114107142D02*
X97340476Y-114154761D01*
X97483333Y-114202380D01*
X97578571Y-114202380D01*
X97721428Y-114154761D01*
X97816666Y-114059523D01*
X97864285Y-113964285D01*
X97911904Y-113773809D01*
X97911904Y-113630952D01*
X97864285Y-113440476D01*
X97816666Y-113345238D01*
X97721428Y-113250000D01*
X97578571Y-113202380D01*
X97483333Y-113202380D01*
X97340476Y-113250000D01*
X97292857Y-113297619D01*
X96340476Y-114202380D02*
X96911904Y-114202380D01*
X96626190Y-114202380D02*
X96626190Y-113202380D01*
X96721428Y-113345238D01*
X96816666Y-113440476D01*
X96911904Y-113488095D01*
X96007142Y-113202380D02*
X95340476Y-113202380D01*
X95769047Y-114202380D01*
%TO.C,C6*%
X99907142Y-104483333D02*
X99954761Y-104435714D01*
X100002380Y-104292857D01*
X100002380Y-104197619D01*
X99954761Y-104054761D01*
X99859523Y-103959523D01*
X99764285Y-103911904D01*
X99573809Y-103864285D01*
X99430952Y-103864285D01*
X99240476Y-103911904D01*
X99145238Y-103959523D01*
X99050000Y-104054761D01*
X99002380Y-104197619D01*
X99002380Y-104292857D01*
X99050000Y-104435714D01*
X99097619Y-104483333D01*
X99002380Y-105340476D02*
X99002380Y-105150000D01*
X99050000Y-105054761D01*
X99097619Y-105007142D01*
X99240476Y-104911904D01*
X99430952Y-104864285D01*
X99811904Y-104864285D01*
X99907142Y-104911904D01*
X99954761Y-104959523D01*
X100002380Y-105054761D01*
X100002380Y-105245238D01*
X99954761Y-105340476D01*
X99907142Y-105388095D01*
X99811904Y-105435714D01*
X99573809Y-105435714D01*
X99478571Y-105388095D01*
X99430952Y-105340476D01*
X99383333Y-105245238D01*
X99383333Y-105054761D01*
X99430952Y-104959523D01*
X99478571Y-104911904D01*
X99573809Y-104864285D01*
%TO.C,R2*%
X107066666Y-107311904D02*
X107400000Y-106930952D01*
X107638095Y-107311904D02*
X107638095Y-106511904D01*
X107257142Y-106511904D01*
X107161904Y-106550000D01*
X107114285Y-106588095D01*
X107066666Y-106664285D01*
X107066666Y-106778571D01*
X107114285Y-106854761D01*
X107161904Y-106892857D01*
X107257142Y-106930952D01*
X107638095Y-106930952D01*
X106685714Y-106588095D02*
X106638095Y-106550000D01*
X106542857Y-106511904D01*
X106304761Y-106511904D01*
X106209523Y-106550000D01*
X106161904Y-106588095D01*
X106114285Y-106664285D01*
X106114285Y-106740476D01*
X106161904Y-106854761D01*
X106733333Y-107311904D01*
X106114285Y-107311904D01*
%TO.C,R6*%
X108566666Y-113561904D02*
X108900000Y-113180952D01*
X109138095Y-113561904D02*
X109138095Y-112761904D01*
X108757142Y-112761904D01*
X108661904Y-112800000D01*
X108614285Y-112838095D01*
X108566666Y-112914285D01*
X108566666Y-113028571D01*
X108614285Y-113104761D01*
X108661904Y-113142857D01*
X108757142Y-113180952D01*
X109138095Y-113180952D01*
X107709523Y-112761904D02*
X107900000Y-112761904D01*
X107995238Y-112800000D01*
X108042857Y-112838095D01*
X108138095Y-112952380D01*
X108185714Y-113104761D01*
X108185714Y-113409523D01*
X108138095Y-113485714D01*
X108090476Y-113523809D01*
X107995238Y-113561904D01*
X107804761Y-113561904D01*
X107709523Y-113523809D01*
X107661904Y-113485714D01*
X107614285Y-113409523D01*
X107614285Y-113219047D01*
X107661904Y-113142857D01*
X107709523Y-113104761D01*
X107804761Y-113066666D01*
X107995238Y-113066666D01*
X108090476Y-113104761D01*
X108138095Y-113142857D01*
X108185714Y-113219047D01*
%TO.C,C15*%
X89357142Y-118157142D02*
X89404761Y-118109523D01*
X89452380Y-117966666D01*
X89452380Y-117871428D01*
X89404761Y-117728571D01*
X89309523Y-117633333D01*
X89214285Y-117585714D01*
X89023809Y-117538095D01*
X88880952Y-117538095D01*
X88690476Y-117585714D01*
X88595238Y-117633333D01*
X88500000Y-117728571D01*
X88452380Y-117871428D01*
X88452380Y-117966666D01*
X88500000Y-118109523D01*
X88547619Y-118157142D01*
X89452380Y-119109523D02*
X89452380Y-118538095D01*
X89452380Y-118823809D02*
X88452380Y-118823809D01*
X88595238Y-118728571D01*
X88690476Y-118633333D01*
X88738095Y-118538095D01*
X88452380Y-120014285D02*
X88452380Y-119538095D01*
X88928571Y-119490476D01*
X88880952Y-119538095D01*
X88833333Y-119633333D01*
X88833333Y-119871428D01*
X88880952Y-119966666D01*
X88928571Y-120014285D01*
X89023809Y-120061904D01*
X89261904Y-120061904D01*
X89357142Y-120014285D01*
X89404761Y-119966666D01*
X89452380Y-119871428D01*
X89452380Y-119633333D01*
X89404761Y-119538095D01*
X89357142Y-119490476D01*
%TO.C,C18*%
X97242857Y-110307142D02*
X97290476Y-110354761D01*
X97433333Y-110402380D01*
X97528571Y-110402380D01*
X97671428Y-110354761D01*
X97766666Y-110259523D01*
X97814285Y-110164285D01*
X97861904Y-109973809D01*
X97861904Y-109830952D01*
X97814285Y-109640476D01*
X97766666Y-109545238D01*
X97671428Y-109450000D01*
X97528571Y-109402380D01*
X97433333Y-109402380D01*
X97290476Y-109450000D01*
X97242857Y-109497619D01*
X96290476Y-110402380D02*
X96861904Y-110402380D01*
X96576190Y-110402380D02*
X96576190Y-109402380D01*
X96671428Y-109545238D01*
X96766666Y-109640476D01*
X96861904Y-109688095D01*
X95719047Y-109830952D02*
X95814285Y-109783333D01*
X95861904Y-109735714D01*
X95909523Y-109640476D01*
X95909523Y-109592857D01*
X95861904Y-109497619D01*
X95814285Y-109450000D01*
X95719047Y-109402380D01*
X95528571Y-109402380D01*
X95433333Y-109450000D01*
X95385714Y-109497619D01*
X95338095Y-109592857D01*
X95338095Y-109640476D01*
X95385714Y-109735714D01*
X95433333Y-109783333D01*
X95528571Y-109830952D01*
X95719047Y-109830952D01*
X95814285Y-109878571D01*
X95861904Y-109926190D01*
X95909523Y-110021428D01*
X95909523Y-110211904D01*
X95861904Y-110307142D01*
X95814285Y-110354761D01*
X95719047Y-110402380D01*
X95528571Y-110402380D01*
X95433333Y-110354761D01*
X95385714Y-110307142D01*
X95338095Y-110211904D01*
X95338095Y-110021428D01*
X95385714Y-109926190D01*
X95433333Y-109878571D01*
X95528571Y-109830952D01*
%TO.C,C8*%
X108516666Y-105785714D02*
X108564285Y-105823809D01*
X108707142Y-105861904D01*
X108802380Y-105861904D01*
X108945238Y-105823809D01*
X109040476Y-105747619D01*
X109088095Y-105671428D01*
X109135714Y-105519047D01*
X109135714Y-105404761D01*
X109088095Y-105252380D01*
X109040476Y-105176190D01*
X108945238Y-105100000D01*
X108802380Y-105061904D01*
X108707142Y-105061904D01*
X108564285Y-105100000D01*
X108516666Y-105138095D01*
X107945238Y-105404761D02*
X108040476Y-105366666D01*
X108088095Y-105328571D01*
X108135714Y-105252380D01*
X108135714Y-105214285D01*
X108088095Y-105138095D01*
X108040476Y-105100000D01*
X107945238Y-105061904D01*
X107754761Y-105061904D01*
X107659523Y-105100000D01*
X107611904Y-105138095D01*
X107564285Y-105214285D01*
X107564285Y-105252380D01*
X107611904Y-105328571D01*
X107659523Y-105366666D01*
X107754761Y-105404761D01*
X107945238Y-105404761D01*
X108040476Y-105442857D01*
X108088095Y-105480952D01*
X108135714Y-105557142D01*
X108135714Y-105709523D01*
X108088095Y-105785714D01*
X108040476Y-105823809D01*
X107945238Y-105861904D01*
X107754761Y-105861904D01*
X107659523Y-105823809D01*
X107611904Y-105785714D01*
X107564285Y-105709523D01*
X107564285Y-105557142D01*
X107611904Y-105480952D01*
X107659523Y-105442857D01*
X107754761Y-105404761D01*
%TO.C,C5*%
X98457142Y-104483333D02*
X98504761Y-104435714D01*
X98552380Y-104292857D01*
X98552380Y-104197619D01*
X98504761Y-104054761D01*
X98409523Y-103959523D01*
X98314285Y-103911904D01*
X98123809Y-103864285D01*
X97980952Y-103864285D01*
X97790476Y-103911904D01*
X97695238Y-103959523D01*
X97600000Y-104054761D01*
X97552380Y-104197619D01*
X97552380Y-104292857D01*
X97600000Y-104435714D01*
X97647619Y-104483333D01*
X97552380Y-105388095D02*
X97552380Y-104911904D01*
X98028571Y-104864285D01*
X97980952Y-104911904D01*
X97933333Y-105007142D01*
X97933333Y-105245238D01*
X97980952Y-105340476D01*
X98028571Y-105388095D01*
X98123809Y-105435714D01*
X98361904Y-105435714D01*
X98457142Y-105388095D01*
X98504761Y-105340476D01*
X98552380Y-105245238D01*
X98552380Y-105007142D01*
X98504761Y-104911904D01*
X98457142Y-104864285D01*
%TO.C,C30*%
X117857142Y-122407142D02*
X117904761Y-122359523D01*
X117952380Y-122216666D01*
X117952380Y-122121428D01*
X117904761Y-121978571D01*
X117809523Y-121883333D01*
X117714285Y-121835714D01*
X117523809Y-121788095D01*
X117380952Y-121788095D01*
X117190476Y-121835714D01*
X117095238Y-121883333D01*
X117000000Y-121978571D01*
X116952380Y-122121428D01*
X116952380Y-122216666D01*
X117000000Y-122359523D01*
X117047619Y-122407142D01*
X116952380Y-122740476D02*
X116952380Y-123359523D01*
X117333333Y-123026190D01*
X117333333Y-123169047D01*
X117380952Y-123264285D01*
X117428571Y-123311904D01*
X117523809Y-123359523D01*
X117761904Y-123359523D01*
X117857142Y-123311904D01*
X117904761Y-123264285D01*
X117952380Y-123169047D01*
X117952380Y-122883333D01*
X117904761Y-122788095D01*
X117857142Y-122740476D01*
X116952380Y-123978571D02*
X116952380Y-124073809D01*
X117000000Y-124169047D01*
X117047619Y-124216666D01*
X117142857Y-124264285D01*
X117333333Y-124311904D01*
X117571428Y-124311904D01*
X117761904Y-124264285D01*
X117857142Y-124216666D01*
X117904761Y-124169047D01*
X117952380Y-124073809D01*
X117952380Y-123978571D01*
X117904761Y-123883333D01*
X117857142Y-123835714D01*
X117761904Y-123788095D01*
X117571428Y-123740476D01*
X117333333Y-123740476D01*
X117142857Y-123788095D01*
X117047619Y-123835714D01*
X117000000Y-123883333D01*
X116952380Y-123978571D01*
%TO.C,C19*%
X85107142Y-99157142D02*
X85154761Y-99109523D01*
X85202380Y-98966666D01*
X85202380Y-98871428D01*
X85154761Y-98728571D01*
X85059523Y-98633333D01*
X84964285Y-98585714D01*
X84773809Y-98538095D01*
X84630952Y-98538095D01*
X84440476Y-98585714D01*
X84345238Y-98633333D01*
X84250000Y-98728571D01*
X84202380Y-98871428D01*
X84202380Y-98966666D01*
X84250000Y-99109523D01*
X84297619Y-99157142D01*
X85202380Y-100109523D02*
X85202380Y-99538095D01*
X85202380Y-99823809D02*
X84202380Y-99823809D01*
X84345238Y-99728571D01*
X84440476Y-99633333D01*
X84488095Y-99538095D01*
X85202380Y-100585714D02*
X85202380Y-100776190D01*
X85154761Y-100871428D01*
X85107142Y-100919047D01*
X84964285Y-101014285D01*
X84773809Y-101061904D01*
X84392857Y-101061904D01*
X84297619Y-101014285D01*
X84250000Y-100966666D01*
X84202380Y-100871428D01*
X84202380Y-100680952D01*
X84250000Y-100585714D01*
X84297619Y-100538095D01*
X84392857Y-100490476D01*
X84630952Y-100490476D01*
X84726190Y-100538095D01*
X84773809Y-100585714D01*
X84821428Y-100680952D01*
X84821428Y-100871428D01*
X84773809Y-100966666D01*
X84726190Y-101014285D01*
X84630952Y-101061904D01*
%TO.C,C4*%
X97316666Y-111557142D02*
X97364285Y-111604761D01*
X97507142Y-111652380D01*
X97602380Y-111652380D01*
X97745238Y-111604761D01*
X97840476Y-111509523D01*
X97888095Y-111414285D01*
X97935714Y-111223809D01*
X97935714Y-111080952D01*
X97888095Y-110890476D01*
X97840476Y-110795238D01*
X97745238Y-110700000D01*
X97602380Y-110652380D01*
X97507142Y-110652380D01*
X97364285Y-110700000D01*
X97316666Y-110747619D01*
X96459523Y-110985714D02*
X96459523Y-111652380D01*
X96697619Y-110604761D02*
X96935714Y-111319047D01*
X96316666Y-111319047D01*
%TO.C,C11*%
X109492857Y-108907142D02*
X109540476Y-108954761D01*
X109683333Y-109002380D01*
X109778571Y-109002380D01*
X109921428Y-108954761D01*
X110016666Y-108859523D01*
X110064285Y-108764285D01*
X110111904Y-108573809D01*
X110111904Y-108430952D01*
X110064285Y-108240476D01*
X110016666Y-108145238D01*
X109921428Y-108050000D01*
X109778571Y-108002380D01*
X109683333Y-108002380D01*
X109540476Y-108050000D01*
X109492857Y-108097619D01*
X108540476Y-109002380D02*
X109111904Y-109002380D01*
X108826190Y-109002380D02*
X108826190Y-108002380D01*
X108921428Y-108145238D01*
X109016666Y-108240476D01*
X109111904Y-108288095D01*
X107588095Y-109002380D02*
X108159523Y-109002380D01*
X107873809Y-109002380D02*
X107873809Y-108002380D01*
X107969047Y-108145238D01*
X108064285Y-108240476D01*
X108159523Y-108288095D01*
%TO.C,C10*%
X108642857Y-115635714D02*
X108690476Y-115673809D01*
X108833333Y-115711904D01*
X108928571Y-115711904D01*
X109071428Y-115673809D01*
X109166666Y-115597619D01*
X109214285Y-115521428D01*
X109261904Y-115369047D01*
X109261904Y-115254761D01*
X109214285Y-115102380D01*
X109166666Y-115026190D01*
X109071428Y-114950000D01*
X108928571Y-114911904D01*
X108833333Y-114911904D01*
X108690476Y-114950000D01*
X108642857Y-114988095D01*
X107690476Y-115711904D02*
X108261904Y-115711904D01*
X107976190Y-115711904D02*
X107976190Y-114911904D01*
X108071428Y-115026190D01*
X108166666Y-115102380D01*
X108261904Y-115140476D01*
X107071428Y-114911904D02*
X106976190Y-114911904D01*
X106880952Y-114950000D01*
X106833333Y-114988095D01*
X106785714Y-115064285D01*
X106738095Y-115216666D01*
X106738095Y-115407142D01*
X106785714Y-115559523D01*
X106833333Y-115635714D01*
X106880952Y-115673809D01*
X106976190Y-115711904D01*
X107071428Y-115711904D01*
X107166666Y-115673809D01*
X107214285Y-115635714D01*
X107261904Y-115559523D01*
X107309523Y-115407142D01*
X107309523Y-115216666D01*
X107261904Y-115064285D01*
X107214285Y-114988095D01*
X107166666Y-114950000D01*
X107071428Y-114911904D01*
%TO.C,C21*%
X95447142Y-105657142D02*
X95494761Y-105609523D01*
X95542380Y-105466666D01*
X95542380Y-105371428D01*
X95494761Y-105228571D01*
X95399523Y-105133333D01*
X95304285Y-105085714D01*
X95113809Y-105038095D01*
X94970952Y-105038095D01*
X94780476Y-105085714D01*
X94685238Y-105133333D01*
X94590000Y-105228571D01*
X94542380Y-105371428D01*
X94542380Y-105466666D01*
X94590000Y-105609523D01*
X94637619Y-105657142D01*
X94637619Y-106038095D02*
X94590000Y-106085714D01*
X94542380Y-106180952D01*
X94542380Y-106419047D01*
X94590000Y-106514285D01*
X94637619Y-106561904D01*
X94732857Y-106609523D01*
X94828095Y-106609523D01*
X94970952Y-106561904D01*
X95542380Y-105990476D01*
X95542380Y-106609523D01*
X95542380Y-107561904D02*
X95542380Y-106990476D01*
X95542380Y-107276190D02*
X94542380Y-107276190D01*
X94685238Y-107180952D01*
X94780476Y-107085714D01*
X94828095Y-106990476D01*
%TO.C,C7*%
X113967142Y-103433333D02*
X114014761Y-103385714D01*
X114062380Y-103242857D01*
X114062380Y-103147619D01*
X114014761Y-103004761D01*
X113919523Y-102909523D01*
X113824285Y-102861904D01*
X113633809Y-102814285D01*
X113490952Y-102814285D01*
X113300476Y-102861904D01*
X113205238Y-102909523D01*
X113110000Y-103004761D01*
X113062380Y-103147619D01*
X113062380Y-103242857D01*
X113110000Y-103385714D01*
X113157619Y-103433333D01*
X113062380Y-103766666D02*
X113062380Y-104433333D01*
X114062380Y-104004761D01*
%TO.C,C12*%
X110242857Y-103285714D02*
X110290476Y-103323809D01*
X110433333Y-103361904D01*
X110528571Y-103361904D01*
X110671428Y-103323809D01*
X110766666Y-103247619D01*
X110814285Y-103171428D01*
X110861904Y-103019047D01*
X110861904Y-102904761D01*
X110814285Y-102752380D01*
X110766666Y-102676190D01*
X110671428Y-102600000D01*
X110528571Y-102561904D01*
X110433333Y-102561904D01*
X110290476Y-102600000D01*
X110242857Y-102638095D01*
X109290476Y-103361904D02*
X109861904Y-103361904D01*
X109576190Y-103361904D02*
X109576190Y-102561904D01*
X109671428Y-102676190D01*
X109766666Y-102752380D01*
X109861904Y-102790476D01*
X108909523Y-102638095D02*
X108861904Y-102600000D01*
X108766666Y-102561904D01*
X108528571Y-102561904D01*
X108433333Y-102600000D01*
X108385714Y-102638095D01*
X108338095Y-102714285D01*
X108338095Y-102790476D01*
X108385714Y-102904761D01*
X108957142Y-103361904D01*
X108338095Y-103361904D01*
%TO.C,R3*%
X108566666Y-110511904D02*
X108900000Y-110130952D01*
X109138095Y-110511904D02*
X109138095Y-109711904D01*
X108757142Y-109711904D01*
X108661904Y-109750000D01*
X108614285Y-109788095D01*
X108566666Y-109864285D01*
X108566666Y-109978571D01*
X108614285Y-110054761D01*
X108661904Y-110092857D01*
X108757142Y-110130952D01*
X109138095Y-110130952D01*
X108233333Y-109711904D02*
X107614285Y-109711904D01*
X107947619Y-110016666D01*
X107804761Y-110016666D01*
X107709523Y-110054761D01*
X107661904Y-110092857D01*
X107614285Y-110169047D01*
X107614285Y-110359523D01*
X107661904Y-110435714D01*
X107709523Y-110473809D01*
X107804761Y-110511904D01*
X108090476Y-110511904D01*
X108185714Y-110473809D01*
X108233333Y-110435714D01*
%TO.C,C20*%
X94047142Y-105657142D02*
X94094761Y-105609523D01*
X94142380Y-105466666D01*
X94142380Y-105371428D01*
X94094761Y-105228571D01*
X93999523Y-105133333D01*
X93904285Y-105085714D01*
X93713809Y-105038095D01*
X93570952Y-105038095D01*
X93380476Y-105085714D01*
X93285238Y-105133333D01*
X93190000Y-105228571D01*
X93142380Y-105371428D01*
X93142380Y-105466666D01*
X93190000Y-105609523D01*
X93237619Y-105657142D01*
X93237619Y-106038095D02*
X93190000Y-106085714D01*
X93142380Y-106180952D01*
X93142380Y-106419047D01*
X93190000Y-106514285D01*
X93237619Y-106561904D01*
X93332857Y-106609523D01*
X93428095Y-106609523D01*
X93570952Y-106561904D01*
X94142380Y-105990476D01*
X94142380Y-106609523D01*
X93142380Y-107228571D02*
X93142380Y-107323809D01*
X93190000Y-107419047D01*
X93237619Y-107466666D01*
X93332857Y-107514285D01*
X93523333Y-107561904D01*
X93761428Y-107561904D01*
X93951904Y-107514285D01*
X94047142Y-107466666D01*
X94094761Y-107419047D01*
X94142380Y-107323809D01*
X94142380Y-107228571D01*
X94094761Y-107133333D01*
X94047142Y-107085714D01*
X93951904Y-107038095D01*
X93761428Y-106990476D01*
X93523333Y-106990476D01*
X93332857Y-107038095D01*
X93237619Y-107085714D01*
X93190000Y-107133333D01*
X93142380Y-107228571D01*
%TO.C,R1*%
X108566666Y-111561904D02*
X108900000Y-111180952D01*
X109138095Y-111561904D02*
X109138095Y-110761904D01*
X108757142Y-110761904D01*
X108661904Y-110800000D01*
X108614285Y-110838095D01*
X108566666Y-110914285D01*
X108566666Y-111028571D01*
X108614285Y-111104761D01*
X108661904Y-111142857D01*
X108757142Y-111180952D01*
X109138095Y-111180952D01*
X107614285Y-111561904D02*
X108185714Y-111561904D01*
X107900000Y-111561904D02*
X107900000Y-110761904D01*
X107995238Y-110876190D01*
X108090476Y-110952380D01*
X108185714Y-110990476D01*
%TO.C,C31*%
X113242857Y-125457142D02*
X113290476Y-125504761D01*
X113433333Y-125552380D01*
X113528571Y-125552380D01*
X113671428Y-125504761D01*
X113766666Y-125409523D01*
X113814285Y-125314285D01*
X113861904Y-125123809D01*
X113861904Y-124980952D01*
X113814285Y-124790476D01*
X113766666Y-124695238D01*
X113671428Y-124600000D01*
X113528571Y-124552380D01*
X113433333Y-124552380D01*
X113290476Y-124600000D01*
X113242857Y-124647619D01*
X112909523Y-124552380D02*
X112290476Y-124552380D01*
X112623809Y-124933333D01*
X112480952Y-124933333D01*
X112385714Y-124980952D01*
X112338095Y-125028571D01*
X112290476Y-125123809D01*
X112290476Y-125361904D01*
X112338095Y-125457142D01*
X112385714Y-125504761D01*
X112480952Y-125552380D01*
X112766666Y-125552380D01*
X112861904Y-125504761D01*
X112909523Y-125457142D01*
X111338095Y-125552380D02*
X111909523Y-125552380D01*
X111623809Y-125552380D02*
X111623809Y-124552380D01*
X111719047Y-124695238D01*
X111814285Y-124790476D01*
X111909523Y-124838095D01*
%TO.C,C34*%
X102342857Y-117317142D02*
X102390476Y-117364761D01*
X102533333Y-117412380D01*
X102628571Y-117412380D01*
X102771428Y-117364761D01*
X102866666Y-117269523D01*
X102914285Y-117174285D01*
X102961904Y-116983809D01*
X102961904Y-116840952D01*
X102914285Y-116650476D01*
X102866666Y-116555238D01*
X102771428Y-116460000D01*
X102628571Y-116412380D01*
X102533333Y-116412380D01*
X102390476Y-116460000D01*
X102342857Y-116507619D01*
X102009523Y-116412380D02*
X101390476Y-116412380D01*
X101723809Y-116793333D01*
X101580952Y-116793333D01*
X101485714Y-116840952D01*
X101438095Y-116888571D01*
X101390476Y-116983809D01*
X101390476Y-117221904D01*
X101438095Y-117317142D01*
X101485714Y-117364761D01*
X101580952Y-117412380D01*
X101866666Y-117412380D01*
X101961904Y-117364761D01*
X102009523Y-117317142D01*
X100533333Y-116745714D02*
X100533333Y-117412380D01*
X100771428Y-116364761D02*
X101009523Y-117079047D01*
X100390476Y-117079047D01*
%TO.C,C33*%
X102107142Y-113157142D02*
X102154761Y-113109523D01*
X102202380Y-112966666D01*
X102202380Y-112871428D01*
X102154761Y-112728571D01*
X102059523Y-112633333D01*
X101964285Y-112585714D01*
X101773809Y-112538095D01*
X101630952Y-112538095D01*
X101440476Y-112585714D01*
X101345238Y-112633333D01*
X101250000Y-112728571D01*
X101202380Y-112871428D01*
X101202380Y-112966666D01*
X101250000Y-113109523D01*
X101297619Y-113157142D01*
X101202380Y-113490476D02*
X101202380Y-114109523D01*
X101583333Y-113776190D01*
X101583333Y-113919047D01*
X101630952Y-114014285D01*
X101678571Y-114061904D01*
X101773809Y-114109523D01*
X102011904Y-114109523D01*
X102107142Y-114061904D01*
X102154761Y-114014285D01*
X102202380Y-113919047D01*
X102202380Y-113633333D01*
X102154761Y-113538095D01*
X102107142Y-113490476D01*
X101202380Y-114442857D02*
X101202380Y-115061904D01*
X101583333Y-114728571D01*
X101583333Y-114871428D01*
X101630952Y-114966666D01*
X101678571Y-115014285D01*
X101773809Y-115061904D01*
X102011904Y-115061904D01*
X102107142Y-115014285D01*
X102154761Y-114966666D01*
X102202380Y-114871428D01*
X102202380Y-114585714D01*
X102154761Y-114490476D01*
X102107142Y-114442857D01*
%TO.C,R4*%
X108566666Y-114561904D02*
X108900000Y-114180952D01*
X109138095Y-114561904D02*
X109138095Y-113761904D01*
X108757142Y-113761904D01*
X108661904Y-113800000D01*
X108614285Y-113838095D01*
X108566666Y-113914285D01*
X108566666Y-114028571D01*
X108614285Y-114104761D01*
X108661904Y-114142857D01*
X108757142Y-114180952D01*
X109138095Y-114180952D01*
X107709523Y-114028571D02*
X107709523Y-114561904D01*
X107947619Y-113723809D02*
X108185714Y-114295238D01*
X107566666Y-114295238D01*
%TO.C,C13*%
X103042857Y-105995714D02*
X103090476Y-106033809D01*
X103233333Y-106071904D01*
X103328571Y-106071904D01*
X103471428Y-106033809D01*
X103566666Y-105957619D01*
X103614285Y-105881428D01*
X103661904Y-105729047D01*
X103661904Y-105614761D01*
X103614285Y-105462380D01*
X103566666Y-105386190D01*
X103471428Y-105310000D01*
X103328571Y-105271904D01*
X103233333Y-105271904D01*
X103090476Y-105310000D01*
X103042857Y-105348095D01*
X102090476Y-106071904D02*
X102661904Y-106071904D01*
X102376190Y-106071904D02*
X102376190Y-105271904D01*
X102471428Y-105386190D01*
X102566666Y-105462380D01*
X102661904Y-105500476D01*
X101757142Y-105271904D02*
X101138095Y-105271904D01*
X101471428Y-105576666D01*
X101328571Y-105576666D01*
X101233333Y-105614761D01*
X101185714Y-105652857D01*
X101138095Y-105729047D01*
X101138095Y-105919523D01*
X101185714Y-105995714D01*
X101233333Y-106033809D01*
X101328571Y-106071904D01*
X101614285Y-106071904D01*
X101709523Y-106033809D01*
X101757142Y-105995714D01*
%TO.C,U4*%
X115052380Y-119738095D02*
X115861904Y-119738095D01*
X115957142Y-119785714D01*
X116004761Y-119833333D01*
X116052380Y-119928571D01*
X116052380Y-120119047D01*
X116004761Y-120214285D01*
X115957142Y-120261904D01*
X115861904Y-120309523D01*
X115052380Y-120309523D01*
X115385714Y-121214285D02*
X116052380Y-121214285D01*
X115004761Y-120976190D02*
X115719047Y-120738095D01*
X115719047Y-121357142D01*
%TO.C,C16*%
X90657142Y-118157142D02*
X90704761Y-118109523D01*
X90752380Y-117966666D01*
X90752380Y-117871428D01*
X90704761Y-117728571D01*
X90609523Y-117633333D01*
X90514285Y-117585714D01*
X90323809Y-117538095D01*
X90180952Y-117538095D01*
X89990476Y-117585714D01*
X89895238Y-117633333D01*
X89800000Y-117728571D01*
X89752380Y-117871428D01*
X89752380Y-117966666D01*
X89800000Y-118109523D01*
X89847619Y-118157142D01*
X90752380Y-119109523D02*
X90752380Y-118538095D01*
X90752380Y-118823809D02*
X89752380Y-118823809D01*
X89895238Y-118728571D01*
X89990476Y-118633333D01*
X90038095Y-118538095D01*
X89752380Y-119966666D02*
X89752380Y-119776190D01*
X89800000Y-119680952D01*
X89847619Y-119633333D01*
X89990476Y-119538095D01*
X90180952Y-119490476D01*
X90561904Y-119490476D01*
X90657142Y-119538095D01*
X90704761Y-119585714D01*
X90752380Y-119680952D01*
X90752380Y-119871428D01*
X90704761Y-119966666D01*
X90657142Y-120014285D01*
X90561904Y-120061904D01*
X90323809Y-120061904D01*
X90228571Y-120014285D01*
X90180952Y-119966666D01*
X90133333Y-119871428D01*
X90133333Y-119680952D01*
X90180952Y-119585714D01*
X90228571Y-119538095D01*
X90323809Y-119490476D01*
%TO.C,R5*%
X108566666Y-112561904D02*
X108900000Y-112180952D01*
X109138095Y-112561904D02*
X109138095Y-111761904D01*
X108757142Y-111761904D01*
X108661904Y-111800000D01*
X108614285Y-111838095D01*
X108566666Y-111914285D01*
X108566666Y-112028571D01*
X108614285Y-112104761D01*
X108661904Y-112142857D01*
X108757142Y-112180952D01*
X109138095Y-112180952D01*
X107661904Y-111761904D02*
X108138095Y-111761904D01*
X108185714Y-112142857D01*
X108138095Y-112104761D01*
X108042857Y-112066666D01*
X107804761Y-112066666D01*
X107709523Y-112104761D01*
X107661904Y-112142857D01*
X107614285Y-112219047D01*
X107614285Y-112409523D01*
X107661904Y-112485714D01*
X107709523Y-112523809D01*
X107804761Y-112561904D01*
X108042857Y-112561904D01*
X108138095Y-112523809D01*
X108185714Y-112485714D01*
%TO.C,C2*%
X88107142Y-118133333D02*
X88154761Y-118085714D01*
X88202380Y-117942857D01*
X88202380Y-117847619D01*
X88154761Y-117704761D01*
X88059523Y-117609523D01*
X87964285Y-117561904D01*
X87773809Y-117514285D01*
X87630952Y-117514285D01*
X87440476Y-117561904D01*
X87345238Y-117609523D01*
X87250000Y-117704761D01*
X87202380Y-117847619D01*
X87202380Y-117942857D01*
X87250000Y-118085714D01*
X87297619Y-118133333D01*
X87297619Y-118514285D02*
X87250000Y-118561904D01*
X87202380Y-118657142D01*
X87202380Y-118895238D01*
X87250000Y-118990476D01*
X87297619Y-119038095D01*
X87392857Y-119085714D01*
X87488095Y-119085714D01*
X87630952Y-119038095D01*
X88202380Y-118466666D01*
X88202380Y-119085714D01*
D11*
%TO.C,R25*%
X85970000Y-102146359D02*
X85970000Y-102453641D01*
X86730000Y-102146359D02*
X86730000Y-102453641D01*
%TO.C,R24*%
X88080000Y-102453641D02*
X88080000Y-102146359D01*
X87320000Y-102453641D02*
X87320000Y-102146359D01*
%TO.C,C14*%
X104642164Y-104090000D02*
X104857836Y-104090000D01*
X104642164Y-104810000D02*
X104857836Y-104810000D01*
%TO.C,C17*%
X96707836Y-112090000D02*
X96492164Y-112090000D01*
X96707836Y-112810000D02*
X96492164Y-112810000D01*
%TO.C,C6*%
X100010000Y-106707836D02*
X100010000Y-106492164D01*
X99290000Y-106707836D02*
X99290000Y-106492164D01*
%TO.C,R2*%
X104596359Y-106570000D02*
X104903641Y-106570000D01*
X104596359Y-107330000D02*
X104903641Y-107330000D01*
%TO.C,R6*%
X105446359Y-113580000D02*
X105753641Y-113580000D01*
X105446359Y-112820000D02*
X105753641Y-112820000D01*
%TO.C,C15*%
X89360000Y-116342164D02*
X89360000Y-116557836D01*
X88640000Y-116342164D02*
X88640000Y-116557836D01*
%TO.C,C18*%
X100957836Y-109840000D02*
X100742164Y-109840000D01*
X100957836Y-110560000D02*
X100742164Y-110560000D01*
%TO.C,C8*%
X106457836Y-105810000D02*
X106242164Y-105810000D01*
X106457836Y-105090000D02*
X106242164Y-105090000D01*
%TO.C,C5*%
X97690000Y-106707836D02*
X97690000Y-106492164D01*
X98410000Y-106707836D02*
X98410000Y-106492164D01*
%TO.C,C30*%
X115790000Y-122942164D02*
X115790000Y-123157836D01*
X116510000Y-122942164D02*
X116510000Y-123157836D01*
%TO.C,C19*%
X84390000Y-102192164D02*
X84390000Y-102407836D01*
X85110000Y-102192164D02*
X85110000Y-102407836D01*
%TO.C,C4*%
X99307836Y-111510000D02*
X99092164Y-111510000D01*
X99307836Y-110790000D02*
X99092164Y-110790000D01*
%TO.C,C11*%
X106292164Y-108960000D02*
X106507836Y-108960000D01*
X106292164Y-108240000D02*
X106507836Y-108240000D01*
%TO.C,C10*%
X105707836Y-114890000D02*
X105492164Y-114890000D01*
X105707836Y-115610000D02*
X105492164Y-115610000D01*
%TO.C,C21*%
X96610000Y-106192164D02*
X96610000Y-106407836D01*
X95890000Y-106192164D02*
X95890000Y-106407836D01*
%TO.C,C7*%
X112810000Y-103707836D02*
X112810000Y-103492164D01*
X112090000Y-103707836D02*
X112090000Y-103492164D01*
%TO.C,C12*%
X107157836Y-102640000D02*
X106942164Y-102640000D01*
X107157836Y-103360000D02*
X106942164Y-103360000D01*
%TO.C,R3*%
X106246359Y-110530000D02*
X106553641Y-110530000D01*
X106246359Y-109770000D02*
X106553641Y-109770000D01*
%TO.C,C20*%
X94490000Y-106192164D02*
X94490000Y-106407836D01*
X95210000Y-106192164D02*
X95210000Y-106407836D01*
%TO.C,R1*%
X105446359Y-111580000D02*
X105753641Y-111580000D01*
X105446359Y-110820000D02*
X105753641Y-110820000D01*
%TO.C,C31*%
X112492164Y-124260000D02*
X112707836Y-124260000D01*
X112492164Y-123540000D02*
X112707836Y-123540000D01*
%TO.C,C34*%
X101592164Y-116160000D02*
X101807836Y-116160000D01*
X101592164Y-115440000D02*
X101807836Y-115440000D01*
%TO.C,C33*%
X102490000Y-114042164D02*
X102490000Y-114257836D01*
X103210000Y-114042164D02*
X103210000Y-114257836D01*
%TO.C,R4*%
X105446359Y-113820000D02*
X105753641Y-113820000D01*
X105446359Y-114580000D02*
X105753641Y-114580000D01*
%TO.C,C13*%
X102292164Y-104910000D02*
X102507836Y-104910000D01*
X102292164Y-104190000D02*
X102507836Y-104190000D01*
%TO.C,U4*%
X114660000Y-121200000D02*
X114660000Y-120400000D01*
X114660000Y-121200000D02*
X114660000Y-123000000D01*
X111540000Y-121200000D02*
X111540000Y-120400000D01*
X111540000Y-121200000D02*
X111540000Y-122000000D01*
%TO.C,C16*%
X89940000Y-116342164D02*
X89940000Y-116557836D01*
X90660000Y-116342164D02*
X90660000Y-116557836D01*
%TO.C,R5*%
X105446359Y-112580000D02*
X105753641Y-112580000D01*
X105446359Y-111820000D02*
X105753641Y-111820000D01*
%TO.C,C2*%
X87390000Y-116342164D02*
X87390000Y-116557836D01*
X88110000Y-116342164D02*
X88110000Y-116557836D01*
%TD*%
%LPC*%
D12*
%TO.C,R25*%
X86350000Y-101790000D03*
X86350000Y-102810000D03*
%TD*%
D13*
%TO.C,R24*%
X87700000Y-102810000D03*
X87700000Y-101790000D03*
%TD*%
D14*
%TO.C,J3*%
X81800000Y-104650000D03*
D15*
X81800000Y-107190000D03*
X81800000Y-109730000D03*
X81800000Y-112270000D03*
X81800000Y-114810000D03*
X81800000Y-117350000D03*
%TD*%
D16*
%TO.C,U2*%
X114299997Y-114700000D03*
X112800000Y-114700000D03*
X112800000Y-113200000D03*
X111299997Y-114700000D03*
X112800000Y-116200000D03*
%TD*%
D17*
%TO.C,J1*%
X91000000Y-122000000D03*
D18*
X93000000Y-122000000D03*
X95000000Y-122000000D03*
X97000000Y-122000000D03*
X99000000Y-122000000D03*
X101000000Y-122000000D03*
X103000000Y-122000000D03*
X105000000Y-122000000D03*
X107000000Y-122000000D03*
X109000000Y-122000000D03*
%TD*%
D17*
%TO.C,J2*%
X91000000Y-100000000D03*
D18*
X93000000Y-100000000D03*
X95000000Y-100000000D03*
X97000000Y-100000000D03*
X99000000Y-100000000D03*
X101000000Y-100000000D03*
X103000000Y-100000000D03*
X105000000Y-100000000D03*
X107000000Y-100000000D03*
X109000000Y-100000000D03*
%TD*%
D19*
%TO.C,C14*%
X104270000Y-104450000D03*
X105230000Y-104450000D03*
%TD*%
D20*
%TO.C,C17*%
X97080000Y-112450000D03*
X96120000Y-112450000D03*
%TD*%
D21*
%TO.C,C6*%
X99650000Y-107080000D03*
X99650000Y-106120000D03*
%TD*%
D22*
%TO.C,R2*%
X104240000Y-106950000D03*
X105260000Y-106950000D03*
%TD*%
%TO.C,R6*%
X105090000Y-113200000D03*
X106110000Y-113200000D03*
%TD*%
D23*
%TO.C,C15*%
X89000000Y-115970000D03*
X89000000Y-116930000D03*
%TD*%
D20*
%TO.C,C18*%
X101330000Y-110200000D03*
X100370000Y-110200000D03*
%TD*%
%TO.C,C8*%
X106830000Y-105450000D03*
X105870000Y-105450000D03*
%TD*%
D21*
%TO.C,C5*%
X98050000Y-107080000D03*
X98050000Y-106120000D03*
%TD*%
D23*
%TO.C,C30*%
X116150000Y-122570000D03*
X116150000Y-123530000D03*
%TD*%
%TO.C,C19*%
X84750000Y-101820000D03*
X84750000Y-102780000D03*
%TD*%
D20*
%TO.C,C4*%
X99680000Y-111150000D03*
X98720000Y-111150000D03*
%TD*%
D19*
%TO.C,C11*%
X105920000Y-108600000D03*
X106880000Y-108600000D03*
%TD*%
D20*
%TO.C,C10*%
X106080000Y-115250000D03*
X105120000Y-115250000D03*
%TD*%
D23*
%TO.C,C21*%
X96250000Y-105820000D03*
X96250000Y-106780000D03*
%TD*%
D21*
%TO.C,C7*%
X112450000Y-104080000D03*
X112450000Y-103120000D03*
%TD*%
D20*
%TO.C,C12*%
X107530000Y-103000000D03*
X106570000Y-103000000D03*
%TD*%
D22*
%TO.C,R3*%
X105890000Y-110150000D03*
X106910000Y-110150000D03*
%TD*%
D23*
%TO.C,C20*%
X94850000Y-105820000D03*
X94850000Y-106780000D03*
%TD*%
D22*
%TO.C,R1*%
X105090000Y-111200000D03*
X106110000Y-111200000D03*
%TD*%
D19*
%TO.C,C31*%
X112120000Y-123900000D03*
X113080000Y-123900000D03*
%TD*%
%TO.C,C34*%
X101220000Y-115800000D03*
X102180000Y-115800000D03*
%TD*%
D23*
%TO.C,C33*%
X102850000Y-113670000D03*
X102850000Y-114630000D03*
%TD*%
D22*
%TO.C,R4*%
X105090000Y-114200000D03*
X106110000Y-114200000D03*
%TD*%
D19*
%TO.C,C13*%
X101920000Y-104550000D03*
X102880000Y-104550000D03*
%TD*%
D24*
%TO.C,U4*%
X114050000Y-122337500D03*
X113100000Y-122337500D03*
X112150000Y-122337500D03*
X112150000Y-120062500D03*
X113100000Y-120062500D03*
X114050000Y-120062500D03*
%TD*%
D23*
%TO.C,C16*%
X90300000Y-115970000D03*
X90300000Y-116930000D03*
%TD*%
D22*
%TO.C,R5*%
X105090000Y-112200000D03*
X106110000Y-112200000D03*
%TD*%
D23*
%TO.C,C2*%
X87750000Y-115970000D03*
X87750000Y-116930000D03*
%TD*%
M02*
