%TF.GenerationSoftware,KiCad,Pcbnew,6.0.11+dfsg-1*%
%TF.CreationDate,2026-01-14T16:01:06-05:00*%
%TF.ProjectId,Deck_FPGA,4465636b-5f46-4504-9741-2e6b69636164,rev?*%
%TF.SameCoordinates,Original*%
%TF.FileFunction,Soldermask,Top*%
%TF.FilePolarity,Negative*%
%FSLAX46Y46*%
G04 Gerber Fmt 4.6, Leading zero omitted, Abs format (unit mm)*
G04 Created by KiCad (PCBNEW 6.0.11+dfsg-1) date 2026-01-14 16:01:06*
%MOMM*%
%LPD*%
G01*
G04 APERTURE LIST*
G04 Aperture macros list*
%AMRoundRect*
0 Rectangle with rounded corners*
0 $1 Rounding radius*
0 $2 $3 $4 $5 $6 $7 $8 $9 X,Y pos of 4 corners*
0 Add a 4 corners polygon primitive as box body*
4,1,4,$2,$3,$4,$5,$6,$7,$8,$9,$2,$3,0*
0 Add four circle primitives for the rounded corners*
1,1,$1+$1,$2,$3*
1,1,$1+$1,$4,$5*
1,1,$1+$1,$6,$7*
1,1,$1+$1,$8,$9*
0 Add four rect primitives between the rounded corners*
20,1,$1+$1,$2,$3,$4,$5,0*
20,1,$1+$1,$4,$5,$6,$7,0*
20,1,$1+$1,$6,$7,$8,$9,0*
20,1,$1+$1,$8,$9,$2,$3,0*%
G04 Aperture macros list end*
%ADD10R,1.803400X1.143000*%
%ADD11RoundRect,0.140000X-0.140000X-0.170000X0.140000X-0.170000X0.140000X0.170000X-0.140000X0.170000X0*%
%ADD12RoundRect,0.225000X0.250000X-0.225000X0.250000X0.225000X-0.250000X0.225000X-0.250000X-0.225000X0*%
%ADD13RoundRect,0.135000X0.135000X0.185000X-0.135000X0.185000X-0.135000X-0.185000X0.135000X-0.185000X0*%
%ADD14RoundRect,0.135000X0.185000X-0.135000X0.185000X0.135000X-0.185000X0.135000X-0.185000X-0.135000X0*%
%ADD15R,1.100000X1.300000*%
%ADD16RoundRect,0.225000X-0.250000X0.225000X-0.250000X-0.225000X0.250000X-0.225000X0.250000X0.225000X0*%
%ADD17RoundRect,0.225000X-0.225000X-0.250000X0.225000X-0.250000X0.225000X0.250000X-0.225000X0.250000X0*%
%ADD18R,1.700000X1.700000*%
%ADD19O,1.700000X1.700000*%
%ADD20RoundRect,0.218750X-0.218750X-0.256250X0.218750X-0.256250X0.218750X0.256250X-0.218750X0.256250X0*%
%ADD21RoundRect,0.135000X-0.185000X0.135000X-0.185000X-0.135000X0.185000X-0.135000X0.185000X0.135000X0*%
%ADD22RoundRect,0.140000X0.170000X-0.140000X0.170000X0.140000X-0.170000X0.140000X-0.170000X-0.140000X0*%
%ADD23O,0.200000X0.599999*%
%ADD24O,0.599999X0.200000*%
%ADD25R,3.500001X3.500001*%
%ADD26C,0.650000*%
%ADD27C,0.950000*%
%ADD28R,1.000000X1.600000*%
%ADD29RoundRect,0.140000X-0.170000X0.140000X-0.170000X-0.140000X0.170000X-0.140000X0.170000X0.140000X0*%
%ADD30RoundRect,0.135000X-0.135000X-0.185000X0.135000X-0.185000X0.135000X0.185000X-0.135000X0.185000X0*%
%ADD31RoundRect,0.225000X0.225000X0.250000X-0.225000X0.250000X-0.225000X-0.250000X0.225000X-0.250000X0*%
%ADD32RoundRect,0.102000X0.825000X0.525000X-0.825000X0.525000X-0.825000X-0.525000X0.825000X-0.525000X0*%
%ADD33R,0.406400X0.863600*%
%ADD34R,4.902200X4.749800*%
%ADD35C,0.500000*%
G04 APERTURE END LIST*
D10*
%TO.C,L2*%
X118600000Y-114811000D03*
X118600000Y-116589000D03*
%TD*%
D11*
%TO.C,C29*%
X86520000Y-98900000D03*
X87480000Y-98900000D03*
%TD*%
D12*
%TO.C,C1*%
X117500000Y-105075000D03*
X117500000Y-103525000D03*
%TD*%
D10*
%TO.C,L1*%
X111050000Y-106461000D03*
X111050000Y-108239000D03*
%TD*%
D13*
%TO.C,R22*%
X86410000Y-122000000D03*
X85390000Y-122000000D03*
%TD*%
D14*
%TO.C,R20*%
X113200000Y-120310000D03*
X113200000Y-119290000D03*
%TD*%
D12*
%TO.C,C28*%
X114150000Y-104425000D03*
X114150000Y-102875000D03*
%TD*%
D15*
%TO.C,X1*%
X86475000Y-100450000D03*
X86475000Y-102550000D03*
X88125000Y-102550000D03*
X88125000Y-100450000D03*
%TD*%
D16*
%TO.C,C27*%
X118100000Y-119475000D03*
X118100000Y-121025000D03*
%TD*%
D14*
%TO.C,R15*%
X111900000Y-104010000D03*
X111900000Y-102990000D03*
%TD*%
D17*
%TO.C,C25*%
X113375000Y-110800000D03*
X114925000Y-110800000D03*
%TD*%
D18*
%TO.C,J3*%
X81800000Y-104650000D03*
D19*
X81800000Y-107190000D03*
X81800000Y-109730000D03*
X81800000Y-112270000D03*
X81800000Y-114810000D03*
X81800000Y-117350000D03*
%TD*%
D20*
%TO.C,D1*%
X82312500Y-123900000D03*
X83887500Y-123900000D03*
%TD*%
D16*
%TO.C,C32*%
X116500000Y-113975000D03*
X116500000Y-115525000D03*
%TD*%
D21*
%TO.C,R16*%
X84300000Y-111190000D03*
X84300000Y-112210000D03*
%TD*%
D22*
%TO.C,C3*%
X116200000Y-105080000D03*
X116200000Y-104120000D03*
%TD*%
D14*
%TO.C,R26*%
X119200000Y-112160000D03*
X119200000Y-111140000D03*
%TD*%
D23*
%TO.C,U2*%
X114599998Y-112250000D03*
X114199999Y-112250000D03*
X113799998Y-112250000D03*
X113399998Y-112250000D03*
X112999999Y-112250000D03*
X112599997Y-112250000D03*
X112199998Y-112250000D03*
X111799999Y-112250000D03*
X111399997Y-112250000D03*
X110999998Y-112250000D03*
D24*
X110349997Y-112900001D03*
X110349997Y-113300000D03*
X110349997Y-113700002D03*
X110349997Y-114100001D03*
X110349997Y-114500000D03*
X110349997Y-114900002D03*
X110349997Y-115300001D03*
X110349997Y-115700001D03*
X110349997Y-116100002D03*
X110349997Y-116500001D03*
D23*
X110999998Y-117150000D03*
X111399997Y-117150000D03*
X111799999Y-117150000D03*
X112199998Y-117150000D03*
X112599997Y-117150000D03*
X112999999Y-117150000D03*
X113399998Y-117150000D03*
X113799998Y-117150000D03*
X114199999Y-117150000D03*
X114599998Y-117150000D03*
D24*
X115249997Y-116500001D03*
X115249997Y-116100002D03*
X115249997Y-115700001D03*
X115249997Y-115300001D03*
X115249997Y-114900002D03*
X115249997Y-114500000D03*
X115249997Y-114100001D03*
X115249997Y-113700002D03*
X115249997Y-113300000D03*
X115249997Y-112900001D03*
D25*
X112800000Y-114700000D03*
D26*
X114299997Y-114700000D03*
X112800000Y-114700000D03*
X112800000Y-113200000D03*
X111299997Y-114700000D03*
X112800000Y-116200000D03*
%TD*%
D27*
%TO.C,J1*%
X91000000Y-122000000D03*
D28*
X91000000Y-120400000D03*
D27*
X93000000Y-122000000D03*
D28*
X93000000Y-123600000D03*
X95000000Y-120400000D03*
D27*
X95000000Y-122000000D03*
D28*
X97000000Y-123600000D03*
D27*
X97000000Y-122000000D03*
X99000000Y-122000000D03*
D28*
X99000000Y-120400000D03*
D27*
X101000000Y-122000000D03*
D28*
X101000000Y-123600000D03*
X103000000Y-120400000D03*
D27*
X103000000Y-122000000D03*
D28*
X105000000Y-123600000D03*
D27*
X105000000Y-122000000D03*
D28*
X107000000Y-120400000D03*
D27*
X107000000Y-122000000D03*
D28*
X109000000Y-123600000D03*
D27*
X109000000Y-122000000D03*
%TD*%
D29*
%TO.C,C23*%
X109500000Y-115120000D03*
X109500000Y-116080000D03*
%TD*%
D14*
%TO.C,R10*%
X109510000Y-114110000D03*
X109510000Y-113090000D03*
%TD*%
%TO.C,R9*%
X116650000Y-112260000D03*
X116650000Y-111240000D03*
%TD*%
D16*
%TO.C,C26*%
X110100000Y-118675000D03*
X110100000Y-120225000D03*
%TD*%
D14*
%TO.C,R18*%
X114500000Y-120310000D03*
X114500000Y-119290000D03*
%TD*%
D21*
%TO.C,R17*%
X84300000Y-109190000D03*
X84300000Y-110210000D03*
%TD*%
D28*
%TO.C,J2*%
X91000000Y-98400000D03*
D27*
X91000000Y-100000000D03*
D28*
X93000000Y-101600000D03*
D27*
X93000000Y-100000000D03*
D28*
X95000000Y-98400000D03*
D27*
X95000000Y-100000000D03*
D28*
X97000000Y-101600000D03*
D27*
X97000000Y-100000000D03*
D28*
X99000000Y-98400000D03*
D27*
X99000000Y-100000000D03*
X101000000Y-100000000D03*
D28*
X101000000Y-101600000D03*
X103000000Y-98400000D03*
D27*
X103000000Y-100000000D03*
D28*
X105000000Y-101600000D03*
D27*
X105000000Y-100000000D03*
D28*
X107000000Y-98400000D03*
D27*
X107000000Y-100000000D03*
X109000000Y-100000000D03*
D28*
X109000000Y-101600000D03*
%TD*%
D30*
%TO.C,R13*%
X115740000Y-117950000D03*
X116760000Y-117950000D03*
%TD*%
D13*
%TO.C,R7*%
X88510000Y-123300000D03*
X87490000Y-123300000D03*
%TD*%
D31*
%TO.C,C22*%
X111825000Y-110800000D03*
X110275000Y-110800000D03*
%TD*%
D14*
%TO.C,R19*%
X84300000Y-108210000D03*
X84300000Y-107190000D03*
%TD*%
D20*
%TO.C,D3*%
X82312500Y-120500000D03*
X83887500Y-120500000D03*
%TD*%
D14*
%TO.C,R21*%
X112000000Y-120310000D03*
X112000000Y-119290000D03*
%TD*%
D20*
%TO.C,D2*%
X82312500Y-122200000D03*
X83887500Y-122200000D03*
%TD*%
D13*
%TO.C,R12*%
X112160000Y-100700000D03*
X111140000Y-100700000D03*
%TD*%
D32*
%TO.C,SW1*%
X116337500Y-98550000D03*
X112487500Y-98550000D03*
X112487500Y-97100000D03*
X116337500Y-97100000D03*
%TD*%
D30*
%TO.C,R11*%
X111140000Y-101800000D03*
X112160000Y-101800000D03*
%TD*%
D13*
%TO.C,R8*%
X86410000Y-123300000D03*
X85390000Y-123300000D03*
%TD*%
D10*
%TO.C,L3*%
X114100000Y-106511000D03*
X114100000Y-108289000D03*
%TD*%
D13*
%TO.C,R23*%
X86410000Y-120700000D03*
X85390000Y-120700000D03*
%TD*%
D33*
%TO.C,U3*%
X86395000Y-113073500D03*
X87665000Y-113073500D03*
X88935000Y-113073500D03*
X90205000Y-113073500D03*
X90205000Y-105326500D03*
X88935000Y-105326500D03*
X87665000Y-105326500D03*
X86395000Y-105326500D03*
D34*
X88300000Y-109200000D03*
%TD*%
D12*
%TO.C,C24*%
X117950000Y-111525000D03*
X117950000Y-109975000D03*
%TD*%
D14*
%TO.C,R14*%
X110700000Y-104010000D03*
X110700000Y-102990000D03*
%TD*%
D30*
%TO.C,R27*%
X109540000Y-97200000D03*
X110560000Y-97200000D03*
%TD*%
D35*
%TO.C,U1*%
X93600000Y-117800000D03*
X93600000Y-117000000D03*
X93600000Y-116200000D03*
X93600000Y-115400000D03*
X93600000Y-114600000D03*
X93600000Y-113800000D03*
X93600000Y-113000000D03*
X93600000Y-112200000D03*
X93600000Y-111400000D03*
X93600000Y-110600000D03*
X93600000Y-109800000D03*
X93600000Y-109000000D03*
X93600000Y-108200000D03*
X93600000Y-107400000D03*
X93600000Y-106600000D03*
X93600000Y-105800000D03*
X93600000Y-105000000D03*
X93600000Y-104200000D03*
X94400000Y-117800000D03*
X94400000Y-117000000D03*
X94400000Y-116200000D03*
X94400000Y-115400000D03*
X94400000Y-114600000D03*
X94400000Y-113800000D03*
X94400000Y-113000000D03*
X94400000Y-112200000D03*
X94400000Y-111400000D03*
X94400000Y-110600000D03*
X94400000Y-109800000D03*
X94400000Y-109000000D03*
X94400000Y-108200000D03*
X94400000Y-107400000D03*
X94400000Y-106600000D03*
X94400000Y-105800000D03*
X94400000Y-105000000D03*
X94400000Y-104200000D03*
X95200000Y-117800000D03*
X95200000Y-117000000D03*
X95200000Y-116200000D03*
X95200000Y-115400000D03*
X95200000Y-114600000D03*
X95200000Y-113800000D03*
X95200000Y-113000000D03*
X95200000Y-112200000D03*
X95200000Y-111400000D03*
X95200000Y-110600000D03*
X95200000Y-109800000D03*
X95200000Y-109000000D03*
X95200000Y-108200000D03*
X95200000Y-107400000D03*
X95200000Y-106600000D03*
X95200000Y-105800000D03*
X95200000Y-105000000D03*
X95200000Y-104200000D03*
X96000000Y-117800000D03*
X96000000Y-117000000D03*
X96000000Y-116200000D03*
X96000000Y-115400000D03*
X96000000Y-114600000D03*
X96000000Y-113800000D03*
X96000000Y-113000000D03*
X96000000Y-112200000D03*
X96000000Y-111400000D03*
X96000000Y-110600000D03*
X96000000Y-109800000D03*
X96000000Y-109000000D03*
X96000000Y-108200000D03*
X96000000Y-107400000D03*
X96000000Y-106600000D03*
X96000000Y-105800000D03*
X96000000Y-105000000D03*
X96000000Y-104200000D03*
X96800000Y-117800000D03*
X96800000Y-117000000D03*
X96800000Y-116200000D03*
X96800000Y-115400000D03*
X96800000Y-114600000D03*
X96800000Y-113800000D03*
X96800000Y-113000000D03*
X96800000Y-112200000D03*
X96800000Y-111400000D03*
X96800000Y-110600000D03*
X96800000Y-109800000D03*
X96800000Y-109000000D03*
X96800000Y-108200000D03*
X96800000Y-107400000D03*
X96800000Y-106600000D03*
X96800000Y-105800000D03*
X96800000Y-105000000D03*
X96800000Y-104200000D03*
X97600000Y-117800000D03*
X97600000Y-117000000D03*
X97600000Y-116200000D03*
X97600000Y-115400000D03*
X97600000Y-114600000D03*
X97600000Y-113800000D03*
X97600000Y-113000000D03*
X97600000Y-112200000D03*
X97600000Y-111400000D03*
X97600000Y-110600000D03*
X97600000Y-109800000D03*
X97600000Y-109000000D03*
X97600000Y-108200000D03*
X97600000Y-107400000D03*
X97600000Y-106600000D03*
X97600000Y-105800000D03*
X97600000Y-105000000D03*
X97600000Y-104200000D03*
X98400000Y-117800000D03*
X98400000Y-117000000D03*
X98400000Y-116200000D03*
X98400000Y-115400000D03*
X98400000Y-114600000D03*
X98400000Y-113800000D03*
X98400000Y-113000000D03*
X98400000Y-112200000D03*
X98400000Y-111400000D03*
X98400000Y-110600000D03*
X98400000Y-109800000D03*
X98400000Y-109000000D03*
X98400000Y-108200000D03*
X98400000Y-107400000D03*
X98400000Y-106600000D03*
X98400000Y-105800000D03*
X98400000Y-105000000D03*
X98400000Y-104200000D03*
X99200000Y-117800000D03*
X99200000Y-117000000D03*
X99200000Y-116200000D03*
X99200000Y-115400000D03*
X99200000Y-114600000D03*
X99200000Y-113800000D03*
X99200000Y-113000000D03*
X99200000Y-112200000D03*
X99200000Y-111400000D03*
X99200000Y-110600000D03*
X99200000Y-109800000D03*
X99200000Y-109000000D03*
X99200000Y-108200000D03*
X99200000Y-107400000D03*
X99200000Y-106600000D03*
X99200000Y-105800000D03*
X99200000Y-105000000D03*
X99200000Y-104200000D03*
X100000000Y-117800000D03*
X100000000Y-117000000D03*
X100000000Y-116200000D03*
X100000000Y-115400000D03*
X100000000Y-114600000D03*
X100000000Y-113800000D03*
X100000000Y-113000000D03*
X100000000Y-112200000D03*
X100000000Y-111400000D03*
X100000000Y-110600000D03*
X100000000Y-109800000D03*
X100000000Y-109000000D03*
X100000000Y-108200000D03*
X100000000Y-107400000D03*
X100000000Y-106600000D03*
X100000000Y-105800000D03*
X100000000Y-105000000D03*
X100000000Y-104200000D03*
X100800000Y-117800000D03*
X100800000Y-117000000D03*
X100800000Y-116200000D03*
X100800000Y-115400000D03*
X100800000Y-114600000D03*
X100800000Y-113800000D03*
X100800000Y-113000000D03*
X100800000Y-112200000D03*
X100800000Y-111400000D03*
X100800000Y-110600000D03*
X100800000Y-109800000D03*
X100800000Y-109000000D03*
X100800000Y-108200000D03*
X100800000Y-107400000D03*
X100800000Y-106600000D03*
X100800000Y-105800000D03*
X100800000Y-105000000D03*
X100800000Y-104200000D03*
X101600000Y-117800000D03*
X101600000Y-117000000D03*
X101600000Y-116200000D03*
X101600000Y-115400000D03*
X101600000Y-114600000D03*
X101600000Y-113800000D03*
X101600000Y-113000000D03*
X101600000Y-112200000D03*
X101600000Y-111400000D03*
X101600000Y-110600000D03*
X101600000Y-109800000D03*
X101600000Y-109000000D03*
X101600000Y-108200000D03*
X101600000Y-107400000D03*
X101600000Y-106600000D03*
X101600000Y-105800000D03*
X101600000Y-105000000D03*
X101600000Y-104200000D03*
X102400000Y-117800000D03*
X102400000Y-117000000D03*
X102400000Y-116200000D03*
X102400000Y-115400000D03*
X102400000Y-114600000D03*
X102400000Y-113800000D03*
X102400000Y-113000000D03*
X102400000Y-112200000D03*
X102400000Y-111400000D03*
X102400000Y-110600000D03*
X102400000Y-109800000D03*
X102400000Y-109000000D03*
X102400000Y-108200000D03*
X102400000Y-107400000D03*
X102400000Y-106600000D03*
X102400000Y-105800000D03*
X102400000Y-105000000D03*
X102400000Y-104200000D03*
X103200000Y-117800000D03*
X103200000Y-117000000D03*
X103200000Y-116200000D03*
X103200000Y-115400000D03*
X103200000Y-114600000D03*
X103200000Y-113800000D03*
X103200000Y-113000000D03*
X103200000Y-112200000D03*
X103200000Y-111400000D03*
X103200000Y-110600000D03*
X103200000Y-109800000D03*
X103200000Y-109000000D03*
X103200000Y-108200000D03*
X103200000Y-107400000D03*
X103200000Y-106600000D03*
X103200000Y-105800000D03*
X103200000Y-105000000D03*
X103200000Y-104200000D03*
X104000000Y-117800000D03*
X104000000Y-117000000D03*
X104000000Y-116200000D03*
X104000000Y-115400000D03*
X104000000Y-114600000D03*
X104000000Y-113800000D03*
X104000000Y-113000000D03*
X104000000Y-112200000D03*
X104000000Y-111400000D03*
X104000000Y-110600000D03*
X104000000Y-109800000D03*
X104000000Y-109000000D03*
X104000000Y-108200000D03*
X104000000Y-107400000D03*
X104000000Y-106600000D03*
X104000000Y-105800000D03*
X104000000Y-105000000D03*
X104000000Y-104200000D03*
X104800000Y-117800000D03*
X104800000Y-117000000D03*
X104800000Y-116200000D03*
X104800000Y-115400000D03*
X104800000Y-114600000D03*
X104800000Y-113800000D03*
X104800000Y-113000000D03*
X104800000Y-112200000D03*
X104800000Y-111400000D03*
X104800000Y-110600000D03*
X104800000Y-109800000D03*
X104800000Y-109000000D03*
X104800000Y-108200000D03*
X104800000Y-107400000D03*
X104800000Y-106600000D03*
X104800000Y-105800000D03*
X104800000Y-105000000D03*
X104800000Y-104200000D03*
X105600000Y-117800000D03*
X105600000Y-117000000D03*
X105600000Y-116200000D03*
X105600000Y-115400000D03*
X105600000Y-114600000D03*
X105600000Y-113800000D03*
X105600000Y-113000000D03*
X105600000Y-112200000D03*
X105600000Y-111400000D03*
X105600000Y-110600000D03*
X105600000Y-109800000D03*
X105600000Y-109000000D03*
X105600000Y-108200000D03*
X105600000Y-107400000D03*
X105600000Y-106600000D03*
X105600000Y-105800000D03*
X105600000Y-105000000D03*
X105600000Y-104200000D03*
X106400000Y-117800000D03*
X106400000Y-117000000D03*
X106400000Y-116200000D03*
X106400000Y-115400000D03*
X106400000Y-114600000D03*
X106400000Y-113800000D03*
X106400000Y-113000000D03*
X106400000Y-112200000D03*
X106400000Y-111400000D03*
X106400000Y-110600000D03*
X106400000Y-109800000D03*
X106400000Y-109000000D03*
X106400000Y-108200000D03*
X106400000Y-107400000D03*
X106400000Y-106600000D03*
X106400000Y-105800000D03*
X106400000Y-105000000D03*
X106400000Y-104200000D03*
X107200000Y-117800000D03*
X107200000Y-117000000D03*
X107200000Y-116200000D03*
X107200000Y-115400000D03*
X107200000Y-114600000D03*
X107200000Y-113800000D03*
X107200000Y-113000000D03*
X107200000Y-112200000D03*
X107200000Y-111400000D03*
X107200000Y-110600000D03*
X107200000Y-109800000D03*
X107200000Y-109000000D03*
X107200000Y-108200000D03*
X107200000Y-107400000D03*
X107200000Y-106600000D03*
X107200000Y-105800000D03*
X107200000Y-105000000D03*
X107200000Y-104200000D03*
%TD*%
M02*
