%TF.GenerationSoftware,KiCad,Pcbnew,6.0.11+dfsg-1*%
%TF.CreationDate,2026-01-13T21:19:28-05:00*%
%TF.ProjectId,Deck_FPGA,4465636b-5f46-4504-9741-2e6b69636164,rev?*%
%TF.SameCoordinates,Original*%
%TF.FileFunction,Drillmap*%
%TF.FilePolarity,Positive*%
%FSLAX45Y45*%
G04 Gerber Fmt 4.5, Leading zero omitted, Abs format (unit mm)*
G04 Created by KiCad (PCBNEW 6.0.11+dfsg-1) date 2026-01-13 21:19:28*
%MOMM*%
%LPD*%
G01*
G04 APERTURE LIST*
%ADD10C,0.100000*%
%ADD11C,0.200000*%
%ADD12C,0.020000*%
%ADD13C,0.030000*%
%ADD14C,0.040000*%
%ADD15C,0.070000*%
%ADD16C,0.080000*%
G04 APERTURE END LIST*
D10*
X12100000Y-10000000D02*
X12100000Y-12200000D01*
X8400000Y-9600000D02*
G75*
G03*
X8000000Y-10000000I0J-400000D01*
G01*
X8000000Y-12200000D02*
G75*
G03*
X8400000Y-12600000I400000J0D01*
G01*
X11700000Y-12600000D02*
G75*
G03*
X12100000Y-12200000I0J400000D01*
G01*
X8000000Y-10000000D02*
X8000000Y-12200000D01*
X12100000Y-10000000D02*
G75*
G03*
X11700000Y-9600000I-400000J0D01*
G01*
X8400000Y-12600000D02*
X11700000Y-12600000D01*
X8400000Y-9600000D02*
X11700000Y-9600000D01*
D11*
D12*
X10880000Y-9710000D02*
X10900000Y-9730000D01*
X10900000Y-9710000D02*
X10880000Y-9730000D01*
X11780000Y-9835000D02*
X11800000Y-9855000D01*
X11800000Y-9835000D02*
X11780000Y-9855000D01*
D13*
X8370000Y-10980000D02*
G75*
G03*
X8370000Y-10980000I-15000J0D01*
G01*
X8415000Y-11350000D02*
G75*
G03*
X8415000Y-11350000I-15000J0D01*
G01*
X8465000Y-10610000D02*
G75*
G03*
X8465000Y-10610000I-15000J0D01*
G01*
X8675000Y-10820000D02*
G75*
G03*
X8675000Y-10820000I-15000J0D01*
G01*
X8755000Y-12070000D02*
G75*
G03*
X8755000Y-12070000I-15000J0D01*
G01*
X8755000Y-12200000D02*
G75*
G03*
X8755000Y-12200000I-15000J0D01*
G01*
X8764000Y-12441000D02*
G75*
G03*
X8764000Y-12441000I-15000J0D01*
G01*
X8855000Y-9890000D02*
G75*
G03*
X8855000Y-9890000I-15000J0D01*
G01*
X8940000Y-10420000D02*
G75*
G03*
X8940000Y-10420000I-15000J0D01*
G01*
X8945000Y-12330000D02*
G75*
G03*
X8945000Y-12330000I-15000J0D01*
G01*
X8985000Y-10650000D02*
G75*
G03*
X8985000Y-10650000I-15000J0D01*
G01*
X9035000Y-11430000D02*
G75*
G03*
X9035000Y-11430000I-15000J0D01*
G01*
X9197500Y-9862500D02*
G75*
G03*
X9197500Y-9862500I-15000J0D01*
G01*
X9265000Y-10405000D02*
G75*
G03*
X9265000Y-10405000I-15000J0D01*
G01*
X9310000Y-10495000D02*
G75*
G03*
X9310000Y-10495000I-15000J0D01*
G01*
X9395000Y-10160000D02*
G75*
G03*
X9395000Y-10160000I-15000J0D01*
G01*
X9405000Y-12360000D02*
G75*
G03*
X9405000Y-12360000I-15000J0D01*
G01*
X9415000Y-10460000D02*
G75*
G03*
X9415000Y-10460000I-15000J0D01*
G01*
X9415000Y-10620000D02*
G75*
G03*
X9415000Y-10620000I-15000J0D01*
G01*
X9415000Y-10940000D02*
G75*
G03*
X9415000Y-10940000I-15000J0D01*
G01*
X9415000Y-11180000D02*
G75*
G03*
X9415000Y-11180000I-15000J0D01*
G01*
X9415000Y-11420000D02*
G75*
G03*
X9415000Y-11420000I-15000J0D01*
G01*
X9415000Y-11580000D02*
G75*
G03*
X9415000Y-11580000I-15000J0D01*
G01*
X9415000Y-11740000D02*
G75*
G03*
X9415000Y-11740000I-15000J0D01*
G01*
X9445000Y-9840000D02*
G75*
G03*
X9445000Y-9840000I-15000J0D01*
G01*
X9445000Y-12040000D02*
G75*
G03*
X9445000Y-12040000I-15000J0D01*
G01*
X9495000Y-10780000D02*
G75*
G03*
X9495000Y-10780000I-15000J0D01*
G01*
X9495000Y-10940000D02*
G75*
G03*
X9495000Y-10940000I-15000J0D01*
G01*
X9495000Y-11260000D02*
G75*
G03*
X9495000Y-11260000I-15000J0D01*
G01*
X9495000Y-11340000D02*
G75*
G03*
X9495000Y-11340000I-15000J0D01*
G01*
X9495000Y-11420000D02*
G75*
G03*
X9495000Y-11420000I-15000J0D01*
G01*
X9495000Y-11580000D02*
G75*
G03*
X9495000Y-11580000I-15000J0D01*
G01*
X9495000Y-11660000D02*
G75*
G03*
X9495000Y-11660000I-15000J0D01*
G01*
X9575000Y-10460000D02*
G75*
G03*
X9575000Y-10460000I-15000J0D01*
G01*
X9575000Y-10540000D02*
G75*
G03*
X9575000Y-10540000I-15000J0D01*
G01*
X9575000Y-10780000D02*
G75*
G03*
X9575000Y-10780000I-15000J0D01*
G01*
X9575000Y-10940000D02*
G75*
G03*
X9575000Y-10940000I-15000J0D01*
G01*
X9575000Y-11180000D02*
G75*
G03*
X9575000Y-11180000I-15000J0D01*
G01*
X9575000Y-11340000D02*
G75*
G03*
X9575000Y-11340000I-15000J0D01*
G01*
X9575000Y-11500000D02*
G75*
G03*
X9575000Y-11500000I-15000J0D01*
G01*
X9575000Y-11580000D02*
G75*
G03*
X9575000Y-11580000I-15000J0D01*
G01*
X9575000Y-11740000D02*
G75*
G03*
X9575000Y-11740000I-15000J0D01*
G01*
X9580000Y-10615000D02*
G75*
G03*
X9580000Y-10615000I-15000J0D01*
G01*
X9625000Y-12360000D02*
G75*
G03*
X9625000Y-12360000I-15000J0D01*
G01*
X9655000Y-10940000D02*
G75*
G03*
X9655000Y-10940000I-15000J0D01*
G01*
X9655000Y-11020000D02*
G75*
G03*
X9655000Y-11020000I-15000J0D01*
G01*
X9655000Y-11420000D02*
G75*
G03*
X9655000Y-11420000I-15000J0D01*
G01*
X9655000Y-11500000D02*
G75*
G03*
X9655000Y-11500000I-15000J0D01*
G01*
X9655000Y-11660000D02*
G75*
G03*
X9655000Y-11660000I-15000J0D01*
G01*
X9735000Y-10460000D02*
G75*
G03*
X9735000Y-10460000I-15000J0D01*
G01*
X9735000Y-10620000D02*
G75*
G03*
X9735000Y-10620000I-15000J0D01*
G01*
X9735000Y-10780000D02*
G75*
G03*
X9735000Y-10780000I-15000J0D01*
G01*
X9735000Y-10860000D02*
G75*
G03*
X9735000Y-10860000I-15000J0D01*
G01*
X9735000Y-10940000D02*
G75*
G03*
X9735000Y-10940000I-15000J0D01*
G01*
X9735000Y-11340000D02*
G75*
G03*
X9735000Y-11340000I-15000J0D01*
G01*
X9735000Y-11420000D02*
G75*
G03*
X9735000Y-11420000I-15000J0D01*
G01*
X9735000Y-11580000D02*
G75*
G03*
X9735000Y-11580000I-15000J0D01*
G01*
X9735000Y-11740000D02*
G75*
G03*
X9735000Y-11740000I-15000J0D01*
G01*
X9815000Y-10540000D02*
G75*
G03*
X9815000Y-10540000I-15000J0D01*
G01*
X9815000Y-10780000D02*
G75*
G03*
X9815000Y-10780000I-15000J0D01*
G01*
X9815000Y-10940000D02*
G75*
G03*
X9815000Y-10940000I-15000J0D01*
G01*
X9815000Y-11020000D02*
G75*
G03*
X9815000Y-11020000I-15000J0D01*
G01*
X9815000Y-11100000D02*
G75*
G03*
X9815000Y-11100000I-15000J0D01*
G01*
X9815000Y-11180000D02*
G75*
G03*
X9815000Y-11180000I-15000J0D01*
G01*
X9815000Y-11260000D02*
G75*
G03*
X9815000Y-11260000I-15000J0D01*
G01*
X9815000Y-11500000D02*
G75*
G03*
X9815000Y-11500000I-15000J0D01*
G01*
X9815000Y-11660000D02*
G75*
G03*
X9815000Y-11660000I-15000J0D01*
G01*
X9835000Y-12040000D02*
G75*
G03*
X9835000Y-12040000I-15000J0D01*
G01*
X9892500Y-11177500D02*
G75*
G03*
X9892500Y-11177500I-15000J0D01*
G01*
X9895000Y-10620000D02*
G75*
G03*
X9895000Y-10620000I-15000J0D01*
G01*
X9895000Y-10780000D02*
G75*
G03*
X9895000Y-10780000I-15000J0D01*
G01*
X9895000Y-10940000D02*
G75*
G03*
X9895000Y-10940000I-15000J0D01*
G01*
X9895000Y-11260000D02*
G75*
G03*
X9895000Y-11260000I-15000J0D01*
G01*
X9895000Y-11420000D02*
G75*
G03*
X9895000Y-11420000I-15000J0D01*
G01*
X9895000Y-11580000D02*
G75*
G03*
X9895000Y-11580000I-15000J0D01*
G01*
X9895000Y-11740000D02*
G75*
G03*
X9895000Y-11740000I-15000J0D01*
G01*
X9975000Y-10460000D02*
G75*
G03*
X9975000Y-10460000I-15000J0D01*
G01*
X9975000Y-10780000D02*
G75*
G03*
X9975000Y-10780000I-15000J0D01*
G01*
X9975000Y-10940000D02*
G75*
G03*
X9975000Y-10940000I-15000J0D01*
G01*
X9975000Y-11020000D02*
G75*
G03*
X9975000Y-11020000I-15000J0D01*
G01*
X9975000Y-11340000D02*
G75*
G03*
X9975000Y-11340000I-15000J0D01*
G01*
X9975000Y-11660000D02*
G75*
G03*
X9975000Y-11660000I-15000J0D01*
G01*
X9977500Y-11262500D02*
G75*
G03*
X9977500Y-11262500I-15000J0D01*
G01*
X10052500Y-11577500D02*
G75*
G03*
X10052500Y-11577500I-15000J0D01*
G01*
X10055000Y-10620000D02*
G75*
G03*
X10055000Y-10620000I-15000J0D01*
G01*
X10055000Y-10780000D02*
G75*
G03*
X10055000Y-10780000I-15000J0D01*
G01*
X10055000Y-10940000D02*
G75*
G03*
X10055000Y-10940000I-15000J0D01*
G01*
X10055000Y-11100000D02*
G75*
G03*
X10055000Y-11100000I-15000J0D01*
G01*
X10055000Y-11180000D02*
G75*
G03*
X10055000Y-11180000I-15000J0D01*
G01*
X10055000Y-11340000D02*
G75*
G03*
X10055000Y-11340000I-15000J0D01*
G01*
X10055000Y-11740000D02*
G75*
G03*
X10055000Y-11740000I-15000J0D01*
G01*
X10135000Y-10380000D02*
G75*
G03*
X10135000Y-10380000I-15000J0D01*
G01*
X10135000Y-10540000D02*
G75*
G03*
X10135000Y-10540000I-15000J0D01*
G01*
X10135000Y-10620000D02*
G75*
G03*
X10135000Y-10620000I-15000J0D01*
G01*
X10135000Y-10780000D02*
G75*
G03*
X10135000Y-10780000I-15000J0D01*
G01*
X10135000Y-10940000D02*
G75*
G03*
X10135000Y-10940000I-15000J0D01*
G01*
X10135000Y-11100000D02*
G75*
G03*
X10135000Y-11100000I-15000J0D01*
G01*
X10135000Y-11180000D02*
G75*
G03*
X10135000Y-11180000I-15000J0D01*
G01*
X10135000Y-11260000D02*
G75*
G03*
X10135000Y-11260000I-15000J0D01*
G01*
X10135000Y-11500000D02*
G75*
G03*
X10135000Y-11500000I-15000J0D01*
G01*
X10135000Y-11660000D02*
G75*
G03*
X10135000Y-11660000I-15000J0D01*
G01*
X10205000Y-12360000D02*
G75*
G03*
X10205000Y-12360000I-15000J0D01*
G01*
X10215000Y-10380000D02*
G75*
G03*
X10215000Y-10380000I-15000J0D01*
G01*
X10215000Y-10545000D02*
G75*
G03*
X10215000Y-10545000I-15000J0D01*
G01*
X10215000Y-10620000D02*
G75*
G03*
X10215000Y-10620000I-15000J0D01*
G01*
X10215000Y-10940000D02*
G75*
G03*
X10215000Y-10940000I-15000J0D01*
G01*
X10215000Y-11020000D02*
G75*
G03*
X10215000Y-11020000I-15000J0D01*
G01*
X10215000Y-11100000D02*
G75*
G03*
X10215000Y-11100000I-15000J0D01*
G01*
X10215000Y-11180000D02*
G75*
G03*
X10215000Y-11180000I-15000J0D01*
G01*
X10215000Y-11740000D02*
G75*
G03*
X10215000Y-11740000I-15000J0D01*
G01*
X10292500Y-11662500D02*
G75*
G03*
X10292500Y-11662500I-15000J0D01*
G01*
X10294950Y-10935050D02*
G75*
G03*
X10294950Y-10935050I-15000J0D01*
G01*
X10295000Y-10380000D02*
G75*
G03*
X10295000Y-10380000I-15000J0D01*
G01*
X10295000Y-10860000D02*
G75*
G03*
X10295000Y-10860000I-15000J0D01*
G01*
X10295000Y-11020000D02*
G75*
G03*
X10295000Y-11020000I-15000J0D01*
G01*
X10295000Y-11100000D02*
G75*
G03*
X10295000Y-11100000I-15000J0D01*
G01*
X10295000Y-11180000D02*
G75*
G03*
X10295000Y-11180000I-15000J0D01*
G01*
X10295000Y-11260000D02*
G75*
G03*
X10295000Y-11260000I-15000J0D01*
G01*
X10295000Y-11580000D02*
G75*
G03*
X10295000Y-11580000I-15000J0D01*
G01*
X10345000Y-10300000D02*
G75*
G03*
X10345000Y-10300000I-15000J0D01*
G01*
X10374950Y-10937195D02*
G75*
G03*
X10374950Y-10937195I-15000J0D01*
G01*
X10375000Y-10780000D02*
G75*
G03*
X10375000Y-10780000I-15000J0D01*
G01*
X10375000Y-11020000D02*
G75*
G03*
X10375000Y-11020000I-15000J0D01*
G01*
X10375000Y-11100000D02*
G75*
G03*
X10375000Y-11100000I-15000J0D01*
G01*
X10375000Y-11260000D02*
G75*
G03*
X10375000Y-11260000I-15000J0D01*
G01*
X10375000Y-11500000D02*
G75*
G03*
X10375000Y-11500000I-15000J0D01*
G01*
X10375000Y-11740000D02*
G75*
G03*
X10375000Y-11740000I-15000J0D01*
G01*
X10380000Y-10865000D02*
G75*
G03*
X10380000Y-10865000I-15000J0D01*
G01*
X10395000Y-12045000D02*
G75*
G03*
X10395000Y-12045000I-15000J0D01*
G01*
X10455000Y-10540000D02*
G75*
G03*
X10455000Y-10540000I-15000J0D01*
G01*
X10455000Y-10780000D02*
G75*
G03*
X10455000Y-10780000I-15000J0D01*
G01*
X10455000Y-10940000D02*
G75*
G03*
X10455000Y-10940000I-15000J0D01*
G01*
X10455000Y-11020000D02*
G75*
G03*
X10455000Y-11020000I-15000J0D01*
G01*
X10455000Y-11100000D02*
G75*
G03*
X10455000Y-11100000I-15000J0D01*
G01*
X10455000Y-11180000D02*
G75*
G03*
X10455000Y-11180000I-15000J0D01*
G01*
X10455000Y-11260000D02*
G75*
G03*
X10455000Y-11260000I-15000J0D01*
G01*
X10455000Y-11340000D02*
G75*
G03*
X10455000Y-11340000I-15000J0D01*
G01*
X10455000Y-11500000D02*
G75*
G03*
X10455000Y-11500000I-15000J0D01*
G01*
X10455000Y-11580000D02*
G75*
G03*
X10455000Y-11580000I-15000J0D01*
G01*
X10535000Y-10540000D02*
G75*
G03*
X10535000Y-10540000I-15000J0D01*
G01*
X10535000Y-11660000D02*
G75*
G03*
X10535000Y-11660000I-15000J0D01*
G01*
X10535000Y-10779950D02*
G75*
G03*
X10535000Y-10779950I-15000J0D01*
G01*
X10541251Y-11018749D02*
G75*
G03*
X10541251Y-11018749I-15000J0D01*
G01*
X10615000Y-10460000D02*
G75*
G03*
X10615000Y-10460000I-15000J0D01*
G01*
X10615000Y-10940000D02*
G75*
G03*
X10615000Y-10940000I-15000J0D01*
G01*
X10615000Y-11740000D02*
G75*
G03*
X10615000Y-11740000I-15000J0D01*
G01*
X10692500Y-10942500D02*
G75*
G03*
X10692500Y-10942500I-15000J0D01*
G01*
X10695000Y-10620000D02*
G75*
G03*
X10695000Y-10620000I-15000J0D01*
G01*
X10695000Y-10780000D02*
G75*
G03*
X10695000Y-10780000I-15000J0D01*
G01*
X10695000Y-11100000D02*
G75*
G03*
X10695000Y-11100000I-15000J0D01*
G01*
X10695000Y-11180000D02*
G75*
G03*
X10695000Y-11180000I-15000J0D01*
G01*
X10695000Y-11260000D02*
G75*
G03*
X10695000Y-11260000I-15000J0D01*
G01*
X10695000Y-11340000D02*
G75*
G03*
X10695000Y-11340000I-15000J0D01*
G01*
X10695000Y-11500000D02*
G75*
G03*
X10695000Y-11500000I-15000J0D01*
G01*
X10695000Y-11660000D02*
G75*
G03*
X10695000Y-11660000I-15000J0D01*
G01*
X10770000Y-10385000D02*
G75*
G03*
X10770000Y-10385000I-15000J0D01*
G01*
X10772500Y-11097500D02*
G75*
G03*
X10772500Y-11097500I-15000J0D01*
G01*
X10865749Y-10345749D02*
G75*
G03*
X10865749Y-10345749I-15000J0D01*
G01*
X10876751Y-10413249D02*
G75*
G03*
X10876751Y-10413249I-15000J0D01*
G01*
X10996000Y-10299000D02*
G75*
G03*
X10996000Y-10299000I-15000J0D01*
G01*
X11045000Y-11240000D02*
G75*
G03*
X11045000Y-11240000I-15000J0D01*
G01*
X11055000Y-10180000D02*
G75*
G03*
X11055000Y-10180000I-15000J0D01*
G01*
X11146105Y-10259050D02*
G75*
G03*
X11146105Y-10259050I-15000J0D01*
G01*
X11195000Y-11830000D02*
G75*
G03*
X11195000Y-11830000I-15000J0D01*
G01*
X11275000Y-10795000D02*
G75*
G03*
X11275000Y-10795000I-15000J0D01*
G01*
X11325000Y-11830000D02*
G75*
G03*
X11325000Y-11830000I-15000J0D01*
G01*
X11381081Y-11845081D02*
G75*
G03*
X11381081Y-11845081I-15000J0D01*
G01*
X11434950Y-11779251D02*
G75*
G03*
X11434950Y-11779251I-15000J0D01*
G01*
X11485000Y-11780000D02*
G75*
G03*
X11485000Y-11780000I-15000J0D01*
G01*
X11565000Y-12030000D02*
G75*
G03*
X11565000Y-12030000I-15000J0D01*
G01*
X11745000Y-11550000D02*
G75*
G03*
X11745000Y-11550000I-15000J0D01*
G01*
X11130000Y-11455000D02*
X11130000Y-11485000D01*
X11115000Y-11470000D02*
X11145000Y-11470000D01*
X11280000Y-11305000D02*
X11280000Y-11335000D01*
X11265000Y-11320000D02*
X11295000Y-11320000D01*
X11280000Y-11455000D02*
X11280000Y-11485000D01*
X11265000Y-11470000D02*
X11295000Y-11470000D01*
X11280000Y-11605000D02*
X11280000Y-11635000D01*
X11265000Y-11620000D02*
X11295000Y-11620000D01*
X11430000Y-11455000D02*
X11430000Y-11485000D01*
X11415000Y-11470000D02*
X11445000Y-11470000D01*
D14*
X8314142Y-10869142D02*
X8314142Y-10840858D01*
X8285858Y-10840858D01*
X8285858Y-10869142D01*
X8314142Y-10869142D01*
X8449142Y-10479142D02*
X8449142Y-10450858D01*
X8420858Y-10450858D01*
X8420858Y-10479142D01*
X8449142Y-10479142D01*
X8499142Y-10059142D02*
X8499142Y-10030858D01*
X8470858Y-10030858D01*
X8470858Y-10059142D01*
X8499142Y-10059142D01*
X8664142Y-10419142D02*
X8664142Y-10390858D01*
X8635858Y-10390858D01*
X8635858Y-10419142D01*
X8664142Y-10419142D01*
X9139142Y-11609142D02*
X9139142Y-11580858D01*
X9110858Y-11580858D01*
X9110858Y-11609142D01*
X9139142Y-11609142D01*
X9139142Y-11709142D02*
X9139142Y-11680858D01*
X9110858Y-11680858D01*
X9110858Y-11709142D01*
X9139142Y-11709142D01*
X10129142Y-11884142D02*
X10129142Y-11855858D01*
X10100858Y-11855858D01*
X10100858Y-11884142D01*
X10129142Y-11884142D01*
X10269142Y-11884142D02*
X10269142Y-11855858D01*
X10240858Y-11855858D01*
X10240858Y-11884142D01*
X10269142Y-11884142D01*
X10404142Y-11884142D02*
X10404142Y-11855858D01*
X10375858Y-11855858D01*
X10375858Y-11884142D01*
X10404142Y-11884142D01*
X10604142Y-9854142D02*
X10604142Y-9825858D01*
X10575858Y-9825858D01*
X10575858Y-9854142D01*
X10604142Y-9854142D01*
X10714142Y-9714142D02*
X10714142Y-9685858D01*
X10685858Y-9685858D01*
X10685858Y-9714142D01*
X10714142Y-9714142D01*
X10804142Y-12374142D02*
X10804142Y-12345858D01*
X10775858Y-12345858D01*
X10775858Y-12374142D01*
X10804142Y-12374142D01*
X10809142Y-10884142D02*
X10809142Y-10855858D01*
X10780858Y-10855858D01*
X10780858Y-10884142D01*
X10809142Y-10884142D01*
X10809142Y-11004142D02*
X10809142Y-10975858D01*
X10780858Y-10975858D01*
X10780858Y-11004142D01*
X10809142Y-11004142D01*
X10819142Y-9854142D02*
X10819142Y-9825858D01*
X10790858Y-9825858D01*
X10790858Y-9854142D01*
X10819142Y-9854142D01*
X10829142Y-11399142D02*
X10829142Y-11370858D01*
X10800858Y-11370858D01*
X10800858Y-11399142D01*
X10829142Y-11399142D01*
X10829142Y-11509142D02*
X10829142Y-11480858D01*
X10800858Y-11480858D01*
X10800858Y-11509142D01*
X10829142Y-11509142D01*
X10829142Y-11614142D02*
X10829142Y-11585858D01*
X10800858Y-11585858D01*
X10800858Y-11614142D01*
X10829142Y-11614142D01*
X10829142Y-11724142D02*
X10829142Y-11695858D01*
X10800858Y-11695858D01*
X10800858Y-11724142D01*
X10829142Y-11724142D01*
X10844142Y-10569142D02*
X10844142Y-10540858D01*
X10815858Y-10540858D01*
X10815858Y-10569142D01*
X10844142Y-10569142D01*
X10989142Y-11724142D02*
X10989142Y-11695858D01*
X10960858Y-11695858D01*
X10960858Y-11724142D01*
X10989142Y-11724142D01*
X11024142Y-12199142D02*
X11024142Y-12170858D01*
X10995858Y-12170858D01*
X10995858Y-12199142D01*
X11024142Y-12199142D01*
X11024142Y-12374142D02*
X11024142Y-12345858D01*
X10995858Y-12345858D01*
X10995858Y-12374142D01*
X11024142Y-12374142D01*
X11044142Y-10974142D02*
X11044142Y-10945858D01*
X11015858Y-10945858D01*
X11015858Y-10974142D01*
X11044142Y-10974142D01*
X11140192Y-10543092D02*
X11140192Y-10514808D01*
X11111908Y-10514808D01*
X11111908Y-10543092D01*
X11140192Y-10543092D01*
X11199142Y-10974142D02*
X11199142Y-10945858D01*
X11170858Y-10945858D01*
X11170858Y-10974142D01*
X11199142Y-10974142D01*
X11260192Y-10543092D02*
X11260192Y-10514808D01*
X11231908Y-10514808D01*
X11231908Y-10543092D01*
X11260192Y-10543092D01*
X11314142Y-10204142D02*
X11314142Y-10175858D01*
X11285858Y-10175858D01*
X11285858Y-10204142D01*
X11314142Y-10204142D01*
X11354142Y-10979142D02*
X11354142Y-10950858D01*
X11325858Y-10950858D01*
X11325858Y-10979142D01*
X11354142Y-10979142D01*
X11439142Y-12404142D02*
X11439142Y-12375858D01*
X11410858Y-12375858D01*
X11410858Y-12404142D01*
X11439142Y-12404142D01*
X11514142Y-10974142D02*
X11514142Y-10945858D01*
X11485858Y-10945858D01*
X11485858Y-10974142D01*
X11514142Y-10974142D01*
X11569142Y-11239142D02*
X11569142Y-11210858D01*
X11540858Y-11210858D01*
X11540858Y-11239142D01*
X11569142Y-11239142D01*
X11594142Y-10319142D02*
X11594142Y-10290858D01*
X11565858Y-10290858D01*
X11565858Y-10319142D01*
X11594142Y-10319142D01*
X11634142Y-10599142D02*
X11634142Y-10570858D01*
X11605858Y-10570858D01*
X11605858Y-10599142D01*
X11634142Y-10599142D01*
X11654142Y-10854142D02*
X11654142Y-10825858D01*
X11625858Y-10825858D01*
X11625858Y-10854142D01*
X11654142Y-10854142D01*
X11654142Y-10964142D02*
X11654142Y-10935858D01*
X11625858Y-10935858D01*
X11625858Y-10964142D01*
X11654142Y-10964142D01*
X11699142Y-12114142D02*
X11699142Y-12085858D01*
X11670858Y-12085858D01*
X11670858Y-12114142D01*
X11699142Y-12114142D01*
X11746642Y-10131642D02*
X11746642Y-10103358D01*
X11718358Y-10103358D01*
X11718358Y-10131642D01*
X11746642Y-10131642D01*
X11824142Y-11824142D02*
X11824142Y-11795858D01*
X11795858Y-11795858D01*
X11795858Y-11824142D01*
X11824142Y-11824142D01*
X11859142Y-10244142D02*
X11859142Y-10215858D01*
X11830858Y-10215858D01*
X11830858Y-10244142D01*
X11859142Y-10244142D01*
X11899142Y-10374142D02*
X11899142Y-10345858D01*
X11870858Y-10345858D01*
X11870858Y-10374142D01*
X11899142Y-10374142D01*
X11899142Y-10554142D02*
X11899142Y-10525858D01*
X11870858Y-10525858D01*
X11870858Y-10554142D01*
X11899142Y-10554142D01*
X11924092Y-11361408D02*
X11924092Y-11333124D01*
X11895808Y-11333124D01*
X11895808Y-11361408D01*
X11924092Y-11361408D01*
X11939142Y-11014142D02*
X11939142Y-10985858D01*
X11910858Y-10985858D01*
X11910858Y-11014142D01*
X11939142Y-11014142D01*
D15*
X11238750Y-9737500D02*
X11273750Y-9702500D01*
X11238750Y-9667500D01*
X11203750Y-9702500D01*
X11238750Y-9737500D01*
X11643750Y-9737500D02*
X11678750Y-9702500D01*
X11643750Y-9667500D01*
X11608750Y-9702500D01*
X11643750Y-9737500D01*
D16*
X9060000Y-9960000D02*
X9140000Y-10040000D01*
X9140000Y-9960000D02*
X9060000Y-10040000D01*
X9140000Y-10000000D02*
G75*
G03*
X9140000Y-10000000I-40000J0D01*
G01*
X9060000Y-12160000D02*
X9140000Y-12240000D01*
X9140000Y-12160000D02*
X9060000Y-12240000D01*
X9140000Y-12200000D02*
G75*
G03*
X9140000Y-12200000I-40000J0D01*
G01*
X9260000Y-9960000D02*
X9340000Y-10040000D01*
X9340000Y-9960000D02*
X9260000Y-10040000D01*
X9340000Y-10000000D02*
G75*
G03*
X9340000Y-10000000I-40000J0D01*
G01*
X9260000Y-12160000D02*
X9340000Y-12240000D01*
X9340000Y-12160000D02*
X9260000Y-12240000D01*
X9340000Y-12200000D02*
G75*
G03*
X9340000Y-12200000I-40000J0D01*
G01*
X9460000Y-9960000D02*
X9540000Y-10040000D01*
X9540000Y-9960000D02*
X9460000Y-10040000D01*
X9540000Y-10000000D02*
G75*
G03*
X9540000Y-10000000I-40000J0D01*
G01*
X9460000Y-12160000D02*
X9540000Y-12240000D01*
X9540000Y-12160000D02*
X9460000Y-12240000D01*
X9540000Y-12200000D02*
G75*
G03*
X9540000Y-12200000I-40000J0D01*
G01*
X9660000Y-9960000D02*
X9740000Y-10040000D01*
X9740000Y-9960000D02*
X9660000Y-10040000D01*
X9740000Y-10000000D02*
G75*
G03*
X9740000Y-10000000I-40000J0D01*
G01*
X9660000Y-12160000D02*
X9740000Y-12240000D01*
X9740000Y-12160000D02*
X9660000Y-12240000D01*
X9740000Y-12200000D02*
G75*
G03*
X9740000Y-12200000I-40000J0D01*
G01*
X9860000Y-9960000D02*
X9940000Y-10040000D01*
X9940000Y-9960000D02*
X9860000Y-10040000D01*
X9940000Y-10000000D02*
G75*
G03*
X9940000Y-10000000I-40000J0D01*
G01*
X9860000Y-12160000D02*
X9940000Y-12240000D01*
X9940000Y-12160000D02*
X9860000Y-12240000D01*
X9940000Y-12200000D02*
G75*
G03*
X9940000Y-12200000I-40000J0D01*
G01*
X10060000Y-9960000D02*
X10140000Y-10040000D01*
X10140000Y-9960000D02*
X10060000Y-10040000D01*
X10140000Y-10000000D02*
G75*
G03*
X10140000Y-10000000I-40000J0D01*
G01*
X10060000Y-12160000D02*
X10140000Y-12240000D01*
X10140000Y-12160000D02*
X10060000Y-12240000D01*
X10140000Y-12200000D02*
G75*
G03*
X10140000Y-12200000I-40000J0D01*
G01*
X10260000Y-9960000D02*
X10340000Y-10040000D01*
X10340000Y-9960000D02*
X10260000Y-10040000D01*
X10340000Y-10000000D02*
G75*
G03*
X10340000Y-10000000I-40000J0D01*
G01*
X10260000Y-12160000D02*
X10340000Y-12240000D01*
X10340000Y-12160000D02*
X10260000Y-12240000D01*
X10340000Y-12200000D02*
G75*
G03*
X10340000Y-12200000I-40000J0D01*
G01*
X10460000Y-9960000D02*
X10540000Y-10040000D01*
X10540000Y-9960000D02*
X10460000Y-10040000D01*
X10540000Y-10000000D02*
G75*
G03*
X10540000Y-10000000I-40000J0D01*
G01*
X10460000Y-12160000D02*
X10540000Y-12240000D01*
X10540000Y-12160000D02*
X10460000Y-12240000D01*
X10540000Y-12200000D02*
G75*
G03*
X10540000Y-12200000I-40000J0D01*
G01*
X10660000Y-9960000D02*
X10740000Y-10040000D01*
X10740000Y-9960000D02*
X10660000Y-10040000D01*
X10740000Y-10000000D02*
G75*
G03*
X10740000Y-10000000I-40000J0D01*
G01*
X10660000Y-12160000D02*
X10740000Y-12240000D01*
X10740000Y-12160000D02*
X10660000Y-12240000D01*
X10740000Y-12200000D02*
G75*
G03*
X10740000Y-12200000I-40000J0D01*
G01*
X10860000Y-9960000D02*
X10940000Y-10040000D01*
X10940000Y-9960000D02*
X10860000Y-10040000D01*
X10940000Y-10000000D02*
G75*
G03*
X10940000Y-10000000I-40000J0D01*
G01*
X10860000Y-12160000D02*
X10940000Y-12240000D01*
X10940000Y-12160000D02*
X10860000Y-12240000D01*
X10940000Y-12200000D02*
G75*
G03*
X10940000Y-12200000I-40000J0D01*
G01*
D10*
X8130000Y-10415000D02*
X8230000Y-10515000D01*
X8230000Y-10415000D02*
X8130000Y-10515000D01*
X8180000Y-10415000D02*
X8180000Y-10515000D01*
X8130000Y-10465000D02*
X8230000Y-10465000D01*
X8130000Y-10669000D02*
X8230000Y-10769000D01*
X8230000Y-10669000D02*
X8130000Y-10769000D01*
X8180000Y-10669000D02*
X8180000Y-10769000D01*
X8130000Y-10719000D02*
X8230000Y-10719000D01*
X8130000Y-10923000D02*
X8230000Y-11023000D01*
X8230000Y-10923000D02*
X8130000Y-11023000D01*
X8180000Y-10923000D02*
X8180000Y-11023000D01*
X8130000Y-10973000D02*
X8230000Y-10973000D01*
X8130000Y-11177000D02*
X8230000Y-11277000D01*
X8230000Y-11177000D02*
X8130000Y-11277000D01*
X8180000Y-11177000D02*
X8180000Y-11277000D01*
X8130000Y-11227000D02*
X8230000Y-11227000D01*
X8130000Y-11431000D02*
X8230000Y-11531000D01*
X8230000Y-11431000D02*
X8130000Y-11531000D01*
X8180000Y-11431000D02*
X8180000Y-11531000D01*
X8130000Y-11481000D02*
X8230000Y-11481000D01*
X8130000Y-11685000D02*
X8230000Y-11785000D01*
X8230000Y-11685000D02*
X8130000Y-11785000D01*
X8180000Y-11685000D02*
X8180000Y-11785000D01*
X8130000Y-11735000D02*
X8230000Y-11735000D01*
D11*
X8252619Y-12915476D02*
X8252619Y-12715476D01*
X8300238Y-12715476D01*
X8328809Y-12725000D01*
X8347857Y-12744048D01*
X8357381Y-12763095D01*
X8366905Y-12801190D01*
X8366905Y-12829762D01*
X8357381Y-12867857D01*
X8347857Y-12886905D01*
X8328809Y-12905952D01*
X8300238Y-12915476D01*
X8252619Y-12915476D01*
X8452619Y-12915476D02*
X8452619Y-12782143D01*
X8452619Y-12820238D02*
X8462143Y-12801190D01*
X8471667Y-12791667D01*
X8490714Y-12782143D01*
X8509762Y-12782143D01*
X8576429Y-12915476D02*
X8576429Y-12782143D01*
X8576429Y-12715476D02*
X8566905Y-12725000D01*
X8576429Y-12734524D01*
X8585952Y-12725000D01*
X8576429Y-12715476D01*
X8576429Y-12734524D01*
X8700238Y-12915476D02*
X8681190Y-12905952D01*
X8671667Y-12886905D01*
X8671667Y-12715476D01*
X8805000Y-12915476D02*
X8785952Y-12905952D01*
X8776429Y-12886905D01*
X8776429Y-12715476D01*
X9033571Y-12915476D02*
X9033571Y-12715476D01*
X9100238Y-12858333D01*
X9166905Y-12715476D01*
X9166905Y-12915476D01*
X9347857Y-12915476D02*
X9347857Y-12810714D01*
X9338333Y-12791667D01*
X9319286Y-12782143D01*
X9281190Y-12782143D01*
X9262143Y-12791667D01*
X9347857Y-12905952D02*
X9328810Y-12915476D01*
X9281190Y-12915476D01*
X9262143Y-12905952D01*
X9252619Y-12886905D01*
X9252619Y-12867857D01*
X9262143Y-12848809D01*
X9281190Y-12839286D01*
X9328810Y-12839286D01*
X9347857Y-12829762D01*
X9443095Y-12782143D02*
X9443095Y-12982143D01*
X9443095Y-12791667D02*
X9462143Y-12782143D01*
X9500238Y-12782143D01*
X9519286Y-12791667D01*
X9528810Y-12801190D01*
X9538333Y-12820238D01*
X9538333Y-12877381D01*
X9528810Y-12896428D01*
X9519286Y-12905952D01*
X9500238Y-12915476D01*
X9462143Y-12915476D01*
X9443095Y-12905952D01*
X9624048Y-12896428D02*
X9633571Y-12905952D01*
X9624048Y-12915476D01*
X9614524Y-12905952D01*
X9624048Y-12896428D01*
X9624048Y-12915476D01*
X9624048Y-12791667D02*
X9633571Y-12801190D01*
X9624048Y-12810714D01*
X9614524Y-12801190D01*
X9624048Y-12791667D01*
X9624048Y-12810714D01*
D12*
X7975000Y-13235000D02*
X7995000Y-13255000D01*
X7995000Y-13235000D02*
X7975000Y-13255000D01*
D11*
X8290714Y-13135476D02*
X8309762Y-13135476D01*
X8328809Y-13145000D01*
X8338333Y-13154524D01*
X8347857Y-13173571D01*
X8357381Y-13211667D01*
X8357381Y-13259286D01*
X8347857Y-13297381D01*
X8338333Y-13316428D01*
X8328809Y-13325952D01*
X8309762Y-13335476D01*
X8290714Y-13335476D01*
X8271667Y-13325952D01*
X8262143Y-13316428D01*
X8252619Y-13297381D01*
X8243095Y-13259286D01*
X8243095Y-13211667D01*
X8252619Y-13173571D01*
X8262143Y-13154524D01*
X8271667Y-13145000D01*
X8290714Y-13135476D01*
X8443095Y-13316428D02*
X8452619Y-13325952D01*
X8443095Y-13335476D01*
X8433571Y-13325952D01*
X8443095Y-13316428D01*
X8443095Y-13335476D01*
X8528810Y-13154524D02*
X8538333Y-13145000D01*
X8557381Y-13135476D01*
X8605000Y-13135476D01*
X8624048Y-13145000D01*
X8633571Y-13154524D01*
X8643095Y-13173571D01*
X8643095Y-13192619D01*
X8633571Y-13221190D01*
X8519286Y-13335476D01*
X8643095Y-13335476D01*
X8766905Y-13135476D02*
X8785952Y-13135476D01*
X8805000Y-13145000D01*
X8814524Y-13154524D01*
X8824048Y-13173571D01*
X8833571Y-13211667D01*
X8833571Y-13259286D01*
X8824048Y-13297381D01*
X8814524Y-13316428D01*
X8805000Y-13325952D01*
X8785952Y-13335476D01*
X8766905Y-13335476D01*
X8747857Y-13325952D01*
X8738333Y-13316428D01*
X8728810Y-13297381D01*
X8719286Y-13259286D01*
X8719286Y-13211667D01*
X8728810Y-13173571D01*
X8738333Y-13154524D01*
X8747857Y-13145000D01*
X8766905Y-13135476D01*
X8957381Y-13135476D02*
X8976429Y-13135476D01*
X8995476Y-13145000D01*
X9005000Y-13154524D01*
X9014524Y-13173571D01*
X9024048Y-13211667D01*
X9024048Y-13259286D01*
X9014524Y-13297381D01*
X9005000Y-13316428D01*
X8995476Y-13325952D01*
X8976429Y-13335476D01*
X8957381Y-13335476D01*
X8938333Y-13325952D01*
X8928810Y-13316428D01*
X8919286Y-13297381D01*
X8909762Y-13259286D01*
X8909762Y-13211667D01*
X8919286Y-13173571D01*
X8928810Y-13154524D01*
X8938333Y-13145000D01*
X8957381Y-13135476D01*
X9109762Y-13335476D02*
X9109762Y-13202143D01*
X9109762Y-13221190D02*
X9119286Y-13211667D01*
X9138333Y-13202143D01*
X9166905Y-13202143D01*
X9185952Y-13211667D01*
X9195476Y-13230714D01*
X9195476Y-13335476D01*
X9195476Y-13230714D02*
X9205000Y-13211667D01*
X9224048Y-13202143D01*
X9252619Y-13202143D01*
X9271667Y-13211667D01*
X9281190Y-13230714D01*
X9281190Y-13335476D01*
X9376429Y-13335476D02*
X9376429Y-13202143D01*
X9376429Y-13221190D02*
X9385952Y-13211667D01*
X9405000Y-13202143D01*
X9433571Y-13202143D01*
X9452619Y-13211667D01*
X9462143Y-13230714D01*
X9462143Y-13335476D01*
X9462143Y-13230714D02*
X9471667Y-13211667D01*
X9490714Y-13202143D01*
X9519286Y-13202143D01*
X9538333Y-13211667D01*
X9547857Y-13230714D01*
X9547857Y-13335476D01*
X9938333Y-13125952D02*
X9766905Y-13383095D01*
X10195476Y-13135476D02*
X10214524Y-13135476D01*
X10233571Y-13145000D01*
X10243095Y-13154524D01*
X10252619Y-13173571D01*
X10262143Y-13211667D01*
X10262143Y-13259286D01*
X10252619Y-13297381D01*
X10243095Y-13316428D01*
X10233571Y-13325952D01*
X10214524Y-13335476D01*
X10195476Y-13335476D01*
X10176429Y-13325952D01*
X10166905Y-13316428D01*
X10157381Y-13297381D01*
X10147857Y-13259286D01*
X10147857Y-13211667D01*
X10157381Y-13173571D01*
X10166905Y-13154524D01*
X10176429Y-13145000D01*
X10195476Y-13135476D01*
X10347857Y-13316428D02*
X10357381Y-13325952D01*
X10347857Y-13335476D01*
X10338333Y-13325952D01*
X10347857Y-13316428D01*
X10347857Y-13335476D01*
X10481190Y-13135476D02*
X10500238Y-13135476D01*
X10519286Y-13145000D01*
X10528810Y-13154524D01*
X10538333Y-13173571D01*
X10547857Y-13211667D01*
X10547857Y-13259286D01*
X10538333Y-13297381D01*
X10528810Y-13316428D01*
X10519286Y-13325952D01*
X10500238Y-13335476D01*
X10481190Y-13335476D01*
X10462143Y-13325952D01*
X10452619Y-13316428D01*
X10443095Y-13297381D01*
X10433571Y-13259286D01*
X10433571Y-13211667D01*
X10443095Y-13173571D01*
X10452619Y-13154524D01*
X10462143Y-13145000D01*
X10481190Y-13135476D01*
X10671667Y-13135476D02*
X10690714Y-13135476D01*
X10709762Y-13145000D01*
X10719286Y-13154524D01*
X10728810Y-13173571D01*
X10738333Y-13211667D01*
X10738333Y-13259286D01*
X10728810Y-13297381D01*
X10719286Y-13316428D01*
X10709762Y-13325952D01*
X10690714Y-13335476D01*
X10671667Y-13335476D01*
X10652619Y-13325952D01*
X10643095Y-13316428D01*
X10633571Y-13297381D01*
X10624048Y-13259286D01*
X10624048Y-13211667D01*
X10633571Y-13173571D01*
X10643095Y-13154524D01*
X10652619Y-13145000D01*
X10671667Y-13135476D01*
X10805000Y-13135476D02*
X10938333Y-13135476D01*
X10852619Y-13335476D01*
X11024048Y-13335476D02*
X11062143Y-13335476D01*
X11081190Y-13325952D01*
X11090714Y-13316428D01*
X11109762Y-13287857D01*
X11119286Y-13249762D01*
X11119286Y-13173571D01*
X11109762Y-13154524D01*
X11100238Y-13145000D01*
X11081190Y-13135476D01*
X11043095Y-13135476D01*
X11024048Y-13145000D01*
X11014524Y-13154524D01*
X11005000Y-13173571D01*
X11005000Y-13221190D01*
X11014524Y-13240238D01*
X11024048Y-13249762D01*
X11043095Y-13259286D01*
X11081190Y-13259286D01*
X11100238Y-13249762D01*
X11109762Y-13240238D01*
X11119286Y-13221190D01*
X11195476Y-13135476D02*
X11195476Y-13173571D01*
X11271667Y-13135476D02*
X11271667Y-13173571D01*
X11566905Y-13411667D02*
X11557381Y-13402143D01*
X11538333Y-13373571D01*
X11528809Y-13354524D01*
X11519286Y-13325952D01*
X11509762Y-13278333D01*
X11509762Y-13240238D01*
X11519286Y-13192619D01*
X11528809Y-13164048D01*
X11538333Y-13145000D01*
X11557381Y-13116428D01*
X11566905Y-13106905D01*
X11633571Y-13154524D02*
X11643095Y-13145000D01*
X11662143Y-13135476D01*
X11709762Y-13135476D01*
X11728809Y-13145000D01*
X11738333Y-13154524D01*
X11747857Y-13173571D01*
X11747857Y-13192619D01*
X11738333Y-13221190D01*
X11624048Y-13335476D01*
X11747857Y-13335476D01*
X11985952Y-13335476D02*
X11985952Y-13135476D01*
X12071667Y-13335476D02*
X12071667Y-13230714D01*
X12062143Y-13211667D01*
X12043095Y-13202143D01*
X12014524Y-13202143D01*
X11995476Y-13211667D01*
X11985952Y-13221190D01*
X12195476Y-13335476D02*
X12176428Y-13325952D01*
X12166905Y-13316428D01*
X12157381Y-13297381D01*
X12157381Y-13240238D01*
X12166905Y-13221190D01*
X12176428Y-13211667D01*
X12195476Y-13202143D01*
X12224048Y-13202143D01*
X12243095Y-13211667D01*
X12252619Y-13221190D01*
X12262143Y-13240238D01*
X12262143Y-13297381D01*
X12252619Y-13316428D01*
X12243095Y-13325952D01*
X12224048Y-13335476D01*
X12195476Y-13335476D01*
X12376428Y-13335476D02*
X12357381Y-13325952D01*
X12347857Y-13306905D01*
X12347857Y-13135476D01*
X12528809Y-13325952D02*
X12509762Y-13335476D01*
X12471667Y-13335476D01*
X12452619Y-13325952D01*
X12443095Y-13306905D01*
X12443095Y-13230714D01*
X12452619Y-13211667D01*
X12471667Y-13202143D01*
X12509762Y-13202143D01*
X12528809Y-13211667D01*
X12538333Y-13230714D01*
X12538333Y-13249762D01*
X12443095Y-13268809D01*
X12614524Y-13325952D02*
X12633571Y-13335476D01*
X12671667Y-13335476D01*
X12690714Y-13325952D01*
X12700238Y-13306905D01*
X12700238Y-13297381D01*
X12690714Y-13278333D01*
X12671667Y-13268809D01*
X12643095Y-13268809D01*
X12624048Y-13259286D01*
X12614524Y-13240238D01*
X12614524Y-13230714D01*
X12624048Y-13211667D01*
X12643095Y-13202143D01*
X12671667Y-13202143D01*
X12690714Y-13211667D01*
X12766905Y-13411667D02*
X12776428Y-13402143D01*
X12795476Y-13373571D01*
X12805000Y-13354524D01*
X12814524Y-13325952D01*
X12824048Y-13278333D01*
X12824048Y-13240238D01*
X12814524Y-13192619D01*
X12805000Y-13164048D01*
X12795476Y-13145000D01*
X12776428Y-13116428D01*
X12766905Y-13106905D01*
D13*
X7995000Y-13509000D02*
G75*
G03*
X7995000Y-13509000I-15000J0D01*
G01*
D11*
X8290714Y-13399476D02*
X8309762Y-13399476D01*
X8328809Y-13409000D01*
X8338333Y-13418524D01*
X8347857Y-13437571D01*
X8357381Y-13475667D01*
X8357381Y-13523286D01*
X8347857Y-13561381D01*
X8338333Y-13580428D01*
X8328809Y-13589952D01*
X8309762Y-13599476D01*
X8290714Y-13599476D01*
X8271667Y-13589952D01*
X8262143Y-13580428D01*
X8252619Y-13561381D01*
X8243095Y-13523286D01*
X8243095Y-13475667D01*
X8252619Y-13437571D01*
X8262143Y-13418524D01*
X8271667Y-13409000D01*
X8290714Y-13399476D01*
X8443095Y-13580428D02*
X8452619Y-13589952D01*
X8443095Y-13599476D01*
X8433571Y-13589952D01*
X8443095Y-13580428D01*
X8443095Y-13599476D01*
X8519286Y-13399476D02*
X8643095Y-13399476D01*
X8576429Y-13475667D01*
X8605000Y-13475667D01*
X8624048Y-13485190D01*
X8633571Y-13494714D01*
X8643095Y-13513762D01*
X8643095Y-13561381D01*
X8633571Y-13580428D01*
X8624048Y-13589952D01*
X8605000Y-13599476D01*
X8547857Y-13599476D01*
X8528810Y-13589952D01*
X8519286Y-13580428D01*
X8766905Y-13399476D02*
X8785952Y-13399476D01*
X8805000Y-13409000D01*
X8814524Y-13418524D01*
X8824048Y-13437571D01*
X8833571Y-13475667D01*
X8833571Y-13523286D01*
X8824048Y-13561381D01*
X8814524Y-13580428D01*
X8805000Y-13589952D01*
X8785952Y-13599476D01*
X8766905Y-13599476D01*
X8747857Y-13589952D01*
X8738333Y-13580428D01*
X8728810Y-13561381D01*
X8719286Y-13523286D01*
X8719286Y-13475667D01*
X8728810Y-13437571D01*
X8738333Y-13418524D01*
X8747857Y-13409000D01*
X8766905Y-13399476D01*
X8957381Y-13399476D02*
X8976429Y-13399476D01*
X8995476Y-13409000D01*
X9005000Y-13418524D01*
X9014524Y-13437571D01*
X9024048Y-13475667D01*
X9024048Y-13523286D01*
X9014524Y-13561381D01*
X9005000Y-13580428D01*
X8995476Y-13589952D01*
X8976429Y-13599476D01*
X8957381Y-13599476D01*
X8938333Y-13589952D01*
X8928810Y-13580428D01*
X8919286Y-13561381D01*
X8909762Y-13523286D01*
X8909762Y-13475667D01*
X8919286Y-13437571D01*
X8928810Y-13418524D01*
X8938333Y-13409000D01*
X8957381Y-13399476D01*
X9109762Y-13599476D02*
X9109762Y-13466143D01*
X9109762Y-13485190D02*
X9119286Y-13475667D01*
X9138333Y-13466143D01*
X9166905Y-13466143D01*
X9185952Y-13475667D01*
X9195476Y-13494714D01*
X9195476Y-13599476D01*
X9195476Y-13494714D02*
X9205000Y-13475667D01*
X9224048Y-13466143D01*
X9252619Y-13466143D01*
X9271667Y-13475667D01*
X9281190Y-13494714D01*
X9281190Y-13599476D01*
X9376429Y-13599476D02*
X9376429Y-13466143D01*
X9376429Y-13485190D02*
X9385952Y-13475667D01*
X9405000Y-13466143D01*
X9433571Y-13466143D01*
X9452619Y-13475667D01*
X9462143Y-13494714D01*
X9462143Y-13599476D01*
X9462143Y-13494714D02*
X9471667Y-13475667D01*
X9490714Y-13466143D01*
X9519286Y-13466143D01*
X9538333Y-13475667D01*
X9547857Y-13494714D01*
X9547857Y-13599476D01*
X9938333Y-13389952D02*
X9766905Y-13647095D01*
X10195476Y-13399476D02*
X10214524Y-13399476D01*
X10233571Y-13409000D01*
X10243095Y-13418524D01*
X10252619Y-13437571D01*
X10262143Y-13475667D01*
X10262143Y-13523286D01*
X10252619Y-13561381D01*
X10243095Y-13580428D01*
X10233571Y-13589952D01*
X10214524Y-13599476D01*
X10195476Y-13599476D01*
X10176429Y-13589952D01*
X10166905Y-13580428D01*
X10157381Y-13561381D01*
X10147857Y-13523286D01*
X10147857Y-13475667D01*
X10157381Y-13437571D01*
X10166905Y-13418524D01*
X10176429Y-13409000D01*
X10195476Y-13399476D01*
X10347857Y-13580428D02*
X10357381Y-13589952D01*
X10347857Y-13599476D01*
X10338333Y-13589952D01*
X10347857Y-13580428D01*
X10347857Y-13599476D01*
X10481190Y-13399476D02*
X10500238Y-13399476D01*
X10519286Y-13409000D01*
X10528810Y-13418524D01*
X10538333Y-13437571D01*
X10547857Y-13475667D01*
X10547857Y-13523286D01*
X10538333Y-13561381D01*
X10528810Y-13580428D01*
X10519286Y-13589952D01*
X10500238Y-13599476D01*
X10481190Y-13599476D01*
X10462143Y-13589952D01*
X10452619Y-13580428D01*
X10443095Y-13561381D01*
X10433571Y-13523286D01*
X10433571Y-13475667D01*
X10443095Y-13437571D01*
X10452619Y-13418524D01*
X10462143Y-13409000D01*
X10481190Y-13399476D01*
X10738333Y-13599476D02*
X10624048Y-13599476D01*
X10681190Y-13599476D02*
X10681190Y-13399476D01*
X10662143Y-13428048D01*
X10643095Y-13447095D01*
X10624048Y-13456619D01*
X10928810Y-13599476D02*
X10814524Y-13599476D01*
X10871667Y-13599476D02*
X10871667Y-13399476D01*
X10852619Y-13428048D01*
X10833571Y-13447095D01*
X10814524Y-13456619D01*
X11043095Y-13485190D02*
X11024048Y-13475667D01*
X11014524Y-13466143D01*
X11005000Y-13447095D01*
X11005000Y-13437571D01*
X11014524Y-13418524D01*
X11024048Y-13409000D01*
X11043095Y-13399476D01*
X11081190Y-13399476D01*
X11100238Y-13409000D01*
X11109762Y-13418524D01*
X11119286Y-13437571D01*
X11119286Y-13447095D01*
X11109762Y-13466143D01*
X11100238Y-13475667D01*
X11081190Y-13485190D01*
X11043095Y-13485190D01*
X11024048Y-13494714D01*
X11014524Y-13504238D01*
X11005000Y-13523286D01*
X11005000Y-13561381D01*
X11014524Y-13580428D01*
X11024048Y-13589952D01*
X11043095Y-13599476D01*
X11081190Y-13599476D01*
X11100238Y-13589952D01*
X11109762Y-13580428D01*
X11119286Y-13561381D01*
X11119286Y-13523286D01*
X11109762Y-13504238D01*
X11100238Y-13494714D01*
X11081190Y-13485190D01*
X11195476Y-13399476D02*
X11195476Y-13437571D01*
X11271667Y-13399476D02*
X11271667Y-13437571D01*
X11566905Y-13675667D02*
X11557381Y-13666143D01*
X11538333Y-13637571D01*
X11528809Y-13618524D01*
X11519286Y-13589952D01*
X11509762Y-13542333D01*
X11509762Y-13504238D01*
X11519286Y-13456619D01*
X11528809Y-13428048D01*
X11538333Y-13409000D01*
X11557381Y-13380428D01*
X11566905Y-13370905D01*
X11747857Y-13599476D02*
X11633571Y-13599476D01*
X11690714Y-13599476D02*
X11690714Y-13399476D01*
X11671667Y-13428048D01*
X11652619Y-13447095D01*
X11633571Y-13456619D01*
X11814524Y-13399476D02*
X11947857Y-13399476D01*
X11862143Y-13599476D01*
X12128809Y-13599476D02*
X12014524Y-13599476D01*
X12071667Y-13599476D02*
X12071667Y-13399476D01*
X12052619Y-13428048D01*
X12033571Y-13447095D01*
X12014524Y-13456619D01*
X12366905Y-13599476D02*
X12366905Y-13399476D01*
X12452619Y-13599476D02*
X12452619Y-13494714D01*
X12443095Y-13475667D01*
X12424048Y-13466143D01*
X12395476Y-13466143D01*
X12376428Y-13475667D01*
X12366905Y-13485190D01*
X12576428Y-13599476D02*
X12557381Y-13589952D01*
X12547857Y-13580428D01*
X12538333Y-13561381D01*
X12538333Y-13504238D01*
X12547857Y-13485190D01*
X12557381Y-13475667D01*
X12576428Y-13466143D01*
X12605000Y-13466143D01*
X12624048Y-13475667D01*
X12633571Y-13485190D01*
X12643095Y-13504238D01*
X12643095Y-13561381D01*
X12633571Y-13580428D01*
X12624048Y-13589952D01*
X12605000Y-13599476D01*
X12576428Y-13599476D01*
X12757381Y-13599476D02*
X12738333Y-13589952D01*
X12728809Y-13570905D01*
X12728809Y-13399476D01*
X12909762Y-13589952D02*
X12890714Y-13599476D01*
X12852619Y-13599476D01*
X12833571Y-13589952D01*
X12824048Y-13570905D01*
X12824048Y-13494714D01*
X12833571Y-13475667D01*
X12852619Y-13466143D01*
X12890714Y-13466143D01*
X12909762Y-13475667D01*
X12919286Y-13494714D01*
X12919286Y-13513762D01*
X12824048Y-13532809D01*
X12995476Y-13589952D02*
X13014524Y-13599476D01*
X13052619Y-13599476D01*
X13071667Y-13589952D01*
X13081190Y-13570905D01*
X13081190Y-13561381D01*
X13071667Y-13542333D01*
X13052619Y-13532809D01*
X13024048Y-13532809D01*
X13005000Y-13523286D01*
X12995476Y-13504238D01*
X12995476Y-13494714D01*
X13005000Y-13475667D01*
X13024048Y-13466143D01*
X13052619Y-13466143D01*
X13071667Y-13475667D01*
X13147857Y-13675667D02*
X13157381Y-13666143D01*
X13176428Y-13637571D01*
X13185952Y-13618524D01*
X13195476Y-13589952D01*
X13205000Y-13542333D01*
X13205000Y-13504238D01*
X13195476Y-13456619D01*
X13185952Y-13428048D01*
X13176428Y-13409000D01*
X13157381Y-13380428D01*
X13147857Y-13370905D01*
D13*
X7980000Y-13758000D02*
X7980000Y-13788000D01*
X7965000Y-13773000D02*
X7995000Y-13773000D01*
D11*
X8290714Y-13663476D02*
X8309762Y-13663476D01*
X8328809Y-13673000D01*
X8338333Y-13682524D01*
X8347857Y-13701571D01*
X8357381Y-13739667D01*
X8357381Y-13787286D01*
X8347857Y-13825381D01*
X8338333Y-13844428D01*
X8328809Y-13853952D01*
X8309762Y-13863476D01*
X8290714Y-13863476D01*
X8271667Y-13853952D01*
X8262143Y-13844428D01*
X8252619Y-13825381D01*
X8243095Y-13787286D01*
X8243095Y-13739667D01*
X8252619Y-13701571D01*
X8262143Y-13682524D01*
X8271667Y-13673000D01*
X8290714Y-13663476D01*
X8443095Y-13844428D02*
X8452619Y-13853952D01*
X8443095Y-13863476D01*
X8433571Y-13853952D01*
X8443095Y-13844428D01*
X8443095Y-13863476D01*
X8519286Y-13663476D02*
X8643095Y-13663476D01*
X8576429Y-13739667D01*
X8605000Y-13739667D01*
X8624048Y-13749190D01*
X8633571Y-13758714D01*
X8643095Y-13777762D01*
X8643095Y-13825381D01*
X8633571Y-13844428D01*
X8624048Y-13853952D01*
X8605000Y-13863476D01*
X8547857Y-13863476D01*
X8528810Y-13853952D01*
X8519286Y-13844428D01*
X8766905Y-13663476D02*
X8785952Y-13663476D01*
X8805000Y-13673000D01*
X8814524Y-13682524D01*
X8824048Y-13701571D01*
X8833571Y-13739667D01*
X8833571Y-13787286D01*
X8824048Y-13825381D01*
X8814524Y-13844428D01*
X8805000Y-13853952D01*
X8785952Y-13863476D01*
X8766905Y-13863476D01*
X8747857Y-13853952D01*
X8738333Y-13844428D01*
X8728810Y-13825381D01*
X8719286Y-13787286D01*
X8719286Y-13739667D01*
X8728810Y-13701571D01*
X8738333Y-13682524D01*
X8747857Y-13673000D01*
X8766905Y-13663476D01*
X8957381Y-13663476D02*
X8976429Y-13663476D01*
X8995476Y-13673000D01*
X9005000Y-13682524D01*
X9014524Y-13701571D01*
X9024048Y-13739667D01*
X9024048Y-13787286D01*
X9014524Y-13825381D01*
X9005000Y-13844428D01*
X8995476Y-13853952D01*
X8976429Y-13863476D01*
X8957381Y-13863476D01*
X8938333Y-13853952D01*
X8928810Y-13844428D01*
X8919286Y-13825381D01*
X8909762Y-13787286D01*
X8909762Y-13739667D01*
X8919286Y-13701571D01*
X8928810Y-13682524D01*
X8938333Y-13673000D01*
X8957381Y-13663476D01*
X9109762Y-13863476D02*
X9109762Y-13730143D01*
X9109762Y-13749190D02*
X9119286Y-13739667D01*
X9138333Y-13730143D01*
X9166905Y-13730143D01*
X9185952Y-13739667D01*
X9195476Y-13758714D01*
X9195476Y-13863476D01*
X9195476Y-13758714D02*
X9205000Y-13739667D01*
X9224048Y-13730143D01*
X9252619Y-13730143D01*
X9271667Y-13739667D01*
X9281190Y-13758714D01*
X9281190Y-13863476D01*
X9376429Y-13863476D02*
X9376429Y-13730143D01*
X9376429Y-13749190D02*
X9385952Y-13739667D01*
X9405000Y-13730143D01*
X9433571Y-13730143D01*
X9452619Y-13739667D01*
X9462143Y-13758714D01*
X9462143Y-13863476D01*
X9462143Y-13758714D02*
X9471667Y-13739667D01*
X9490714Y-13730143D01*
X9519286Y-13730143D01*
X9538333Y-13739667D01*
X9547857Y-13758714D01*
X9547857Y-13863476D01*
X9938333Y-13653952D02*
X9766905Y-13911095D01*
X10195476Y-13663476D02*
X10214524Y-13663476D01*
X10233571Y-13673000D01*
X10243095Y-13682524D01*
X10252619Y-13701571D01*
X10262143Y-13739667D01*
X10262143Y-13787286D01*
X10252619Y-13825381D01*
X10243095Y-13844428D01*
X10233571Y-13853952D01*
X10214524Y-13863476D01*
X10195476Y-13863476D01*
X10176429Y-13853952D01*
X10166905Y-13844428D01*
X10157381Y-13825381D01*
X10147857Y-13787286D01*
X10147857Y-13739667D01*
X10157381Y-13701571D01*
X10166905Y-13682524D01*
X10176429Y-13673000D01*
X10195476Y-13663476D01*
X10347857Y-13844428D02*
X10357381Y-13853952D01*
X10347857Y-13863476D01*
X10338333Y-13853952D01*
X10347857Y-13844428D01*
X10347857Y-13863476D01*
X10481190Y-13663476D02*
X10500238Y-13663476D01*
X10519286Y-13673000D01*
X10528810Y-13682524D01*
X10538333Y-13701571D01*
X10547857Y-13739667D01*
X10547857Y-13787286D01*
X10538333Y-13825381D01*
X10528810Y-13844428D01*
X10519286Y-13853952D01*
X10500238Y-13863476D01*
X10481190Y-13863476D01*
X10462143Y-13853952D01*
X10452619Y-13844428D01*
X10443095Y-13825381D01*
X10433571Y-13787286D01*
X10433571Y-13739667D01*
X10443095Y-13701571D01*
X10452619Y-13682524D01*
X10462143Y-13673000D01*
X10481190Y-13663476D01*
X10738333Y-13863476D02*
X10624048Y-13863476D01*
X10681190Y-13863476D02*
X10681190Y-13663476D01*
X10662143Y-13692048D01*
X10643095Y-13711095D01*
X10624048Y-13720619D01*
X10928810Y-13863476D02*
X10814524Y-13863476D01*
X10871667Y-13863476D02*
X10871667Y-13663476D01*
X10852619Y-13692048D01*
X10833571Y-13711095D01*
X10814524Y-13720619D01*
X11043095Y-13749190D02*
X11024048Y-13739667D01*
X11014524Y-13730143D01*
X11005000Y-13711095D01*
X11005000Y-13701571D01*
X11014524Y-13682524D01*
X11024048Y-13673000D01*
X11043095Y-13663476D01*
X11081190Y-13663476D01*
X11100238Y-13673000D01*
X11109762Y-13682524D01*
X11119286Y-13701571D01*
X11119286Y-13711095D01*
X11109762Y-13730143D01*
X11100238Y-13739667D01*
X11081190Y-13749190D01*
X11043095Y-13749190D01*
X11024048Y-13758714D01*
X11014524Y-13768238D01*
X11005000Y-13787286D01*
X11005000Y-13825381D01*
X11014524Y-13844428D01*
X11024048Y-13853952D01*
X11043095Y-13863476D01*
X11081190Y-13863476D01*
X11100238Y-13853952D01*
X11109762Y-13844428D01*
X11119286Y-13825381D01*
X11119286Y-13787286D01*
X11109762Y-13768238D01*
X11100238Y-13758714D01*
X11081190Y-13749190D01*
X11195476Y-13663476D02*
X11195476Y-13701571D01*
X11271667Y-13663476D02*
X11271667Y-13701571D01*
X11566905Y-13939667D02*
X11557381Y-13930143D01*
X11538333Y-13901571D01*
X11528809Y-13882524D01*
X11519286Y-13853952D01*
X11509762Y-13806333D01*
X11509762Y-13768238D01*
X11519286Y-13720619D01*
X11528809Y-13692048D01*
X11538333Y-13673000D01*
X11557381Y-13644428D01*
X11566905Y-13634905D01*
X11738333Y-13663476D02*
X11643095Y-13663476D01*
X11633571Y-13758714D01*
X11643095Y-13749190D01*
X11662143Y-13739667D01*
X11709762Y-13739667D01*
X11728809Y-13749190D01*
X11738333Y-13758714D01*
X11747857Y-13777762D01*
X11747857Y-13825381D01*
X11738333Y-13844428D01*
X11728809Y-13853952D01*
X11709762Y-13863476D01*
X11662143Y-13863476D01*
X11643095Y-13853952D01*
X11633571Y-13844428D01*
X11985952Y-13863476D02*
X11985952Y-13663476D01*
X12071667Y-13863476D02*
X12071667Y-13758714D01*
X12062143Y-13739667D01*
X12043095Y-13730143D01*
X12014524Y-13730143D01*
X11995476Y-13739667D01*
X11985952Y-13749190D01*
X12195476Y-13863476D02*
X12176428Y-13853952D01*
X12166905Y-13844428D01*
X12157381Y-13825381D01*
X12157381Y-13768238D01*
X12166905Y-13749190D01*
X12176428Y-13739667D01*
X12195476Y-13730143D01*
X12224048Y-13730143D01*
X12243095Y-13739667D01*
X12252619Y-13749190D01*
X12262143Y-13768238D01*
X12262143Y-13825381D01*
X12252619Y-13844428D01*
X12243095Y-13853952D01*
X12224048Y-13863476D01*
X12195476Y-13863476D01*
X12376428Y-13863476D02*
X12357381Y-13853952D01*
X12347857Y-13834905D01*
X12347857Y-13663476D01*
X12528809Y-13853952D02*
X12509762Y-13863476D01*
X12471667Y-13863476D01*
X12452619Y-13853952D01*
X12443095Y-13834905D01*
X12443095Y-13758714D01*
X12452619Y-13739667D01*
X12471667Y-13730143D01*
X12509762Y-13730143D01*
X12528809Y-13739667D01*
X12538333Y-13758714D01*
X12538333Y-13777762D01*
X12443095Y-13796809D01*
X12614524Y-13853952D02*
X12633571Y-13863476D01*
X12671667Y-13863476D01*
X12690714Y-13853952D01*
X12700238Y-13834905D01*
X12700238Y-13825381D01*
X12690714Y-13806333D01*
X12671667Y-13796809D01*
X12643095Y-13796809D01*
X12624048Y-13787286D01*
X12614524Y-13768238D01*
X12614524Y-13758714D01*
X12624048Y-13739667D01*
X12643095Y-13730143D01*
X12671667Y-13730143D01*
X12690714Y-13739667D01*
X12766905Y-13939667D02*
X12776428Y-13930143D01*
X12795476Y-13901571D01*
X12805000Y-13882524D01*
X12814524Y-13853952D01*
X12824048Y-13806333D01*
X12824048Y-13768238D01*
X12814524Y-13720619D01*
X12805000Y-13692048D01*
X12795476Y-13673000D01*
X12776428Y-13644428D01*
X12766905Y-13634905D01*
D14*
X7989142Y-14051142D02*
X7989142Y-14022858D01*
X7960858Y-14022858D01*
X7960858Y-14051142D01*
X7989142Y-14051142D01*
D11*
X8290714Y-13927476D02*
X8309762Y-13927476D01*
X8328809Y-13937000D01*
X8338333Y-13946524D01*
X8347857Y-13965571D01*
X8357381Y-14003667D01*
X8357381Y-14051286D01*
X8347857Y-14089381D01*
X8338333Y-14108428D01*
X8328809Y-14117952D01*
X8309762Y-14127476D01*
X8290714Y-14127476D01*
X8271667Y-14117952D01*
X8262143Y-14108428D01*
X8252619Y-14089381D01*
X8243095Y-14051286D01*
X8243095Y-14003667D01*
X8252619Y-13965571D01*
X8262143Y-13946524D01*
X8271667Y-13937000D01*
X8290714Y-13927476D01*
X8443095Y-14108428D02*
X8452619Y-14117952D01*
X8443095Y-14127476D01*
X8433571Y-14117952D01*
X8443095Y-14108428D01*
X8443095Y-14127476D01*
X8624048Y-13994143D02*
X8624048Y-14127476D01*
X8576429Y-13917952D02*
X8528810Y-14060809D01*
X8652619Y-14060809D01*
X8766905Y-13927476D02*
X8785952Y-13927476D01*
X8805000Y-13937000D01*
X8814524Y-13946524D01*
X8824048Y-13965571D01*
X8833571Y-14003667D01*
X8833571Y-14051286D01*
X8824048Y-14089381D01*
X8814524Y-14108428D01*
X8805000Y-14117952D01*
X8785952Y-14127476D01*
X8766905Y-14127476D01*
X8747857Y-14117952D01*
X8738333Y-14108428D01*
X8728810Y-14089381D01*
X8719286Y-14051286D01*
X8719286Y-14003667D01*
X8728810Y-13965571D01*
X8738333Y-13946524D01*
X8747857Y-13937000D01*
X8766905Y-13927476D01*
X8957381Y-13927476D02*
X8976429Y-13927476D01*
X8995476Y-13937000D01*
X9005000Y-13946524D01*
X9014524Y-13965571D01*
X9024048Y-14003667D01*
X9024048Y-14051286D01*
X9014524Y-14089381D01*
X9005000Y-14108428D01*
X8995476Y-14117952D01*
X8976429Y-14127476D01*
X8957381Y-14127476D01*
X8938333Y-14117952D01*
X8928810Y-14108428D01*
X8919286Y-14089381D01*
X8909762Y-14051286D01*
X8909762Y-14003667D01*
X8919286Y-13965571D01*
X8928810Y-13946524D01*
X8938333Y-13937000D01*
X8957381Y-13927476D01*
X9109762Y-14127476D02*
X9109762Y-13994143D01*
X9109762Y-14013190D02*
X9119286Y-14003667D01*
X9138333Y-13994143D01*
X9166905Y-13994143D01*
X9185952Y-14003667D01*
X9195476Y-14022714D01*
X9195476Y-14127476D01*
X9195476Y-14022714D02*
X9205000Y-14003667D01*
X9224048Y-13994143D01*
X9252619Y-13994143D01*
X9271667Y-14003667D01*
X9281190Y-14022714D01*
X9281190Y-14127476D01*
X9376429Y-14127476D02*
X9376429Y-13994143D01*
X9376429Y-14013190D02*
X9385952Y-14003667D01*
X9405000Y-13994143D01*
X9433571Y-13994143D01*
X9452619Y-14003667D01*
X9462143Y-14022714D01*
X9462143Y-14127476D01*
X9462143Y-14022714D02*
X9471667Y-14003667D01*
X9490714Y-13994143D01*
X9519286Y-13994143D01*
X9538333Y-14003667D01*
X9547857Y-14022714D01*
X9547857Y-14127476D01*
X9938333Y-13917952D02*
X9766905Y-14175095D01*
X10195476Y-13927476D02*
X10214524Y-13927476D01*
X10233571Y-13937000D01*
X10243095Y-13946524D01*
X10252619Y-13965571D01*
X10262143Y-14003667D01*
X10262143Y-14051286D01*
X10252619Y-14089381D01*
X10243095Y-14108428D01*
X10233571Y-14117952D01*
X10214524Y-14127476D01*
X10195476Y-14127476D01*
X10176429Y-14117952D01*
X10166905Y-14108428D01*
X10157381Y-14089381D01*
X10147857Y-14051286D01*
X10147857Y-14003667D01*
X10157381Y-13965571D01*
X10166905Y-13946524D01*
X10176429Y-13937000D01*
X10195476Y-13927476D01*
X10347857Y-14108428D02*
X10357381Y-14117952D01*
X10347857Y-14127476D01*
X10338333Y-14117952D01*
X10347857Y-14108428D01*
X10347857Y-14127476D01*
X10481190Y-13927476D02*
X10500238Y-13927476D01*
X10519286Y-13937000D01*
X10528810Y-13946524D01*
X10538333Y-13965571D01*
X10547857Y-14003667D01*
X10547857Y-14051286D01*
X10538333Y-14089381D01*
X10528810Y-14108428D01*
X10519286Y-14117952D01*
X10500238Y-14127476D01*
X10481190Y-14127476D01*
X10462143Y-14117952D01*
X10452619Y-14108428D01*
X10443095Y-14089381D01*
X10433571Y-14051286D01*
X10433571Y-14003667D01*
X10443095Y-13965571D01*
X10452619Y-13946524D01*
X10462143Y-13937000D01*
X10481190Y-13927476D01*
X10738333Y-14127476D02*
X10624048Y-14127476D01*
X10681190Y-14127476D02*
X10681190Y-13927476D01*
X10662143Y-13956048D01*
X10643095Y-13975095D01*
X10624048Y-13984619D01*
X10919286Y-13927476D02*
X10824048Y-13927476D01*
X10814524Y-14022714D01*
X10824048Y-14013190D01*
X10843095Y-14003667D01*
X10890714Y-14003667D01*
X10909762Y-14013190D01*
X10919286Y-14022714D01*
X10928810Y-14041762D01*
X10928810Y-14089381D01*
X10919286Y-14108428D01*
X10909762Y-14117952D01*
X10890714Y-14127476D01*
X10843095Y-14127476D01*
X10824048Y-14117952D01*
X10814524Y-14108428D01*
X10995476Y-13927476D02*
X11128810Y-13927476D01*
X11043095Y-14127476D01*
X11195476Y-13927476D02*
X11195476Y-13965571D01*
X11271667Y-13927476D02*
X11271667Y-13965571D01*
X11566905Y-14203667D02*
X11557381Y-14194143D01*
X11538333Y-14165571D01*
X11528809Y-14146524D01*
X11519286Y-14117952D01*
X11509762Y-14070333D01*
X11509762Y-14032238D01*
X11519286Y-13984619D01*
X11528809Y-13956048D01*
X11538333Y-13937000D01*
X11557381Y-13908428D01*
X11566905Y-13898905D01*
X11728809Y-13994143D02*
X11728809Y-14127476D01*
X11681190Y-13917952D02*
X11633571Y-14060809D01*
X11757381Y-14060809D01*
X11919286Y-13994143D02*
X11919286Y-14127476D01*
X11871667Y-13917952D02*
X11824048Y-14060809D01*
X11947857Y-14060809D01*
X12176428Y-14127476D02*
X12176428Y-13927476D01*
X12262143Y-14127476D02*
X12262143Y-14022714D01*
X12252619Y-14003667D01*
X12233571Y-13994143D01*
X12205000Y-13994143D01*
X12185952Y-14003667D01*
X12176428Y-14013190D01*
X12385952Y-14127476D02*
X12366905Y-14117952D01*
X12357381Y-14108428D01*
X12347857Y-14089381D01*
X12347857Y-14032238D01*
X12357381Y-14013190D01*
X12366905Y-14003667D01*
X12385952Y-13994143D01*
X12414524Y-13994143D01*
X12433571Y-14003667D01*
X12443095Y-14013190D01*
X12452619Y-14032238D01*
X12452619Y-14089381D01*
X12443095Y-14108428D01*
X12433571Y-14117952D01*
X12414524Y-14127476D01*
X12385952Y-14127476D01*
X12566905Y-14127476D02*
X12547857Y-14117952D01*
X12538333Y-14098905D01*
X12538333Y-13927476D01*
X12719286Y-14117952D02*
X12700238Y-14127476D01*
X12662143Y-14127476D01*
X12643095Y-14117952D01*
X12633571Y-14098905D01*
X12633571Y-14022714D01*
X12643095Y-14003667D01*
X12662143Y-13994143D01*
X12700238Y-13994143D01*
X12719286Y-14003667D01*
X12728809Y-14022714D01*
X12728809Y-14041762D01*
X12633571Y-14060809D01*
X12805000Y-14117952D02*
X12824048Y-14127476D01*
X12862143Y-14127476D01*
X12881190Y-14117952D01*
X12890714Y-14098905D01*
X12890714Y-14089381D01*
X12881190Y-14070333D01*
X12862143Y-14060809D01*
X12833571Y-14060809D01*
X12814524Y-14051286D01*
X12805000Y-14032238D01*
X12805000Y-14022714D01*
X12814524Y-14003667D01*
X12833571Y-13994143D01*
X12862143Y-13994143D01*
X12881190Y-14003667D01*
X12957381Y-14203667D02*
X12966905Y-14194143D01*
X12985952Y-14165571D01*
X12995476Y-14146524D01*
X13005000Y-14117952D01*
X13014524Y-14070333D01*
X13014524Y-14032238D01*
X13005000Y-13984619D01*
X12995476Y-13956048D01*
X12985952Y-13937000D01*
X12966905Y-13908428D01*
X12957381Y-13898905D01*
D15*
X7960000Y-14336000D02*
X7995000Y-14301000D01*
X7960000Y-14266000D01*
X7925000Y-14301000D01*
X7960000Y-14336000D01*
D11*
X8290714Y-14191476D02*
X8309762Y-14191476D01*
X8328809Y-14201000D01*
X8338333Y-14210524D01*
X8347857Y-14229571D01*
X8357381Y-14267667D01*
X8357381Y-14315286D01*
X8347857Y-14353381D01*
X8338333Y-14372428D01*
X8328809Y-14381952D01*
X8309762Y-14391476D01*
X8290714Y-14391476D01*
X8271667Y-14381952D01*
X8262143Y-14372428D01*
X8252619Y-14353381D01*
X8243095Y-14315286D01*
X8243095Y-14267667D01*
X8252619Y-14229571D01*
X8262143Y-14210524D01*
X8271667Y-14201000D01*
X8290714Y-14191476D01*
X8443095Y-14372428D02*
X8452619Y-14381952D01*
X8443095Y-14391476D01*
X8433571Y-14381952D01*
X8443095Y-14372428D01*
X8443095Y-14391476D01*
X8519286Y-14191476D02*
X8652619Y-14191476D01*
X8566905Y-14391476D01*
X8766905Y-14191476D02*
X8785952Y-14191476D01*
X8805000Y-14201000D01*
X8814524Y-14210524D01*
X8824048Y-14229571D01*
X8833571Y-14267667D01*
X8833571Y-14315286D01*
X8824048Y-14353381D01*
X8814524Y-14372428D01*
X8805000Y-14381952D01*
X8785952Y-14391476D01*
X8766905Y-14391476D01*
X8747857Y-14381952D01*
X8738333Y-14372428D01*
X8728810Y-14353381D01*
X8719286Y-14315286D01*
X8719286Y-14267667D01*
X8728810Y-14229571D01*
X8738333Y-14210524D01*
X8747857Y-14201000D01*
X8766905Y-14191476D01*
X8957381Y-14191476D02*
X8976429Y-14191476D01*
X8995476Y-14201000D01*
X9005000Y-14210524D01*
X9014524Y-14229571D01*
X9024048Y-14267667D01*
X9024048Y-14315286D01*
X9014524Y-14353381D01*
X9005000Y-14372428D01*
X8995476Y-14381952D01*
X8976429Y-14391476D01*
X8957381Y-14391476D01*
X8938333Y-14381952D01*
X8928810Y-14372428D01*
X8919286Y-14353381D01*
X8909762Y-14315286D01*
X8909762Y-14267667D01*
X8919286Y-14229571D01*
X8928810Y-14210524D01*
X8938333Y-14201000D01*
X8957381Y-14191476D01*
X9109762Y-14391476D02*
X9109762Y-14258143D01*
X9109762Y-14277190D02*
X9119286Y-14267667D01*
X9138333Y-14258143D01*
X9166905Y-14258143D01*
X9185952Y-14267667D01*
X9195476Y-14286714D01*
X9195476Y-14391476D01*
X9195476Y-14286714D02*
X9205000Y-14267667D01*
X9224048Y-14258143D01*
X9252619Y-14258143D01*
X9271667Y-14267667D01*
X9281190Y-14286714D01*
X9281190Y-14391476D01*
X9376429Y-14391476D02*
X9376429Y-14258143D01*
X9376429Y-14277190D02*
X9385952Y-14267667D01*
X9405000Y-14258143D01*
X9433571Y-14258143D01*
X9452619Y-14267667D01*
X9462143Y-14286714D01*
X9462143Y-14391476D01*
X9462143Y-14286714D02*
X9471667Y-14267667D01*
X9490714Y-14258143D01*
X9519286Y-14258143D01*
X9538333Y-14267667D01*
X9547857Y-14286714D01*
X9547857Y-14391476D01*
X9938333Y-14181952D02*
X9766905Y-14439095D01*
X10195476Y-14191476D02*
X10214524Y-14191476D01*
X10233571Y-14201000D01*
X10243095Y-14210524D01*
X10252619Y-14229571D01*
X10262143Y-14267667D01*
X10262143Y-14315286D01*
X10252619Y-14353381D01*
X10243095Y-14372428D01*
X10233571Y-14381952D01*
X10214524Y-14391476D01*
X10195476Y-14391476D01*
X10176429Y-14381952D01*
X10166905Y-14372428D01*
X10157381Y-14353381D01*
X10147857Y-14315286D01*
X10147857Y-14267667D01*
X10157381Y-14229571D01*
X10166905Y-14210524D01*
X10176429Y-14201000D01*
X10195476Y-14191476D01*
X10347857Y-14372428D02*
X10357381Y-14381952D01*
X10347857Y-14391476D01*
X10338333Y-14381952D01*
X10347857Y-14372428D01*
X10347857Y-14391476D01*
X10481190Y-14191476D02*
X10500238Y-14191476D01*
X10519286Y-14201000D01*
X10528810Y-14210524D01*
X10538333Y-14229571D01*
X10547857Y-14267667D01*
X10547857Y-14315286D01*
X10538333Y-14353381D01*
X10528810Y-14372428D01*
X10519286Y-14381952D01*
X10500238Y-14391476D01*
X10481190Y-14391476D01*
X10462143Y-14381952D01*
X10452619Y-14372428D01*
X10443095Y-14353381D01*
X10433571Y-14315286D01*
X10433571Y-14267667D01*
X10443095Y-14229571D01*
X10452619Y-14210524D01*
X10462143Y-14201000D01*
X10481190Y-14191476D01*
X10624048Y-14210524D02*
X10633571Y-14201000D01*
X10652619Y-14191476D01*
X10700238Y-14191476D01*
X10719286Y-14201000D01*
X10728810Y-14210524D01*
X10738333Y-14229571D01*
X10738333Y-14248619D01*
X10728810Y-14277190D01*
X10614524Y-14391476D01*
X10738333Y-14391476D01*
X10805000Y-14191476D02*
X10938333Y-14191476D01*
X10852619Y-14391476D01*
X11100238Y-14191476D02*
X11062143Y-14191476D01*
X11043095Y-14201000D01*
X11033571Y-14210524D01*
X11014524Y-14239095D01*
X11005000Y-14277190D01*
X11005000Y-14353381D01*
X11014524Y-14372428D01*
X11024048Y-14381952D01*
X11043095Y-14391476D01*
X11081190Y-14391476D01*
X11100238Y-14381952D01*
X11109762Y-14372428D01*
X11119286Y-14353381D01*
X11119286Y-14305762D01*
X11109762Y-14286714D01*
X11100238Y-14277190D01*
X11081190Y-14267667D01*
X11043095Y-14267667D01*
X11024048Y-14277190D01*
X11014524Y-14286714D01*
X11005000Y-14305762D01*
X11195476Y-14191476D02*
X11195476Y-14229571D01*
X11271667Y-14191476D02*
X11271667Y-14229571D01*
X11566905Y-14467667D02*
X11557381Y-14458143D01*
X11538333Y-14429571D01*
X11528809Y-14410524D01*
X11519286Y-14381952D01*
X11509762Y-14334333D01*
X11509762Y-14296238D01*
X11519286Y-14248619D01*
X11528809Y-14220048D01*
X11538333Y-14201000D01*
X11557381Y-14172428D01*
X11566905Y-14162905D01*
X11633571Y-14210524D02*
X11643095Y-14201000D01*
X11662143Y-14191476D01*
X11709762Y-14191476D01*
X11728809Y-14201000D01*
X11738333Y-14210524D01*
X11747857Y-14229571D01*
X11747857Y-14248619D01*
X11738333Y-14277190D01*
X11624048Y-14391476D01*
X11747857Y-14391476D01*
X11985952Y-14391476D02*
X11985952Y-14191476D01*
X12071667Y-14391476D02*
X12071667Y-14286714D01*
X12062143Y-14267667D01*
X12043095Y-14258143D01*
X12014524Y-14258143D01*
X11995476Y-14267667D01*
X11985952Y-14277190D01*
X12195476Y-14391476D02*
X12176428Y-14381952D01*
X12166905Y-14372428D01*
X12157381Y-14353381D01*
X12157381Y-14296238D01*
X12166905Y-14277190D01*
X12176428Y-14267667D01*
X12195476Y-14258143D01*
X12224048Y-14258143D01*
X12243095Y-14267667D01*
X12252619Y-14277190D01*
X12262143Y-14296238D01*
X12262143Y-14353381D01*
X12252619Y-14372428D01*
X12243095Y-14381952D01*
X12224048Y-14391476D01*
X12195476Y-14391476D01*
X12376428Y-14391476D02*
X12357381Y-14381952D01*
X12347857Y-14362905D01*
X12347857Y-14191476D01*
X12528809Y-14381952D02*
X12509762Y-14391476D01*
X12471667Y-14391476D01*
X12452619Y-14381952D01*
X12443095Y-14362905D01*
X12443095Y-14286714D01*
X12452619Y-14267667D01*
X12471667Y-14258143D01*
X12509762Y-14258143D01*
X12528809Y-14267667D01*
X12538333Y-14286714D01*
X12538333Y-14305762D01*
X12443095Y-14324809D01*
X12614524Y-14381952D02*
X12633571Y-14391476D01*
X12671667Y-14391476D01*
X12690714Y-14381952D01*
X12700238Y-14362905D01*
X12700238Y-14353381D01*
X12690714Y-14334333D01*
X12671667Y-14324809D01*
X12643095Y-14324809D01*
X12624048Y-14315286D01*
X12614524Y-14296238D01*
X12614524Y-14286714D01*
X12624048Y-14267667D01*
X12643095Y-14258143D01*
X12671667Y-14258143D01*
X12690714Y-14267667D01*
X12766905Y-14467667D02*
X12776428Y-14458143D01*
X12795476Y-14429571D01*
X12805000Y-14410524D01*
X12814524Y-14381952D01*
X12824048Y-14334333D01*
X12824048Y-14296238D01*
X12814524Y-14248619D01*
X12805000Y-14220048D01*
X12795476Y-14201000D01*
X12776428Y-14172428D01*
X12766905Y-14162905D01*
D16*
X7915000Y-14525000D02*
X7995000Y-14605000D01*
X7995000Y-14525000D02*
X7915000Y-14605000D01*
X7995000Y-14565000D02*
G75*
G03*
X7995000Y-14565000I-40000J0D01*
G01*
D11*
X8290714Y-14455476D02*
X8309762Y-14455476D01*
X8328809Y-14465000D01*
X8338333Y-14474524D01*
X8347857Y-14493571D01*
X8357381Y-14531667D01*
X8357381Y-14579286D01*
X8347857Y-14617381D01*
X8338333Y-14636428D01*
X8328809Y-14645952D01*
X8309762Y-14655476D01*
X8290714Y-14655476D01*
X8271667Y-14645952D01*
X8262143Y-14636428D01*
X8252619Y-14617381D01*
X8243095Y-14579286D01*
X8243095Y-14531667D01*
X8252619Y-14493571D01*
X8262143Y-14474524D01*
X8271667Y-14465000D01*
X8290714Y-14455476D01*
X8443095Y-14636428D02*
X8452619Y-14645952D01*
X8443095Y-14655476D01*
X8433571Y-14645952D01*
X8443095Y-14636428D01*
X8443095Y-14655476D01*
X8566905Y-14541190D02*
X8547857Y-14531667D01*
X8538333Y-14522143D01*
X8528810Y-14503095D01*
X8528810Y-14493571D01*
X8538333Y-14474524D01*
X8547857Y-14465000D01*
X8566905Y-14455476D01*
X8605000Y-14455476D01*
X8624048Y-14465000D01*
X8633571Y-14474524D01*
X8643095Y-14493571D01*
X8643095Y-14503095D01*
X8633571Y-14522143D01*
X8624048Y-14531667D01*
X8605000Y-14541190D01*
X8566905Y-14541190D01*
X8547857Y-14550714D01*
X8538333Y-14560238D01*
X8528810Y-14579286D01*
X8528810Y-14617381D01*
X8538333Y-14636428D01*
X8547857Y-14645952D01*
X8566905Y-14655476D01*
X8605000Y-14655476D01*
X8624048Y-14645952D01*
X8633571Y-14636428D01*
X8643095Y-14617381D01*
X8643095Y-14579286D01*
X8633571Y-14560238D01*
X8624048Y-14550714D01*
X8605000Y-14541190D01*
X8766905Y-14455476D02*
X8785952Y-14455476D01*
X8805000Y-14465000D01*
X8814524Y-14474524D01*
X8824048Y-14493571D01*
X8833571Y-14531667D01*
X8833571Y-14579286D01*
X8824048Y-14617381D01*
X8814524Y-14636428D01*
X8805000Y-14645952D01*
X8785952Y-14655476D01*
X8766905Y-14655476D01*
X8747857Y-14645952D01*
X8738333Y-14636428D01*
X8728810Y-14617381D01*
X8719286Y-14579286D01*
X8719286Y-14531667D01*
X8728810Y-14493571D01*
X8738333Y-14474524D01*
X8747857Y-14465000D01*
X8766905Y-14455476D01*
X8957381Y-14455476D02*
X8976429Y-14455476D01*
X8995476Y-14465000D01*
X9005000Y-14474524D01*
X9014524Y-14493571D01*
X9024048Y-14531667D01*
X9024048Y-14579286D01*
X9014524Y-14617381D01*
X9005000Y-14636428D01*
X8995476Y-14645952D01*
X8976429Y-14655476D01*
X8957381Y-14655476D01*
X8938333Y-14645952D01*
X8928810Y-14636428D01*
X8919286Y-14617381D01*
X8909762Y-14579286D01*
X8909762Y-14531667D01*
X8919286Y-14493571D01*
X8928810Y-14474524D01*
X8938333Y-14465000D01*
X8957381Y-14455476D01*
X9109762Y-14655476D02*
X9109762Y-14522143D01*
X9109762Y-14541190D02*
X9119286Y-14531667D01*
X9138333Y-14522143D01*
X9166905Y-14522143D01*
X9185952Y-14531667D01*
X9195476Y-14550714D01*
X9195476Y-14655476D01*
X9195476Y-14550714D02*
X9205000Y-14531667D01*
X9224048Y-14522143D01*
X9252619Y-14522143D01*
X9271667Y-14531667D01*
X9281190Y-14550714D01*
X9281190Y-14655476D01*
X9376429Y-14655476D02*
X9376429Y-14522143D01*
X9376429Y-14541190D02*
X9385952Y-14531667D01*
X9405000Y-14522143D01*
X9433571Y-14522143D01*
X9452619Y-14531667D01*
X9462143Y-14550714D01*
X9462143Y-14655476D01*
X9462143Y-14550714D02*
X9471667Y-14531667D01*
X9490714Y-14522143D01*
X9519286Y-14522143D01*
X9538333Y-14531667D01*
X9547857Y-14550714D01*
X9547857Y-14655476D01*
X9938333Y-14445952D02*
X9766905Y-14703095D01*
X10195476Y-14455476D02*
X10214524Y-14455476D01*
X10233571Y-14465000D01*
X10243095Y-14474524D01*
X10252619Y-14493571D01*
X10262143Y-14531667D01*
X10262143Y-14579286D01*
X10252619Y-14617381D01*
X10243095Y-14636428D01*
X10233571Y-14645952D01*
X10214524Y-14655476D01*
X10195476Y-14655476D01*
X10176429Y-14645952D01*
X10166905Y-14636428D01*
X10157381Y-14617381D01*
X10147857Y-14579286D01*
X10147857Y-14531667D01*
X10157381Y-14493571D01*
X10166905Y-14474524D01*
X10176429Y-14465000D01*
X10195476Y-14455476D01*
X10347857Y-14636428D02*
X10357381Y-14645952D01*
X10347857Y-14655476D01*
X10338333Y-14645952D01*
X10347857Y-14636428D01*
X10347857Y-14655476D01*
X10481190Y-14455476D02*
X10500238Y-14455476D01*
X10519286Y-14465000D01*
X10528810Y-14474524D01*
X10538333Y-14493571D01*
X10547857Y-14531667D01*
X10547857Y-14579286D01*
X10538333Y-14617381D01*
X10528810Y-14636428D01*
X10519286Y-14645952D01*
X10500238Y-14655476D01*
X10481190Y-14655476D01*
X10462143Y-14645952D01*
X10452619Y-14636428D01*
X10443095Y-14617381D01*
X10433571Y-14579286D01*
X10433571Y-14531667D01*
X10443095Y-14493571D01*
X10452619Y-14474524D01*
X10462143Y-14465000D01*
X10481190Y-14455476D01*
X10614524Y-14455476D02*
X10738333Y-14455476D01*
X10671667Y-14531667D01*
X10700238Y-14531667D01*
X10719286Y-14541190D01*
X10728810Y-14550714D01*
X10738333Y-14569762D01*
X10738333Y-14617381D01*
X10728810Y-14636428D01*
X10719286Y-14645952D01*
X10700238Y-14655476D01*
X10643095Y-14655476D01*
X10624048Y-14645952D01*
X10614524Y-14636428D01*
X10928810Y-14655476D02*
X10814524Y-14655476D01*
X10871667Y-14655476D02*
X10871667Y-14455476D01*
X10852619Y-14484048D01*
X10833571Y-14503095D01*
X10814524Y-14512619D01*
X11109762Y-14455476D02*
X11014524Y-14455476D01*
X11005000Y-14550714D01*
X11014524Y-14541190D01*
X11033571Y-14531667D01*
X11081190Y-14531667D01*
X11100238Y-14541190D01*
X11109762Y-14550714D01*
X11119286Y-14569762D01*
X11119286Y-14617381D01*
X11109762Y-14636428D01*
X11100238Y-14645952D01*
X11081190Y-14655476D01*
X11033571Y-14655476D01*
X11014524Y-14645952D01*
X11005000Y-14636428D01*
X11195476Y-14455476D02*
X11195476Y-14493571D01*
X11271667Y-14455476D02*
X11271667Y-14493571D01*
X11566905Y-14731667D02*
X11557381Y-14722143D01*
X11538333Y-14693571D01*
X11528809Y-14674524D01*
X11519286Y-14645952D01*
X11509762Y-14598333D01*
X11509762Y-14560238D01*
X11519286Y-14512619D01*
X11528809Y-14484048D01*
X11538333Y-14465000D01*
X11557381Y-14436428D01*
X11566905Y-14426905D01*
X11633571Y-14474524D02*
X11643095Y-14465000D01*
X11662143Y-14455476D01*
X11709762Y-14455476D01*
X11728809Y-14465000D01*
X11738333Y-14474524D01*
X11747857Y-14493571D01*
X11747857Y-14512619D01*
X11738333Y-14541190D01*
X11624048Y-14655476D01*
X11747857Y-14655476D01*
X11871667Y-14455476D02*
X11890714Y-14455476D01*
X11909762Y-14465000D01*
X11919286Y-14474524D01*
X11928809Y-14493571D01*
X11938333Y-14531667D01*
X11938333Y-14579286D01*
X11928809Y-14617381D01*
X11919286Y-14636428D01*
X11909762Y-14645952D01*
X11890714Y-14655476D01*
X11871667Y-14655476D01*
X11852619Y-14645952D01*
X11843095Y-14636428D01*
X11833571Y-14617381D01*
X11824048Y-14579286D01*
X11824048Y-14531667D01*
X11833571Y-14493571D01*
X11843095Y-14474524D01*
X11852619Y-14465000D01*
X11871667Y-14455476D01*
X12176428Y-14655476D02*
X12176428Y-14455476D01*
X12262143Y-14655476D02*
X12262143Y-14550714D01*
X12252619Y-14531667D01*
X12233571Y-14522143D01*
X12205000Y-14522143D01*
X12185952Y-14531667D01*
X12176428Y-14541190D01*
X12385952Y-14655476D02*
X12366905Y-14645952D01*
X12357381Y-14636428D01*
X12347857Y-14617381D01*
X12347857Y-14560238D01*
X12357381Y-14541190D01*
X12366905Y-14531667D01*
X12385952Y-14522143D01*
X12414524Y-14522143D01*
X12433571Y-14531667D01*
X12443095Y-14541190D01*
X12452619Y-14560238D01*
X12452619Y-14617381D01*
X12443095Y-14636428D01*
X12433571Y-14645952D01*
X12414524Y-14655476D01*
X12385952Y-14655476D01*
X12566905Y-14655476D02*
X12547857Y-14645952D01*
X12538333Y-14626905D01*
X12538333Y-14455476D01*
X12719286Y-14645952D02*
X12700238Y-14655476D01*
X12662143Y-14655476D01*
X12643095Y-14645952D01*
X12633571Y-14626905D01*
X12633571Y-14550714D01*
X12643095Y-14531667D01*
X12662143Y-14522143D01*
X12700238Y-14522143D01*
X12719286Y-14531667D01*
X12728809Y-14550714D01*
X12728809Y-14569762D01*
X12633571Y-14588809D01*
X12805000Y-14645952D02*
X12824048Y-14655476D01*
X12862143Y-14655476D01*
X12881190Y-14645952D01*
X12890714Y-14626905D01*
X12890714Y-14617381D01*
X12881190Y-14598333D01*
X12862143Y-14588809D01*
X12833571Y-14588809D01*
X12814524Y-14579286D01*
X12805000Y-14560238D01*
X12805000Y-14550714D01*
X12814524Y-14531667D01*
X12833571Y-14522143D01*
X12862143Y-14522143D01*
X12881190Y-14531667D01*
X12957381Y-14731667D02*
X12966905Y-14722143D01*
X12985952Y-14693571D01*
X12995476Y-14674524D01*
X13005000Y-14645952D01*
X13014524Y-14598333D01*
X13014524Y-14560238D01*
X13005000Y-14512619D01*
X12995476Y-14484048D01*
X12985952Y-14465000D01*
X12966905Y-14436428D01*
X12957381Y-14426905D01*
D10*
X7895000Y-14779000D02*
X7995000Y-14879000D01*
X7995000Y-14779000D02*
X7895000Y-14879000D01*
X7945000Y-14779000D02*
X7945000Y-14879000D01*
X7895000Y-14829000D02*
X7995000Y-14829000D01*
D11*
X8357381Y-14919476D02*
X8243095Y-14919476D01*
X8300238Y-14919476D02*
X8300238Y-14719476D01*
X8281190Y-14748048D01*
X8262143Y-14767095D01*
X8243095Y-14776619D01*
X8443095Y-14900428D02*
X8452619Y-14909952D01*
X8443095Y-14919476D01*
X8433571Y-14909952D01*
X8443095Y-14900428D01*
X8443095Y-14919476D01*
X8576429Y-14719476D02*
X8595476Y-14719476D01*
X8614524Y-14729000D01*
X8624048Y-14738524D01*
X8633571Y-14757571D01*
X8643095Y-14795667D01*
X8643095Y-14843286D01*
X8633571Y-14881381D01*
X8624048Y-14900428D01*
X8614524Y-14909952D01*
X8595476Y-14919476D01*
X8576429Y-14919476D01*
X8557381Y-14909952D01*
X8547857Y-14900428D01*
X8538333Y-14881381D01*
X8528810Y-14843286D01*
X8528810Y-14795667D01*
X8538333Y-14757571D01*
X8547857Y-14738524D01*
X8557381Y-14729000D01*
X8576429Y-14719476D01*
X8766905Y-14719476D02*
X8785952Y-14719476D01*
X8805000Y-14729000D01*
X8814524Y-14738524D01*
X8824048Y-14757571D01*
X8833571Y-14795667D01*
X8833571Y-14843286D01*
X8824048Y-14881381D01*
X8814524Y-14900428D01*
X8805000Y-14909952D01*
X8785952Y-14919476D01*
X8766905Y-14919476D01*
X8747857Y-14909952D01*
X8738333Y-14900428D01*
X8728810Y-14881381D01*
X8719286Y-14843286D01*
X8719286Y-14795667D01*
X8728810Y-14757571D01*
X8738333Y-14738524D01*
X8747857Y-14729000D01*
X8766905Y-14719476D01*
X8957381Y-14719476D02*
X8976429Y-14719476D01*
X8995476Y-14729000D01*
X9005000Y-14738524D01*
X9014524Y-14757571D01*
X9024048Y-14795667D01*
X9024048Y-14843286D01*
X9014524Y-14881381D01*
X9005000Y-14900428D01*
X8995476Y-14909952D01*
X8976429Y-14919476D01*
X8957381Y-14919476D01*
X8938333Y-14909952D01*
X8928810Y-14900428D01*
X8919286Y-14881381D01*
X8909762Y-14843286D01*
X8909762Y-14795667D01*
X8919286Y-14757571D01*
X8928810Y-14738524D01*
X8938333Y-14729000D01*
X8957381Y-14719476D01*
X9109762Y-14919476D02*
X9109762Y-14786143D01*
X9109762Y-14805190D02*
X9119286Y-14795667D01*
X9138333Y-14786143D01*
X9166905Y-14786143D01*
X9185952Y-14795667D01*
X9195476Y-14814714D01*
X9195476Y-14919476D01*
X9195476Y-14814714D02*
X9205000Y-14795667D01*
X9224048Y-14786143D01*
X9252619Y-14786143D01*
X9271667Y-14795667D01*
X9281190Y-14814714D01*
X9281190Y-14919476D01*
X9376429Y-14919476D02*
X9376429Y-14786143D01*
X9376429Y-14805190D02*
X9385952Y-14795667D01*
X9405000Y-14786143D01*
X9433571Y-14786143D01*
X9452619Y-14795667D01*
X9462143Y-14814714D01*
X9462143Y-14919476D01*
X9462143Y-14814714D02*
X9471667Y-14795667D01*
X9490714Y-14786143D01*
X9519286Y-14786143D01*
X9538333Y-14795667D01*
X9547857Y-14814714D01*
X9547857Y-14919476D01*
X9938333Y-14709952D02*
X9766905Y-14967095D01*
X10195476Y-14719476D02*
X10214524Y-14719476D01*
X10233571Y-14729000D01*
X10243095Y-14738524D01*
X10252619Y-14757571D01*
X10262143Y-14795667D01*
X10262143Y-14843286D01*
X10252619Y-14881381D01*
X10243095Y-14900428D01*
X10233571Y-14909952D01*
X10214524Y-14919476D01*
X10195476Y-14919476D01*
X10176429Y-14909952D01*
X10166905Y-14900428D01*
X10157381Y-14881381D01*
X10147857Y-14843286D01*
X10147857Y-14795667D01*
X10157381Y-14757571D01*
X10166905Y-14738524D01*
X10176429Y-14729000D01*
X10195476Y-14719476D01*
X10347857Y-14900428D02*
X10357381Y-14909952D01*
X10347857Y-14919476D01*
X10338333Y-14909952D01*
X10347857Y-14900428D01*
X10347857Y-14919476D01*
X10481190Y-14719476D02*
X10500238Y-14719476D01*
X10519286Y-14729000D01*
X10528810Y-14738524D01*
X10538333Y-14757571D01*
X10547857Y-14795667D01*
X10547857Y-14843286D01*
X10538333Y-14881381D01*
X10528810Y-14900428D01*
X10519286Y-14909952D01*
X10500238Y-14919476D01*
X10481190Y-14919476D01*
X10462143Y-14909952D01*
X10452619Y-14900428D01*
X10443095Y-14881381D01*
X10433571Y-14843286D01*
X10433571Y-14795667D01*
X10443095Y-14757571D01*
X10452619Y-14738524D01*
X10462143Y-14729000D01*
X10481190Y-14719476D01*
X10614524Y-14719476D02*
X10738333Y-14719476D01*
X10671667Y-14795667D01*
X10700238Y-14795667D01*
X10719286Y-14805190D01*
X10728810Y-14814714D01*
X10738333Y-14833762D01*
X10738333Y-14881381D01*
X10728810Y-14900428D01*
X10719286Y-14909952D01*
X10700238Y-14919476D01*
X10643095Y-14919476D01*
X10624048Y-14909952D01*
X10614524Y-14900428D01*
X10833571Y-14919476D02*
X10871667Y-14919476D01*
X10890714Y-14909952D01*
X10900238Y-14900428D01*
X10919286Y-14871857D01*
X10928810Y-14833762D01*
X10928810Y-14757571D01*
X10919286Y-14738524D01*
X10909762Y-14729000D01*
X10890714Y-14719476D01*
X10852619Y-14719476D01*
X10833571Y-14729000D01*
X10824048Y-14738524D01*
X10814524Y-14757571D01*
X10814524Y-14805190D01*
X10824048Y-14824238D01*
X10833571Y-14833762D01*
X10852619Y-14843286D01*
X10890714Y-14843286D01*
X10909762Y-14833762D01*
X10919286Y-14824238D01*
X10928810Y-14805190D01*
X11100238Y-14786143D02*
X11100238Y-14919476D01*
X11052619Y-14709952D02*
X11005000Y-14852809D01*
X11128810Y-14852809D01*
X11195476Y-14719476D02*
X11195476Y-14757571D01*
X11271667Y-14719476D02*
X11271667Y-14757571D01*
X11566905Y-14995667D02*
X11557381Y-14986143D01*
X11538333Y-14957571D01*
X11528809Y-14938524D01*
X11519286Y-14909952D01*
X11509762Y-14862333D01*
X11509762Y-14824238D01*
X11519286Y-14776619D01*
X11528809Y-14748048D01*
X11538333Y-14729000D01*
X11557381Y-14700428D01*
X11566905Y-14690905D01*
X11728809Y-14719476D02*
X11690714Y-14719476D01*
X11671667Y-14729000D01*
X11662143Y-14738524D01*
X11643095Y-14767095D01*
X11633571Y-14805190D01*
X11633571Y-14881381D01*
X11643095Y-14900428D01*
X11652619Y-14909952D01*
X11671667Y-14919476D01*
X11709762Y-14919476D01*
X11728809Y-14909952D01*
X11738333Y-14900428D01*
X11747857Y-14881381D01*
X11747857Y-14833762D01*
X11738333Y-14814714D01*
X11728809Y-14805190D01*
X11709762Y-14795667D01*
X11671667Y-14795667D01*
X11652619Y-14805190D01*
X11643095Y-14814714D01*
X11633571Y-14833762D01*
X11985952Y-14919476D02*
X11985952Y-14719476D01*
X12071667Y-14919476D02*
X12071667Y-14814714D01*
X12062143Y-14795667D01*
X12043095Y-14786143D01*
X12014524Y-14786143D01*
X11995476Y-14795667D01*
X11985952Y-14805190D01*
X12195476Y-14919476D02*
X12176428Y-14909952D01*
X12166905Y-14900428D01*
X12157381Y-14881381D01*
X12157381Y-14824238D01*
X12166905Y-14805190D01*
X12176428Y-14795667D01*
X12195476Y-14786143D01*
X12224048Y-14786143D01*
X12243095Y-14795667D01*
X12252619Y-14805190D01*
X12262143Y-14824238D01*
X12262143Y-14881381D01*
X12252619Y-14900428D01*
X12243095Y-14909952D01*
X12224048Y-14919476D01*
X12195476Y-14919476D01*
X12376428Y-14919476D02*
X12357381Y-14909952D01*
X12347857Y-14890905D01*
X12347857Y-14719476D01*
X12528809Y-14909952D02*
X12509762Y-14919476D01*
X12471667Y-14919476D01*
X12452619Y-14909952D01*
X12443095Y-14890905D01*
X12443095Y-14814714D01*
X12452619Y-14795667D01*
X12471667Y-14786143D01*
X12509762Y-14786143D01*
X12528809Y-14795667D01*
X12538333Y-14814714D01*
X12538333Y-14833762D01*
X12443095Y-14852809D01*
X12614524Y-14909952D02*
X12633571Y-14919476D01*
X12671667Y-14919476D01*
X12690714Y-14909952D01*
X12700238Y-14890905D01*
X12700238Y-14881381D01*
X12690714Y-14862333D01*
X12671667Y-14852809D01*
X12643095Y-14852809D01*
X12624048Y-14843286D01*
X12614524Y-14824238D01*
X12614524Y-14814714D01*
X12624048Y-14795667D01*
X12643095Y-14786143D01*
X12671667Y-14786143D01*
X12690714Y-14795667D01*
X12766905Y-14995667D02*
X12776428Y-14986143D01*
X12795476Y-14957571D01*
X12805000Y-14938524D01*
X12814524Y-14909952D01*
X12824048Y-14862333D01*
X12824048Y-14824238D01*
X12814524Y-14776619D01*
X12805000Y-14748048D01*
X12795476Y-14729000D01*
X12776428Y-14700428D01*
X12766905Y-14690905D01*
M02*
