%TF.GenerationSoftware,KiCad,Pcbnew,6.0.11+dfsg-1*%
%TF.CreationDate,2026-01-14T12:01:48-05:00*%
%TF.ProjectId,Deck_FPGA,4465636b-5f46-4504-9741-2e6b69636164,rev?*%
%TF.SameCoordinates,Original*%
%TF.FileFunction,Drillmap*%
%TF.FilePolarity,Positive*%
%FSLAX45Y45*%
G04 Gerber Fmt 4.5, Leading zero omitted, Abs format (unit mm)*
G04 Created by KiCad (PCBNEW 6.0.11+dfsg-1) date 2026-01-14 12:01:48*
%MOMM*%
%LPD*%
G01*
G04 APERTURE LIST*
%ADD10C,0.100000*%
%ADD11C,0.200000*%
%ADD12C,0.030000*%
%ADD13C,0.040000*%
%ADD14C,0.070000*%
%ADD15C,0.080000*%
G04 APERTURE END LIST*
D10*
X12100000Y-10000000D02*
X12100000Y-12200000D01*
X8400000Y-9600000D02*
G75*
G03*
X8000000Y-10000000I0J-400000D01*
G01*
X8000000Y-12200000D02*
G75*
G03*
X8400000Y-12600000I400000J0D01*
G01*
X11700000Y-12600000D02*
G75*
G03*
X12100000Y-12200000I0J400000D01*
G01*
X8000000Y-10000000D02*
X8000000Y-12200000D01*
X12100000Y-10000000D02*
G75*
G03*
X11700000Y-9600000I-400000J0D01*
G01*
X8400000Y-12600000D02*
X11700000Y-12600000D01*
X8400000Y-9600000D02*
X11700000Y-9600000D01*
D11*
D12*
X8340000Y-10965000D02*
X8370000Y-10995000D01*
X8370000Y-10965000D02*
X8340000Y-10995000D01*
X8385000Y-11335000D02*
X8415000Y-11365000D01*
X8415000Y-11335000D02*
X8385000Y-11365000D01*
X8435000Y-10595000D02*
X8465000Y-10625000D01*
X8465000Y-10595000D02*
X8435000Y-10625000D01*
X8645000Y-10805000D02*
X8675000Y-10835000D01*
X8675000Y-10805000D02*
X8645000Y-10835000D01*
X8725000Y-12055000D02*
X8755000Y-12085000D01*
X8755000Y-12055000D02*
X8725000Y-12085000D01*
X8725000Y-12185000D02*
X8755000Y-12215000D01*
X8755000Y-12185000D02*
X8725000Y-12215000D01*
X8734000Y-12426000D02*
X8764000Y-12456000D01*
X8764000Y-12426000D02*
X8734000Y-12456000D01*
X8825000Y-9875000D02*
X8855000Y-9905000D01*
X8855000Y-9875000D02*
X8825000Y-9905000D01*
X8910000Y-10405000D02*
X8940000Y-10435000D01*
X8940000Y-10405000D02*
X8910000Y-10435000D01*
X8915000Y-12315000D02*
X8945000Y-12345000D01*
X8945000Y-12315000D02*
X8915000Y-12345000D01*
X9005000Y-11415000D02*
X9035000Y-11445000D01*
X9035000Y-11415000D02*
X9005000Y-11445000D01*
X9120000Y-10635000D02*
X9150000Y-10665000D01*
X9150000Y-10635000D02*
X9120000Y-10665000D01*
X9167500Y-9847500D02*
X9197500Y-9877500D01*
X9197500Y-9847500D02*
X9167500Y-9877500D01*
X9235000Y-10390000D02*
X9265000Y-10420000D01*
X9265000Y-10390000D02*
X9235000Y-10420000D01*
X9280000Y-10480000D02*
X9310000Y-10510000D01*
X9310000Y-10480000D02*
X9280000Y-10510000D01*
X9365000Y-10145000D02*
X9395000Y-10175000D01*
X9395000Y-10145000D02*
X9365000Y-10175000D01*
X9375000Y-12345000D02*
X9405000Y-12375000D01*
X9405000Y-12345000D02*
X9375000Y-12375000D01*
X9385000Y-10445000D02*
X9415000Y-10475000D01*
X9415000Y-10445000D02*
X9385000Y-10475000D01*
X9385000Y-10605000D02*
X9415000Y-10635000D01*
X9415000Y-10605000D02*
X9385000Y-10635000D01*
X9385000Y-10925000D02*
X9415000Y-10955000D01*
X9415000Y-10925000D02*
X9385000Y-10955000D01*
X9385000Y-11165000D02*
X9415000Y-11195000D01*
X9415000Y-11165000D02*
X9385000Y-11195000D01*
X9385000Y-11405000D02*
X9415000Y-11435000D01*
X9415000Y-11405000D02*
X9385000Y-11435000D01*
X9385000Y-11565000D02*
X9415000Y-11595000D01*
X9415000Y-11565000D02*
X9385000Y-11595000D01*
X9385000Y-11725000D02*
X9415000Y-11755000D01*
X9415000Y-11725000D02*
X9385000Y-11755000D01*
X9415000Y-9825000D02*
X9445000Y-9855000D01*
X9445000Y-9825000D02*
X9415000Y-9855000D01*
X9415000Y-12025000D02*
X9445000Y-12055000D01*
X9445000Y-12025000D02*
X9415000Y-12055000D01*
X9465000Y-10765000D02*
X9495000Y-10795000D01*
X9495000Y-10765000D02*
X9465000Y-10795000D01*
X9465000Y-10925000D02*
X9495000Y-10955000D01*
X9495000Y-10925000D02*
X9465000Y-10955000D01*
X9465000Y-11245000D02*
X9495000Y-11275000D01*
X9495000Y-11245000D02*
X9465000Y-11275000D01*
X9465000Y-11325000D02*
X9495000Y-11355000D01*
X9495000Y-11325000D02*
X9465000Y-11355000D01*
X9465000Y-11405000D02*
X9495000Y-11435000D01*
X9495000Y-11405000D02*
X9465000Y-11435000D01*
X9465000Y-11565000D02*
X9495000Y-11595000D01*
X9495000Y-11565000D02*
X9465000Y-11595000D01*
X9465000Y-11645000D02*
X9495000Y-11675000D01*
X9495000Y-11645000D02*
X9465000Y-11675000D01*
X9545000Y-10445000D02*
X9575000Y-10475000D01*
X9575000Y-10445000D02*
X9545000Y-10475000D01*
X9545000Y-10525000D02*
X9575000Y-10555000D01*
X9575000Y-10525000D02*
X9545000Y-10555000D01*
X9545000Y-10765000D02*
X9575000Y-10795000D01*
X9575000Y-10765000D02*
X9545000Y-10795000D01*
X9545000Y-10925000D02*
X9575000Y-10955000D01*
X9575000Y-10925000D02*
X9545000Y-10955000D01*
X9545000Y-11165000D02*
X9575000Y-11195000D01*
X9575000Y-11165000D02*
X9545000Y-11195000D01*
X9545000Y-11325000D02*
X9575000Y-11355000D01*
X9575000Y-11325000D02*
X9545000Y-11355000D01*
X9545000Y-11485000D02*
X9575000Y-11515000D01*
X9575000Y-11485000D02*
X9545000Y-11515000D01*
X9545000Y-11565000D02*
X9575000Y-11595000D01*
X9575000Y-11565000D02*
X9545000Y-11595000D01*
X9545000Y-11725000D02*
X9575000Y-11755000D01*
X9575000Y-11725000D02*
X9545000Y-11755000D01*
X9550000Y-10600000D02*
X9580000Y-10630000D01*
X9580000Y-10600000D02*
X9550000Y-10630000D01*
X9595000Y-12345000D02*
X9625000Y-12375000D01*
X9625000Y-12345000D02*
X9595000Y-12375000D01*
X9625000Y-10925000D02*
X9655000Y-10955000D01*
X9655000Y-10925000D02*
X9625000Y-10955000D01*
X9625000Y-11005000D02*
X9655000Y-11035000D01*
X9655000Y-11005000D02*
X9625000Y-11035000D01*
X9625000Y-11405000D02*
X9655000Y-11435000D01*
X9655000Y-11405000D02*
X9625000Y-11435000D01*
X9625000Y-11485000D02*
X9655000Y-11515000D01*
X9655000Y-11485000D02*
X9625000Y-11515000D01*
X9625000Y-11645000D02*
X9655000Y-11675000D01*
X9655000Y-11645000D02*
X9625000Y-11675000D01*
X9705000Y-10445000D02*
X9735000Y-10475000D01*
X9735000Y-10445000D02*
X9705000Y-10475000D01*
X9705000Y-10605000D02*
X9735000Y-10635000D01*
X9735000Y-10605000D02*
X9705000Y-10635000D01*
X9705000Y-10765000D02*
X9735000Y-10795000D01*
X9735000Y-10765000D02*
X9705000Y-10795000D01*
X9705000Y-10845000D02*
X9735000Y-10875000D01*
X9735000Y-10845000D02*
X9705000Y-10875000D01*
X9705000Y-10925000D02*
X9735000Y-10955000D01*
X9735000Y-10925000D02*
X9705000Y-10955000D01*
X9705000Y-11325000D02*
X9735000Y-11355000D01*
X9735000Y-11325000D02*
X9705000Y-11355000D01*
X9705000Y-11405000D02*
X9735000Y-11435000D01*
X9735000Y-11405000D02*
X9705000Y-11435000D01*
X9705000Y-11565000D02*
X9735000Y-11595000D01*
X9735000Y-11565000D02*
X9705000Y-11595000D01*
X9705000Y-11725000D02*
X9735000Y-11755000D01*
X9735000Y-11725000D02*
X9705000Y-11755000D01*
X9785000Y-10525000D02*
X9815000Y-10555000D01*
X9815000Y-10525000D02*
X9785000Y-10555000D01*
X9785000Y-10765000D02*
X9815000Y-10795000D01*
X9815000Y-10765000D02*
X9785000Y-10795000D01*
X9785000Y-11005000D02*
X9815000Y-11035000D01*
X9815000Y-11005000D02*
X9785000Y-11035000D01*
X9785000Y-11085000D02*
X9815000Y-11115000D01*
X9815000Y-11085000D02*
X9785000Y-11115000D01*
X9785000Y-11165000D02*
X9815000Y-11195000D01*
X9815000Y-11165000D02*
X9785000Y-11195000D01*
X9785000Y-11245000D02*
X9815000Y-11275000D01*
X9815000Y-11245000D02*
X9785000Y-11275000D01*
X9785000Y-11485000D02*
X9815000Y-11515000D01*
X9815000Y-11485000D02*
X9785000Y-11515000D01*
X9785000Y-11645000D02*
X9815000Y-11675000D01*
X9815000Y-11645000D02*
X9785000Y-11675000D01*
X9805000Y-12025000D02*
X9835000Y-12055000D01*
X9835000Y-12025000D02*
X9805000Y-12055000D01*
X9862500Y-11162500D02*
X9892500Y-11192500D01*
X9892500Y-11162500D02*
X9862500Y-11192500D01*
X9865000Y-10605000D02*
X9895000Y-10635000D01*
X9895000Y-10605000D02*
X9865000Y-10635000D01*
X9865000Y-10765000D02*
X9895000Y-10795000D01*
X9895000Y-10765000D02*
X9865000Y-10795000D01*
X9865000Y-10925000D02*
X9895000Y-10955000D01*
X9895000Y-10925000D02*
X9865000Y-10955000D01*
X9865000Y-11245000D02*
X9895000Y-11275000D01*
X9895000Y-11245000D02*
X9865000Y-11275000D01*
X9865000Y-11405000D02*
X9895000Y-11435000D01*
X9895000Y-11405000D02*
X9865000Y-11435000D01*
X9865000Y-11565000D02*
X9895000Y-11595000D01*
X9895000Y-11565000D02*
X9865000Y-11595000D01*
X9865000Y-11725000D02*
X9895000Y-11755000D01*
X9895000Y-11725000D02*
X9865000Y-11755000D01*
X9945000Y-10445000D02*
X9975000Y-10475000D01*
X9975000Y-10445000D02*
X9945000Y-10475000D01*
X9945000Y-10765000D02*
X9975000Y-10795000D01*
X9975000Y-10765000D02*
X9945000Y-10795000D01*
X9945000Y-10925000D02*
X9975000Y-10955000D01*
X9975000Y-10925000D02*
X9945000Y-10955000D01*
X9945000Y-11005000D02*
X9975000Y-11035000D01*
X9975000Y-11005000D02*
X9945000Y-11035000D01*
X9945000Y-11325000D02*
X9975000Y-11355000D01*
X9975000Y-11325000D02*
X9945000Y-11355000D01*
X9945000Y-11645000D02*
X9975000Y-11675000D01*
X9975000Y-11645000D02*
X9945000Y-11675000D01*
X9947500Y-11247500D02*
X9977500Y-11277500D01*
X9977500Y-11247500D02*
X9947500Y-11277500D01*
X10022500Y-11562500D02*
X10052500Y-11592500D01*
X10052500Y-11562500D02*
X10022500Y-11592500D01*
X10025000Y-10605000D02*
X10055000Y-10635000D01*
X10055000Y-10605000D02*
X10025000Y-10635000D01*
X10025000Y-10765000D02*
X10055000Y-10795000D01*
X10055000Y-10765000D02*
X10025000Y-10795000D01*
X10025000Y-10925000D02*
X10055000Y-10955000D01*
X10055000Y-10925000D02*
X10025000Y-10955000D01*
X10025000Y-11085000D02*
X10055000Y-11115000D01*
X10055000Y-11085000D02*
X10025000Y-11115000D01*
X10025000Y-11165000D02*
X10055000Y-11195000D01*
X10055000Y-11165000D02*
X10025000Y-11195000D01*
X10025000Y-11325000D02*
X10055000Y-11355000D01*
X10055000Y-11325000D02*
X10025000Y-11355000D01*
X10025000Y-11725000D02*
X10055000Y-11755000D01*
X10055000Y-11725000D02*
X10025000Y-11755000D01*
X10105000Y-10525000D02*
X10135000Y-10555000D01*
X10135000Y-10525000D02*
X10105000Y-10555000D01*
X10105000Y-10605000D02*
X10135000Y-10635000D01*
X10135000Y-10605000D02*
X10105000Y-10635000D01*
X10105000Y-10765000D02*
X10135000Y-10795000D01*
X10135000Y-10765000D02*
X10105000Y-10795000D01*
X10105000Y-10925000D02*
X10135000Y-10955000D01*
X10135000Y-10925000D02*
X10105000Y-10955000D01*
X10105000Y-11085000D02*
X10135000Y-11115000D01*
X10135000Y-11085000D02*
X10105000Y-11115000D01*
X10105000Y-11165000D02*
X10135000Y-11195000D01*
X10135000Y-11165000D02*
X10105000Y-11195000D01*
X10105000Y-11245000D02*
X10135000Y-11275000D01*
X10135000Y-11245000D02*
X10105000Y-11275000D01*
X10105000Y-11485000D02*
X10135000Y-11515000D01*
X10135000Y-11485000D02*
X10105000Y-11515000D01*
X10105000Y-11645000D02*
X10135000Y-11675000D01*
X10135000Y-11645000D02*
X10105000Y-11675000D01*
X10110000Y-10350000D02*
X10140000Y-10380000D01*
X10140000Y-10350000D02*
X10110000Y-10380000D01*
X10175000Y-12345000D02*
X10205000Y-12375000D01*
X10205000Y-12345000D02*
X10175000Y-12375000D01*
X10185000Y-10525000D02*
X10215000Y-10555000D01*
X10215000Y-10525000D02*
X10185000Y-10555000D01*
X10185000Y-10605000D02*
X10215000Y-10635000D01*
X10215000Y-10605000D02*
X10185000Y-10635000D01*
X10185000Y-10925000D02*
X10215000Y-10955000D01*
X10215000Y-10925000D02*
X10185000Y-10955000D01*
X10185000Y-11005000D02*
X10215000Y-11035000D01*
X10215000Y-11005000D02*
X10185000Y-11035000D01*
X10185000Y-11085000D02*
X10215000Y-11115000D01*
X10215000Y-11085000D02*
X10185000Y-11115000D01*
X10185000Y-11165000D02*
X10215000Y-11195000D01*
X10215000Y-11165000D02*
X10185000Y-11195000D01*
X10185000Y-11725000D02*
X10215000Y-11755000D01*
X10215000Y-11725000D02*
X10185000Y-11755000D01*
X10190000Y-10347500D02*
X10220000Y-10377500D01*
X10220000Y-10347500D02*
X10190000Y-10377500D01*
X10262500Y-11647500D02*
X10292500Y-11677500D01*
X10292500Y-11647500D02*
X10262500Y-11677500D01*
X10265000Y-10365000D02*
X10295000Y-10395000D01*
X10295000Y-10365000D02*
X10265000Y-10395000D01*
X10265000Y-10845000D02*
X10295000Y-10875000D01*
X10295000Y-10845000D02*
X10265000Y-10875000D01*
X10265000Y-10925000D02*
X10295000Y-10955000D01*
X10295000Y-10925000D02*
X10265000Y-10955000D01*
X10265000Y-11005000D02*
X10295000Y-11035000D01*
X10295000Y-11005000D02*
X10265000Y-11035000D01*
X10265000Y-11085000D02*
X10295000Y-11115000D01*
X10295000Y-11085000D02*
X10265000Y-11115000D01*
X10265000Y-11165000D02*
X10295000Y-11195000D01*
X10295000Y-11165000D02*
X10265000Y-11195000D01*
X10265000Y-11245000D02*
X10295000Y-11275000D01*
X10295000Y-11245000D02*
X10265000Y-11275000D01*
X10265000Y-11565000D02*
X10295000Y-11595000D01*
X10295000Y-11565000D02*
X10265000Y-11595000D01*
X10315000Y-10285000D02*
X10345000Y-10315000D01*
X10345000Y-10285000D02*
X10315000Y-10315000D01*
X10344950Y-10925000D02*
X10374950Y-10955000D01*
X10374950Y-10925000D02*
X10344950Y-10955000D01*
X10345000Y-10765000D02*
X10375000Y-10795000D01*
X10375000Y-10765000D02*
X10345000Y-10795000D01*
X10345000Y-10845000D02*
X10375000Y-10875000D01*
X10375000Y-10845000D02*
X10345000Y-10875000D01*
X10345000Y-11005000D02*
X10375000Y-11035000D01*
X10375000Y-11005000D02*
X10345000Y-11035000D01*
X10345000Y-11085000D02*
X10375000Y-11115000D01*
X10375000Y-11085000D02*
X10345000Y-11115000D01*
X10345000Y-11245000D02*
X10375000Y-11275000D01*
X10375000Y-11245000D02*
X10345000Y-11275000D01*
X10345000Y-11485000D02*
X10375000Y-11515000D01*
X10375000Y-11485000D02*
X10345000Y-11515000D01*
X10345000Y-11725000D02*
X10375000Y-11755000D01*
X10375000Y-11725000D02*
X10345000Y-11755000D01*
X10365000Y-12030000D02*
X10395000Y-12060000D01*
X10395000Y-12030000D02*
X10365000Y-12060000D01*
X10425000Y-10525000D02*
X10455000Y-10555000D01*
X10455000Y-10525000D02*
X10425000Y-10555000D01*
X10425000Y-10765000D02*
X10455000Y-10795000D01*
X10455000Y-10765000D02*
X10425000Y-10795000D01*
X10425000Y-10925000D02*
X10455000Y-10955000D01*
X10455000Y-10925000D02*
X10425000Y-10955000D01*
X10425000Y-11005000D02*
X10455000Y-11035000D01*
X10455000Y-11005000D02*
X10425000Y-11035000D01*
X10425000Y-11085000D02*
X10455000Y-11115000D01*
X10455000Y-11085000D02*
X10425000Y-11115000D01*
X10425000Y-11165000D02*
X10455000Y-11195000D01*
X10455000Y-11165000D02*
X10425000Y-11195000D01*
X10425000Y-11245000D02*
X10455000Y-11275000D01*
X10455000Y-11245000D02*
X10425000Y-11275000D01*
X10425000Y-11325000D02*
X10455000Y-11355000D01*
X10455000Y-11325000D02*
X10425000Y-11355000D01*
X10425000Y-11485000D02*
X10455000Y-11515000D01*
X10455000Y-11485000D02*
X10425000Y-11515000D01*
X10425000Y-11565000D02*
X10455000Y-11595000D01*
X10455000Y-11565000D02*
X10425000Y-11595000D01*
X10505000Y-10525000D02*
X10535000Y-10555000D01*
X10535000Y-10525000D02*
X10505000Y-10555000D01*
X10505000Y-11005000D02*
X10535000Y-11035000D01*
X10535000Y-11005000D02*
X10505000Y-11035000D01*
X10505000Y-11645000D02*
X10535000Y-11675000D01*
X10535000Y-11645000D02*
X10505000Y-11675000D01*
X10505000Y-10764950D02*
X10535000Y-10794950D01*
X10535000Y-10764950D02*
X10505000Y-10794950D01*
X10585000Y-10445000D02*
X10615000Y-10475000D01*
X10615000Y-10445000D02*
X10585000Y-10475000D01*
X10585000Y-10925000D02*
X10615000Y-10955000D01*
X10615000Y-10925000D02*
X10585000Y-10955000D01*
X10585000Y-11725000D02*
X10615000Y-11755000D01*
X10615000Y-11725000D02*
X10585000Y-11755000D01*
X10662500Y-10927500D02*
X10692500Y-10957500D01*
X10692500Y-10927500D02*
X10662500Y-10957500D01*
X10665000Y-10605000D02*
X10695000Y-10635000D01*
X10695000Y-10605000D02*
X10665000Y-10635000D01*
X10665000Y-10765000D02*
X10695000Y-10795000D01*
X10695000Y-10765000D02*
X10665000Y-10795000D01*
X10665000Y-11085000D02*
X10695000Y-11115000D01*
X10695000Y-11085000D02*
X10665000Y-11115000D01*
X10665000Y-11165000D02*
X10695000Y-11195000D01*
X10695000Y-11165000D02*
X10665000Y-11195000D01*
X10665000Y-11245000D02*
X10695000Y-11275000D01*
X10695000Y-11245000D02*
X10665000Y-11275000D01*
X10665000Y-11325000D02*
X10695000Y-11355000D01*
X10695000Y-11325000D02*
X10665000Y-11355000D01*
X10665000Y-11485000D02*
X10695000Y-11515000D01*
X10695000Y-11485000D02*
X10665000Y-11515000D01*
X10665000Y-11645000D02*
X10695000Y-11675000D01*
X10695000Y-11645000D02*
X10665000Y-11675000D01*
X10740000Y-10370000D02*
X10770000Y-10400000D01*
X10770000Y-10370000D02*
X10740000Y-10400000D01*
X10742500Y-11082500D02*
X10772500Y-11112500D01*
X10772500Y-11082500D02*
X10742500Y-11112500D01*
X10835749Y-10330749D02*
X10865749Y-10360749D01*
X10865749Y-10330749D02*
X10835749Y-10360749D01*
X10869248Y-10418252D02*
X10899248Y-10448252D01*
X10899248Y-10418252D02*
X10869248Y-10448252D01*
X10875000Y-9705000D02*
X10905000Y-9735000D01*
X10905000Y-9705000D02*
X10875000Y-9735000D01*
X10966000Y-10284000D02*
X10996000Y-10314000D01*
X10996000Y-10284000D02*
X10966000Y-10314000D01*
X11015000Y-11225000D02*
X11045000Y-11255000D01*
X11045000Y-11225000D02*
X11015000Y-11255000D01*
X11025000Y-10165000D02*
X11055000Y-10195000D01*
X11055000Y-10165000D02*
X11025000Y-10195000D01*
X11117500Y-10232500D02*
X11147500Y-10262500D01*
X11147500Y-10232500D02*
X11117500Y-10262500D01*
X11165000Y-11815000D02*
X11195000Y-11845000D01*
X11195000Y-11815000D02*
X11165000Y-11845000D01*
X11245000Y-10780000D02*
X11275000Y-10810000D01*
X11275000Y-10780000D02*
X11245000Y-10810000D01*
X11245000Y-11825000D02*
X11275000Y-11855000D01*
X11275000Y-11825000D02*
X11245000Y-11855000D01*
X11351081Y-11830081D02*
X11381081Y-11860081D01*
X11381081Y-11830081D02*
X11351081Y-11860081D01*
X11432500Y-11775000D02*
X11462500Y-11805000D01*
X11462500Y-11775000D02*
X11432500Y-11805000D01*
X11535000Y-12015000D02*
X11565000Y-12045000D01*
X11565000Y-12015000D02*
X11535000Y-12045000D01*
X11547500Y-11690000D02*
X11577500Y-11720000D01*
X11577500Y-11690000D02*
X11547500Y-11720000D01*
X11715000Y-11535000D02*
X11745000Y-11565000D01*
X11745000Y-11535000D02*
X11715000Y-11565000D01*
X11775000Y-9830000D02*
X11805000Y-9860000D01*
X11805000Y-9830000D02*
X11775000Y-9860000D01*
X11145000Y-11470000D02*
G75*
G03*
X11145000Y-11470000I-15000J0D01*
G01*
X11295000Y-11320000D02*
G75*
G03*
X11295000Y-11320000I-15000J0D01*
G01*
X11295000Y-11470000D02*
G75*
G03*
X11295000Y-11470000I-15000J0D01*
G01*
X11295000Y-11620000D02*
G75*
G03*
X11295000Y-11620000I-15000J0D01*
G01*
X11445000Y-11470000D02*
G75*
G03*
X11445000Y-11470000I-15000J0D01*
G01*
D13*
X8300000Y-10835000D02*
X8300000Y-10875000D01*
X8280000Y-10855000D02*
X8320000Y-10855000D01*
X8435000Y-10445000D02*
X8435000Y-10485000D01*
X8415000Y-10465000D02*
X8455000Y-10465000D01*
X8485000Y-10025000D02*
X8485000Y-10065000D01*
X8465000Y-10045000D02*
X8505000Y-10045000D01*
X8650000Y-10385000D02*
X8650000Y-10425000D01*
X8630000Y-10405000D02*
X8670000Y-10405000D01*
X9125000Y-11575000D02*
X9125000Y-11615000D01*
X9105000Y-11595000D02*
X9145000Y-11595000D01*
X9125000Y-11675000D02*
X9125000Y-11715000D01*
X9105000Y-11695000D02*
X9145000Y-11695000D01*
X10115000Y-11850000D02*
X10115000Y-11890000D01*
X10095000Y-11870000D02*
X10135000Y-11870000D01*
X10255000Y-11850000D02*
X10255000Y-11890000D01*
X10235000Y-11870000D02*
X10275000Y-11870000D01*
X10390000Y-11850000D02*
X10390000Y-11890000D01*
X10370000Y-11870000D02*
X10410000Y-11870000D01*
X10590000Y-9820000D02*
X10590000Y-9860000D01*
X10570000Y-9840000D02*
X10610000Y-9840000D01*
X10700000Y-9680000D02*
X10700000Y-9720000D01*
X10680000Y-9700000D02*
X10720000Y-9700000D01*
X10790000Y-12340000D02*
X10790000Y-12380000D01*
X10770000Y-12360000D02*
X10810000Y-12360000D01*
X10805000Y-9820000D02*
X10805000Y-9860000D01*
X10785000Y-9840000D02*
X10825000Y-9840000D01*
X10810000Y-10850000D02*
X10810000Y-10890000D01*
X10790000Y-10870000D02*
X10830000Y-10870000D01*
X10810000Y-10970000D02*
X10810000Y-11010000D01*
X10790000Y-10990000D02*
X10830000Y-10990000D01*
X10815000Y-11365000D02*
X10815000Y-11405000D01*
X10795000Y-11385000D02*
X10835000Y-11385000D01*
X10815000Y-11475000D02*
X10815000Y-11515000D01*
X10795000Y-11495000D02*
X10835000Y-11495000D01*
X10815000Y-11580000D02*
X10815000Y-11620000D01*
X10795000Y-11600000D02*
X10835000Y-11600000D01*
X10815000Y-11690000D02*
X10815000Y-11730000D01*
X10795000Y-11710000D02*
X10835000Y-11710000D01*
X10830000Y-10535000D02*
X10830000Y-10575000D01*
X10810000Y-10555000D02*
X10850000Y-10555000D01*
X10975000Y-11690000D02*
X10975000Y-11730000D01*
X10955000Y-11710000D02*
X10995000Y-11710000D01*
X11010000Y-12165000D02*
X11010000Y-12205000D01*
X10990000Y-12185000D02*
X11030000Y-12185000D01*
X11010000Y-12340000D02*
X11010000Y-12380000D01*
X10990000Y-12360000D02*
X11030000Y-12360000D01*
X11030000Y-10940000D02*
X11030000Y-10980000D01*
X11010000Y-10960000D02*
X11050000Y-10960000D01*
X11126050Y-10508950D02*
X11126050Y-10548950D01*
X11106050Y-10528950D02*
X11146050Y-10528950D01*
X11185000Y-10940000D02*
X11185000Y-10980000D01*
X11165000Y-10960000D02*
X11205000Y-10960000D01*
X11246050Y-10508950D02*
X11246050Y-10548950D01*
X11226050Y-10528950D02*
X11266050Y-10528950D01*
X11300000Y-10170000D02*
X11300000Y-10210000D01*
X11280000Y-10190000D02*
X11320000Y-10190000D01*
X11340000Y-10945000D02*
X11340000Y-10985000D01*
X11320000Y-10965000D02*
X11360000Y-10965000D01*
X11425000Y-12370000D02*
X11425000Y-12410000D01*
X11405000Y-12390000D02*
X11445000Y-12390000D01*
X11500000Y-10940000D02*
X11500000Y-10980000D01*
X11480000Y-10960000D02*
X11520000Y-10960000D01*
X11555000Y-11205000D02*
X11555000Y-11245000D01*
X11535000Y-11225000D02*
X11575000Y-11225000D01*
X11580000Y-10285000D02*
X11580000Y-10325000D01*
X11560000Y-10305000D02*
X11600000Y-10305000D01*
X11620000Y-10565000D02*
X11620000Y-10605000D01*
X11600000Y-10585000D02*
X11640000Y-10585000D01*
X11640000Y-10820000D02*
X11640000Y-10860000D01*
X11620000Y-10840000D02*
X11660000Y-10840000D01*
X11640000Y-10930000D02*
X11640000Y-10970000D01*
X11620000Y-10950000D02*
X11660000Y-10950000D01*
X11685000Y-12080000D02*
X11685000Y-12120000D01*
X11665000Y-12100000D02*
X11705000Y-12100000D01*
X11732500Y-10097500D02*
X11732500Y-10137500D01*
X11712500Y-10117500D02*
X11752500Y-10117500D01*
X11810000Y-11790000D02*
X11810000Y-11830000D01*
X11790000Y-11810000D02*
X11830000Y-11810000D01*
X11845000Y-10210000D02*
X11845000Y-10250000D01*
X11825000Y-10230000D02*
X11865000Y-10230000D01*
X11885000Y-10340000D02*
X11885000Y-10380000D01*
X11865000Y-10360000D02*
X11905000Y-10360000D01*
X11885000Y-10520000D02*
X11885000Y-10560000D01*
X11865000Y-10540000D02*
X11905000Y-10540000D01*
X11909950Y-11327266D02*
X11909950Y-11367266D01*
X11889950Y-11347266D02*
X11929950Y-11347266D01*
X11925000Y-10980000D02*
X11925000Y-11020000D01*
X11905000Y-11000000D02*
X11945000Y-11000000D01*
D14*
X11263499Y-9727249D02*
X11263499Y-9677751D01*
X11214001Y-9677751D01*
X11214001Y-9727249D01*
X11263499Y-9727249D01*
X11668499Y-9727249D02*
X11668499Y-9677751D01*
X11619001Y-9677751D01*
X11619001Y-9727249D01*
X11668499Y-9727249D01*
D15*
X9100000Y-10040000D02*
X9140000Y-10000000D01*
X9100000Y-9960000D01*
X9060000Y-10000000D01*
X9100000Y-10040000D01*
X9100000Y-12240000D02*
X9140000Y-12200000D01*
X9100000Y-12160000D01*
X9060000Y-12200000D01*
X9100000Y-12240000D01*
X9300000Y-10040000D02*
X9340000Y-10000000D01*
X9300000Y-9960000D01*
X9260000Y-10000000D01*
X9300000Y-10040000D01*
X9300000Y-12240000D02*
X9340000Y-12200000D01*
X9300000Y-12160000D01*
X9260000Y-12200000D01*
X9300000Y-12240000D01*
X9500000Y-10040000D02*
X9540000Y-10000000D01*
X9500000Y-9960000D01*
X9460000Y-10000000D01*
X9500000Y-10040000D01*
X9500000Y-12240000D02*
X9540000Y-12200000D01*
X9500000Y-12160000D01*
X9460000Y-12200000D01*
X9500000Y-12240000D01*
X9700000Y-10040000D02*
X9740000Y-10000000D01*
X9700000Y-9960000D01*
X9660000Y-10000000D01*
X9700000Y-10040000D01*
X9700000Y-12240000D02*
X9740000Y-12200000D01*
X9700000Y-12160000D01*
X9660000Y-12200000D01*
X9700000Y-12240000D01*
X9900000Y-10040000D02*
X9940000Y-10000000D01*
X9900000Y-9960000D01*
X9860000Y-10000000D01*
X9900000Y-10040000D01*
X9900000Y-12240000D02*
X9940000Y-12200000D01*
X9900000Y-12160000D01*
X9860000Y-12200000D01*
X9900000Y-12240000D01*
X10100000Y-10040000D02*
X10140000Y-10000000D01*
X10100000Y-9960000D01*
X10060000Y-10000000D01*
X10100000Y-10040000D01*
X10100000Y-12240000D02*
X10140000Y-12200000D01*
X10100000Y-12160000D01*
X10060000Y-12200000D01*
X10100000Y-12240000D01*
X10300000Y-10040000D02*
X10340000Y-10000000D01*
X10300000Y-9960000D01*
X10260000Y-10000000D01*
X10300000Y-10040000D01*
X10300000Y-12240000D02*
X10340000Y-12200000D01*
X10300000Y-12160000D01*
X10260000Y-12200000D01*
X10300000Y-12240000D01*
X10500000Y-10040000D02*
X10540000Y-10000000D01*
X10500000Y-9960000D01*
X10460000Y-10000000D01*
X10500000Y-10040000D01*
X10500000Y-12240000D02*
X10540000Y-12200000D01*
X10500000Y-12160000D01*
X10460000Y-12200000D01*
X10500000Y-12240000D01*
X10700000Y-10040000D02*
X10740000Y-10000000D01*
X10700000Y-9960000D01*
X10660000Y-10000000D01*
X10700000Y-10040000D01*
X10700000Y-12240000D02*
X10740000Y-12200000D01*
X10700000Y-12160000D01*
X10660000Y-12200000D01*
X10700000Y-12240000D01*
X10900000Y-10040000D02*
X10940000Y-10000000D01*
X10900000Y-9960000D01*
X10860000Y-10000000D01*
X10900000Y-10040000D01*
X10900000Y-12240000D02*
X10940000Y-12200000D01*
X10900000Y-12160000D01*
X10860000Y-12200000D01*
X10900000Y-12240000D01*
D10*
X8130000Y-10415000D02*
X8230000Y-10515000D01*
X8230000Y-10415000D02*
X8130000Y-10515000D01*
X8230000Y-10465000D02*
G75*
G03*
X8230000Y-10465000I-50000J0D01*
G01*
X8130000Y-10669000D02*
X8230000Y-10769000D01*
X8230000Y-10669000D02*
X8130000Y-10769000D01*
X8230000Y-10719000D02*
G75*
G03*
X8230000Y-10719000I-50000J0D01*
G01*
X8130000Y-10923000D02*
X8230000Y-11023000D01*
X8230000Y-10923000D02*
X8130000Y-11023000D01*
X8230000Y-10973000D02*
G75*
G03*
X8230000Y-10973000I-50000J0D01*
G01*
X8130000Y-11177000D02*
X8230000Y-11277000D01*
X8230000Y-11177000D02*
X8130000Y-11277000D01*
X8230000Y-11227000D02*
G75*
G03*
X8230000Y-11227000I-50000J0D01*
G01*
X8130000Y-11431000D02*
X8230000Y-11531000D01*
X8230000Y-11431000D02*
X8130000Y-11531000D01*
X8230000Y-11481000D02*
G75*
G03*
X8230000Y-11481000I-50000J0D01*
G01*
X8130000Y-11685000D02*
X8230000Y-11785000D01*
X8230000Y-11685000D02*
X8130000Y-11785000D01*
X8230000Y-11735000D02*
G75*
G03*
X8230000Y-11735000I-50000J0D01*
G01*
D11*
X8252619Y-12915476D02*
X8252619Y-12715476D01*
X8300238Y-12715476D01*
X8328809Y-12725000D01*
X8347857Y-12744048D01*
X8357381Y-12763095D01*
X8366905Y-12801190D01*
X8366905Y-12829762D01*
X8357381Y-12867857D01*
X8347857Y-12886905D01*
X8328809Y-12905952D01*
X8300238Y-12915476D01*
X8252619Y-12915476D01*
X8452619Y-12915476D02*
X8452619Y-12782143D01*
X8452619Y-12820238D02*
X8462143Y-12801190D01*
X8471667Y-12791667D01*
X8490714Y-12782143D01*
X8509762Y-12782143D01*
X8576429Y-12915476D02*
X8576429Y-12782143D01*
X8576429Y-12715476D02*
X8566905Y-12725000D01*
X8576429Y-12734524D01*
X8585952Y-12725000D01*
X8576429Y-12715476D01*
X8576429Y-12734524D01*
X8700238Y-12915476D02*
X8681190Y-12905952D01*
X8671667Y-12886905D01*
X8671667Y-12715476D01*
X8805000Y-12915476D02*
X8785952Y-12905952D01*
X8776429Y-12886905D01*
X8776429Y-12715476D01*
X9033571Y-12915476D02*
X9033571Y-12715476D01*
X9100238Y-12858333D01*
X9166905Y-12715476D01*
X9166905Y-12915476D01*
X9347857Y-12915476D02*
X9347857Y-12810714D01*
X9338333Y-12791667D01*
X9319286Y-12782143D01*
X9281190Y-12782143D01*
X9262143Y-12791667D01*
X9347857Y-12905952D02*
X9328810Y-12915476D01*
X9281190Y-12915476D01*
X9262143Y-12905952D01*
X9252619Y-12886905D01*
X9252619Y-12867857D01*
X9262143Y-12848809D01*
X9281190Y-12839286D01*
X9328810Y-12839286D01*
X9347857Y-12829762D01*
X9443095Y-12782143D02*
X9443095Y-12982143D01*
X9443095Y-12791667D02*
X9462143Y-12782143D01*
X9500238Y-12782143D01*
X9519286Y-12791667D01*
X9528810Y-12801190D01*
X9538333Y-12820238D01*
X9538333Y-12877381D01*
X9528810Y-12896428D01*
X9519286Y-12905952D01*
X9500238Y-12915476D01*
X9462143Y-12915476D01*
X9443095Y-12905952D01*
X9624048Y-12896428D02*
X9633571Y-12905952D01*
X9624048Y-12915476D01*
X9614524Y-12905952D01*
X9624048Y-12896428D01*
X9624048Y-12915476D01*
X9624048Y-12791667D02*
X9633571Y-12801190D01*
X9624048Y-12810714D01*
X9614524Y-12801190D01*
X9624048Y-12791667D01*
X9624048Y-12810714D01*
D12*
X7965000Y-13230000D02*
X7995000Y-13260000D01*
X7995000Y-13230000D02*
X7965000Y-13260000D01*
D11*
X8290714Y-13135476D02*
X8309762Y-13135476D01*
X8328809Y-13145000D01*
X8338333Y-13154524D01*
X8347857Y-13173571D01*
X8357381Y-13211667D01*
X8357381Y-13259286D01*
X8347857Y-13297381D01*
X8338333Y-13316428D01*
X8328809Y-13325952D01*
X8309762Y-13335476D01*
X8290714Y-13335476D01*
X8271667Y-13325952D01*
X8262143Y-13316428D01*
X8252619Y-13297381D01*
X8243095Y-13259286D01*
X8243095Y-13211667D01*
X8252619Y-13173571D01*
X8262143Y-13154524D01*
X8271667Y-13145000D01*
X8290714Y-13135476D01*
X8443095Y-13316428D02*
X8452619Y-13325952D01*
X8443095Y-13335476D01*
X8433571Y-13325952D01*
X8443095Y-13316428D01*
X8443095Y-13335476D01*
X8519286Y-13135476D02*
X8643095Y-13135476D01*
X8576429Y-13211667D01*
X8605000Y-13211667D01*
X8624048Y-13221190D01*
X8633571Y-13230714D01*
X8643095Y-13249762D01*
X8643095Y-13297381D01*
X8633571Y-13316428D01*
X8624048Y-13325952D01*
X8605000Y-13335476D01*
X8547857Y-13335476D01*
X8528810Y-13325952D01*
X8519286Y-13316428D01*
X8766905Y-13135476D02*
X8785952Y-13135476D01*
X8805000Y-13145000D01*
X8814524Y-13154524D01*
X8824048Y-13173571D01*
X8833571Y-13211667D01*
X8833571Y-13259286D01*
X8824048Y-13297381D01*
X8814524Y-13316428D01*
X8805000Y-13325952D01*
X8785952Y-13335476D01*
X8766905Y-13335476D01*
X8747857Y-13325952D01*
X8738333Y-13316428D01*
X8728810Y-13297381D01*
X8719286Y-13259286D01*
X8719286Y-13211667D01*
X8728810Y-13173571D01*
X8738333Y-13154524D01*
X8747857Y-13145000D01*
X8766905Y-13135476D01*
X8957381Y-13135476D02*
X8976429Y-13135476D01*
X8995476Y-13145000D01*
X9005000Y-13154524D01*
X9014524Y-13173571D01*
X9024048Y-13211667D01*
X9024048Y-13259286D01*
X9014524Y-13297381D01*
X9005000Y-13316428D01*
X8995476Y-13325952D01*
X8976429Y-13335476D01*
X8957381Y-13335476D01*
X8938333Y-13325952D01*
X8928810Y-13316428D01*
X8919286Y-13297381D01*
X8909762Y-13259286D01*
X8909762Y-13211667D01*
X8919286Y-13173571D01*
X8928810Y-13154524D01*
X8938333Y-13145000D01*
X8957381Y-13135476D01*
X9109762Y-13335476D02*
X9109762Y-13202143D01*
X9109762Y-13221190D02*
X9119286Y-13211667D01*
X9138333Y-13202143D01*
X9166905Y-13202143D01*
X9185952Y-13211667D01*
X9195476Y-13230714D01*
X9195476Y-13335476D01*
X9195476Y-13230714D02*
X9205000Y-13211667D01*
X9224048Y-13202143D01*
X9252619Y-13202143D01*
X9271667Y-13211667D01*
X9281190Y-13230714D01*
X9281190Y-13335476D01*
X9376429Y-13335476D02*
X9376429Y-13202143D01*
X9376429Y-13221190D02*
X9385952Y-13211667D01*
X9405000Y-13202143D01*
X9433571Y-13202143D01*
X9452619Y-13211667D01*
X9462143Y-13230714D01*
X9462143Y-13335476D01*
X9462143Y-13230714D02*
X9471667Y-13211667D01*
X9490714Y-13202143D01*
X9519286Y-13202143D01*
X9538333Y-13211667D01*
X9547857Y-13230714D01*
X9547857Y-13335476D01*
X9938333Y-13125952D02*
X9766905Y-13383095D01*
X10195476Y-13135476D02*
X10214524Y-13135476D01*
X10233571Y-13145000D01*
X10243095Y-13154524D01*
X10252619Y-13173571D01*
X10262143Y-13211667D01*
X10262143Y-13259286D01*
X10252619Y-13297381D01*
X10243095Y-13316428D01*
X10233571Y-13325952D01*
X10214524Y-13335476D01*
X10195476Y-13335476D01*
X10176429Y-13325952D01*
X10166905Y-13316428D01*
X10157381Y-13297381D01*
X10147857Y-13259286D01*
X10147857Y-13211667D01*
X10157381Y-13173571D01*
X10166905Y-13154524D01*
X10176429Y-13145000D01*
X10195476Y-13135476D01*
X10347857Y-13316428D02*
X10357381Y-13325952D01*
X10347857Y-13335476D01*
X10338333Y-13325952D01*
X10347857Y-13316428D01*
X10347857Y-13335476D01*
X10481190Y-13135476D02*
X10500238Y-13135476D01*
X10519286Y-13145000D01*
X10528810Y-13154524D01*
X10538333Y-13173571D01*
X10547857Y-13211667D01*
X10547857Y-13259286D01*
X10538333Y-13297381D01*
X10528810Y-13316428D01*
X10519286Y-13325952D01*
X10500238Y-13335476D01*
X10481190Y-13335476D01*
X10462143Y-13325952D01*
X10452619Y-13316428D01*
X10443095Y-13297381D01*
X10433571Y-13259286D01*
X10433571Y-13211667D01*
X10443095Y-13173571D01*
X10452619Y-13154524D01*
X10462143Y-13145000D01*
X10481190Y-13135476D01*
X10738333Y-13335476D02*
X10624048Y-13335476D01*
X10681190Y-13335476D02*
X10681190Y-13135476D01*
X10662143Y-13164048D01*
X10643095Y-13183095D01*
X10624048Y-13192619D01*
X10928810Y-13335476D02*
X10814524Y-13335476D01*
X10871667Y-13335476D02*
X10871667Y-13135476D01*
X10852619Y-13164048D01*
X10833571Y-13183095D01*
X10814524Y-13192619D01*
X11043095Y-13221190D02*
X11024048Y-13211667D01*
X11014524Y-13202143D01*
X11005000Y-13183095D01*
X11005000Y-13173571D01*
X11014524Y-13154524D01*
X11024048Y-13145000D01*
X11043095Y-13135476D01*
X11081190Y-13135476D01*
X11100238Y-13145000D01*
X11109762Y-13154524D01*
X11119286Y-13173571D01*
X11119286Y-13183095D01*
X11109762Y-13202143D01*
X11100238Y-13211667D01*
X11081190Y-13221190D01*
X11043095Y-13221190D01*
X11024048Y-13230714D01*
X11014524Y-13240238D01*
X11005000Y-13259286D01*
X11005000Y-13297381D01*
X11014524Y-13316428D01*
X11024048Y-13325952D01*
X11043095Y-13335476D01*
X11081190Y-13335476D01*
X11100238Y-13325952D01*
X11109762Y-13316428D01*
X11119286Y-13297381D01*
X11119286Y-13259286D01*
X11109762Y-13240238D01*
X11100238Y-13230714D01*
X11081190Y-13221190D01*
X11195476Y-13135476D02*
X11195476Y-13173571D01*
X11271667Y-13135476D02*
X11271667Y-13173571D01*
X11566905Y-13411667D02*
X11557381Y-13402143D01*
X11538333Y-13373571D01*
X11528809Y-13354524D01*
X11519286Y-13325952D01*
X11509762Y-13278333D01*
X11509762Y-13240238D01*
X11519286Y-13192619D01*
X11528809Y-13164048D01*
X11538333Y-13145000D01*
X11557381Y-13116428D01*
X11566905Y-13106905D01*
X11747857Y-13335476D02*
X11633571Y-13335476D01*
X11690714Y-13335476D02*
X11690714Y-13135476D01*
X11671667Y-13164048D01*
X11652619Y-13183095D01*
X11633571Y-13192619D01*
X11814524Y-13135476D02*
X11947857Y-13135476D01*
X11862143Y-13335476D01*
X12014524Y-13154524D02*
X12024048Y-13145000D01*
X12043095Y-13135476D01*
X12090714Y-13135476D01*
X12109762Y-13145000D01*
X12119286Y-13154524D01*
X12128809Y-13173571D01*
X12128809Y-13192619D01*
X12119286Y-13221190D01*
X12005000Y-13335476D01*
X12128809Y-13335476D01*
X12366905Y-13335476D02*
X12366905Y-13135476D01*
X12452619Y-13335476D02*
X12452619Y-13230714D01*
X12443095Y-13211667D01*
X12424048Y-13202143D01*
X12395476Y-13202143D01*
X12376428Y-13211667D01*
X12366905Y-13221190D01*
X12576428Y-13335476D02*
X12557381Y-13325952D01*
X12547857Y-13316428D01*
X12538333Y-13297381D01*
X12538333Y-13240238D01*
X12547857Y-13221190D01*
X12557381Y-13211667D01*
X12576428Y-13202143D01*
X12605000Y-13202143D01*
X12624048Y-13211667D01*
X12633571Y-13221190D01*
X12643095Y-13240238D01*
X12643095Y-13297381D01*
X12633571Y-13316428D01*
X12624048Y-13325952D01*
X12605000Y-13335476D01*
X12576428Y-13335476D01*
X12757381Y-13335476D02*
X12738333Y-13325952D01*
X12728809Y-13306905D01*
X12728809Y-13135476D01*
X12909762Y-13325952D02*
X12890714Y-13335476D01*
X12852619Y-13335476D01*
X12833571Y-13325952D01*
X12824048Y-13306905D01*
X12824048Y-13230714D01*
X12833571Y-13211667D01*
X12852619Y-13202143D01*
X12890714Y-13202143D01*
X12909762Y-13211667D01*
X12919286Y-13230714D01*
X12919286Y-13249762D01*
X12824048Y-13268809D01*
X12995476Y-13325952D02*
X13014524Y-13335476D01*
X13052619Y-13335476D01*
X13071667Y-13325952D01*
X13081190Y-13306905D01*
X13081190Y-13297381D01*
X13071667Y-13278333D01*
X13052619Y-13268809D01*
X13024048Y-13268809D01*
X13005000Y-13259286D01*
X12995476Y-13240238D01*
X12995476Y-13230714D01*
X13005000Y-13211667D01*
X13024048Y-13202143D01*
X13052619Y-13202143D01*
X13071667Y-13211667D01*
X13147857Y-13411667D02*
X13157381Y-13402143D01*
X13176428Y-13373571D01*
X13185952Y-13354524D01*
X13195476Y-13325952D01*
X13205000Y-13278333D01*
X13205000Y-13240238D01*
X13195476Y-13192619D01*
X13185952Y-13164048D01*
X13176428Y-13145000D01*
X13157381Y-13116428D01*
X13147857Y-13106905D01*
D12*
X7995000Y-13509000D02*
G75*
G03*
X7995000Y-13509000I-15000J0D01*
G01*
D11*
X8290714Y-13399476D02*
X8309762Y-13399476D01*
X8328809Y-13409000D01*
X8338333Y-13418524D01*
X8347857Y-13437571D01*
X8357381Y-13475667D01*
X8357381Y-13523286D01*
X8347857Y-13561381D01*
X8338333Y-13580428D01*
X8328809Y-13589952D01*
X8309762Y-13599476D01*
X8290714Y-13599476D01*
X8271667Y-13589952D01*
X8262143Y-13580428D01*
X8252619Y-13561381D01*
X8243095Y-13523286D01*
X8243095Y-13475667D01*
X8252619Y-13437571D01*
X8262143Y-13418524D01*
X8271667Y-13409000D01*
X8290714Y-13399476D01*
X8443095Y-13580428D02*
X8452619Y-13589952D01*
X8443095Y-13599476D01*
X8433571Y-13589952D01*
X8443095Y-13580428D01*
X8443095Y-13599476D01*
X8519286Y-13399476D02*
X8643095Y-13399476D01*
X8576429Y-13475667D01*
X8605000Y-13475667D01*
X8624048Y-13485190D01*
X8633571Y-13494714D01*
X8643095Y-13513762D01*
X8643095Y-13561381D01*
X8633571Y-13580428D01*
X8624048Y-13589952D01*
X8605000Y-13599476D01*
X8547857Y-13599476D01*
X8528810Y-13589952D01*
X8519286Y-13580428D01*
X8766905Y-13399476D02*
X8785952Y-13399476D01*
X8805000Y-13409000D01*
X8814524Y-13418524D01*
X8824048Y-13437571D01*
X8833571Y-13475667D01*
X8833571Y-13523286D01*
X8824048Y-13561381D01*
X8814524Y-13580428D01*
X8805000Y-13589952D01*
X8785952Y-13599476D01*
X8766905Y-13599476D01*
X8747857Y-13589952D01*
X8738333Y-13580428D01*
X8728810Y-13561381D01*
X8719286Y-13523286D01*
X8719286Y-13475667D01*
X8728810Y-13437571D01*
X8738333Y-13418524D01*
X8747857Y-13409000D01*
X8766905Y-13399476D01*
X8957381Y-13399476D02*
X8976429Y-13399476D01*
X8995476Y-13409000D01*
X9005000Y-13418524D01*
X9014524Y-13437571D01*
X9024048Y-13475667D01*
X9024048Y-13523286D01*
X9014524Y-13561381D01*
X9005000Y-13580428D01*
X8995476Y-13589952D01*
X8976429Y-13599476D01*
X8957381Y-13599476D01*
X8938333Y-13589952D01*
X8928810Y-13580428D01*
X8919286Y-13561381D01*
X8909762Y-13523286D01*
X8909762Y-13475667D01*
X8919286Y-13437571D01*
X8928810Y-13418524D01*
X8938333Y-13409000D01*
X8957381Y-13399476D01*
X9109762Y-13599476D02*
X9109762Y-13466143D01*
X9109762Y-13485190D02*
X9119286Y-13475667D01*
X9138333Y-13466143D01*
X9166905Y-13466143D01*
X9185952Y-13475667D01*
X9195476Y-13494714D01*
X9195476Y-13599476D01*
X9195476Y-13494714D02*
X9205000Y-13475667D01*
X9224048Y-13466143D01*
X9252619Y-13466143D01*
X9271667Y-13475667D01*
X9281190Y-13494714D01*
X9281190Y-13599476D01*
X9376429Y-13599476D02*
X9376429Y-13466143D01*
X9376429Y-13485190D02*
X9385952Y-13475667D01*
X9405000Y-13466143D01*
X9433571Y-13466143D01*
X9452619Y-13475667D01*
X9462143Y-13494714D01*
X9462143Y-13599476D01*
X9462143Y-13494714D02*
X9471667Y-13475667D01*
X9490714Y-13466143D01*
X9519286Y-13466143D01*
X9538333Y-13475667D01*
X9547857Y-13494714D01*
X9547857Y-13599476D01*
X9938333Y-13389952D02*
X9766905Y-13647095D01*
X10195476Y-13399476D02*
X10214524Y-13399476D01*
X10233571Y-13409000D01*
X10243095Y-13418524D01*
X10252619Y-13437571D01*
X10262143Y-13475667D01*
X10262143Y-13523286D01*
X10252619Y-13561381D01*
X10243095Y-13580428D01*
X10233571Y-13589952D01*
X10214524Y-13599476D01*
X10195476Y-13599476D01*
X10176429Y-13589952D01*
X10166905Y-13580428D01*
X10157381Y-13561381D01*
X10147857Y-13523286D01*
X10147857Y-13475667D01*
X10157381Y-13437571D01*
X10166905Y-13418524D01*
X10176429Y-13409000D01*
X10195476Y-13399476D01*
X10347857Y-13580428D02*
X10357381Y-13589952D01*
X10347857Y-13599476D01*
X10338333Y-13589952D01*
X10347857Y-13580428D01*
X10347857Y-13599476D01*
X10481190Y-13399476D02*
X10500238Y-13399476D01*
X10519286Y-13409000D01*
X10528810Y-13418524D01*
X10538333Y-13437571D01*
X10547857Y-13475667D01*
X10547857Y-13523286D01*
X10538333Y-13561381D01*
X10528810Y-13580428D01*
X10519286Y-13589952D01*
X10500238Y-13599476D01*
X10481190Y-13599476D01*
X10462143Y-13589952D01*
X10452619Y-13580428D01*
X10443095Y-13561381D01*
X10433571Y-13523286D01*
X10433571Y-13475667D01*
X10443095Y-13437571D01*
X10452619Y-13418524D01*
X10462143Y-13409000D01*
X10481190Y-13399476D01*
X10738333Y-13599476D02*
X10624048Y-13599476D01*
X10681190Y-13599476D02*
X10681190Y-13399476D01*
X10662143Y-13428048D01*
X10643095Y-13447095D01*
X10624048Y-13456619D01*
X10928810Y-13599476D02*
X10814524Y-13599476D01*
X10871667Y-13599476D02*
X10871667Y-13399476D01*
X10852619Y-13428048D01*
X10833571Y-13447095D01*
X10814524Y-13456619D01*
X11043095Y-13485190D02*
X11024048Y-13475667D01*
X11014524Y-13466143D01*
X11005000Y-13447095D01*
X11005000Y-13437571D01*
X11014524Y-13418524D01*
X11024048Y-13409000D01*
X11043095Y-13399476D01*
X11081190Y-13399476D01*
X11100238Y-13409000D01*
X11109762Y-13418524D01*
X11119286Y-13437571D01*
X11119286Y-13447095D01*
X11109762Y-13466143D01*
X11100238Y-13475667D01*
X11081190Y-13485190D01*
X11043095Y-13485190D01*
X11024048Y-13494714D01*
X11014524Y-13504238D01*
X11005000Y-13523286D01*
X11005000Y-13561381D01*
X11014524Y-13580428D01*
X11024048Y-13589952D01*
X11043095Y-13599476D01*
X11081190Y-13599476D01*
X11100238Y-13589952D01*
X11109762Y-13580428D01*
X11119286Y-13561381D01*
X11119286Y-13523286D01*
X11109762Y-13504238D01*
X11100238Y-13494714D01*
X11081190Y-13485190D01*
X11195476Y-13399476D02*
X11195476Y-13437571D01*
X11271667Y-13399476D02*
X11271667Y-13437571D01*
X11566905Y-13675667D02*
X11557381Y-13666143D01*
X11538333Y-13637571D01*
X11528809Y-13618524D01*
X11519286Y-13589952D01*
X11509762Y-13542333D01*
X11509762Y-13504238D01*
X11519286Y-13456619D01*
X11528809Y-13428048D01*
X11538333Y-13409000D01*
X11557381Y-13380428D01*
X11566905Y-13370905D01*
X11738333Y-13399476D02*
X11643095Y-13399476D01*
X11633571Y-13494714D01*
X11643095Y-13485190D01*
X11662143Y-13475667D01*
X11709762Y-13475667D01*
X11728809Y-13485190D01*
X11738333Y-13494714D01*
X11747857Y-13513762D01*
X11747857Y-13561381D01*
X11738333Y-13580428D01*
X11728809Y-13589952D01*
X11709762Y-13599476D01*
X11662143Y-13599476D01*
X11643095Y-13589952D01*
X11633571Y-13580428D01*
X11985952Y-13599476D02*
X11985952Y-13399476D01*
X12071667Y-13599476D02*
X12071667Y-13494714D01*
X12062143Y-13475667D01*
X12043095Y-13466143D01*
X12014524Y-13466143D01*
X11995476Y-13475667D01*
X11985952Y-13485190D01*
X12195476Y-13599476D02*
X12176428Y-13589952D01*
X12166905Y-13580428D01*
X12157381Y-13561381D01*
X12157381Y-13504238D01*
X12166905Y-13485190D01*
X12176428Y-13475667D01*
X12195476Y-13466143D01*
X12224048Y-13466143D01*
X12243095Y-13475667D01*
X12252619Y-13485190D01*
X12262143Y-13504238D01*
X12262143Y-13561381D01*
X12252619Y-13580428D01*
X12243095Y-13589952D01*
X12224048Y-13599476D01*
X12195476Y-13599476D01*
X12376428Y-13599476D02*
X12357381Y-13589952D01*
X12347857Y-13570905D01*
X12347857Y-13399476D01*
X12528809Y-13589952D02*
X12509762Y-13599476D01*
X12471667Y-13599476D01*
X12452619Y-13589952D01*
X12443095Y-13570905D01*
X12443095Y-13494714D01*
X12452619Y-13475667D01*
X12471667Y-13466143D01*
X12509762Y-13466143D01*
X12528809Y-13475667D01*
X12538333Y-13494714D01*
X12538333Y-13513762D01*
X12443095Y-13532809D01*
X12614524Y-13589952D02*
X12633571Y-13599476D01*
X12671667Y-13599476D01*
X12690714Y-13589952D01*
X12700238Y-13570905D01*
X12700238Y-13561381D01*
X12690714Y-13542333D01*
X12671667Y-13532809D01*
X12643095Y-13532809D01*
X12624048Y-13523286D01*
X12614524Y-13504238D01*
X12614524Y-13494714D01*
X12624048Y-13475667D01*
X12643095Y-13466143D01*
X12671667Y-13466143D01*
X12690714Y-13475667D01*
X12766905Y-13675667D02*
X12776428Y-13666143D01*
X12795476Y-13637571D01*
X12805000Y-13618524D01*
X12814524Y-13589952D01*
X12824048Y-13542333D01*
X12824048Y-13504238D01*
X12814524Y-13456619D01*
X12805000Y-13428048D01*
X12795476Y-13409000D01*
X12776428Y-13380428D01*
X12766905Y-13370905D01*
D13*
X7975000Y-13753000D02*
X7975000Y-13793000D01*
X7955000Y-13773000D02*
X7995000Y-13773000D01*
D11*
X8290714Y-13663476D02*
X8309762Y-13663476D01*
X8328809Y-13673000D01*
X8338333Y-13682524D01*
X8347857Y-13701571D01*
X8357381Y-13739667D01*
X8357381Y-13787286D01*
X8347857Y-13825381D01*
X8338333Y-13844428D01*
X8328809Y-13853952D01*
X8309762Y-13863476D01*
X8290714Y-13863476D01*
X8271667Y-13853952D01*
X8262143Y-13844428D01*
X8252619Y-13825381D01*
X8243095Y-13787286D01*
X8243095Y-13739667D01*
X8252619Y-13701571D01*
X8262143Y-13682524D01*
X8271667Y-13673000D01*
X8290714Y-13663476D01*
X8443095Y-13844428D02*
X8452619Y-13853952D01*
X8443095Y-13863476D01*
X8433571Y-13853952D01*
X8443095Y-13844428D01*
X8443095Y-13863476D01*
X8624048Y-13730143D02*
X8624048Y-13863476D01*
X8576429Y-13653952D02*
X8528810Y-13796809D01*
X8652619Y-13796809D01*
X8766905Y-13663476D02*
X8785952Y-13663476D01*
X8805000Y-13673000D01*
X8814524Y-13682524D01*
X8824048Y-13701571D01*
X8833571Y-13739667D01*
X8833571Y-13787286D01*
X8824048Y-13825381D01*
X8814524Y-13844428D01*
X8805000Y-13853952D01*
X8785952Y-13863476D01*
X8766905Y-13863476D01*
X8747857Y-13853952D01*
X8738333Y-13844428D01*
X8728810Y-13825381D01*
X8719286Y-13787286D01*
X8719286Y-13739667D01*
X8728810Y-13701571D01*
X8738333Y-13682524D01*
X8747857Y-13673000D01*
X8766905Y-13663476D01*
X8957381Y-13663476D02*
X8976429Y-13663476D01*
X8995476Y-13673000D01*
X9005000Y-13682524D01*
X9014524Y-13701571D01*
X9024048Y-13739667D01*
X9024048Y-13787286D01*
X9014524Y-13825381D01*
X9005000Y-13844428D01*
X8995476Y-13853952D01*
X8976429Y-13863476D01*
X8957381Y-13863476D01*
X8938333Y-13853952D01*
X8928810Y-13844428D01*
X8919286Y-13825381D01*
X8909762Y-13787286D01*
X8909762Y-13739667D01*
X8919286Y-13701571D01*
X8928810Y-13682524D01*
X8938333Y-13673000D01*
X8957381Y-13663476D01*
X9109762Y-13863476D02*
X9109762Y-13730143D01*
X9109762Y-13749190D02*
X9119286Y-13739667D01*
X9138333Y-13730143D01*
X9166905Y-13730143D01*
X9185952Y-13739667D01*
X9195476Y-13758714D01*
X9195476Y-13863476D01*
X9195476Y-13758714D02*
X9205000Y-13739667D01*
X9224048Y-13730143D01*
X9252619Y-13730143D01*
X9271667Y-13739667D01*
X9281190Y-13758714D01*
X9281190Y-13863476D01*
X9376429Y-13863476D02*
X9376429Y-13730143D01*
X9376429Y-13749190D02*
X9385952Y-13739667D01*
X9405000Y-13730143D01*
X9433571Y-13730143D01*
X9452619Y-13739667D01*
X9462143Y-13758714D01*
X9462143Y-13863476D01*
X9462143Y-13758714D02*
X9471667Y-13739667D01*
X9490714Y-13730143D01*
X9519286Y-13730143D01*
X9538333Y-13739667D01*
X9547857Y-13758714D01*
X9547857Y-13863476D01*
X9938333Y-13653952D02*
X9766905Y-13911095D01*
X10195476Y-13663476D02*
X10214524Y-13663476D01*
X10233571Y-13673000D01*
X10243095Y-13682524D01*
X10252619Y-13701571D01*
X10262143Y-13739667D01*
X10262143Y-13787286D01*
X10252619Y-13825381D01*
X10243095Y-13844428D01*
X10233571Y-13853952D01*
X10214524Y-13863476D01*
X10195476Y-13863476D01*
X10176429Y-13853952D01*
X10166905Y-13844428D01*
X10157381Y-13825381D01*
X10147857Y-13787286D01*
X10147857Y-13739667D01*
X10157381Y-13701571D01*
X10166905Y-13682524D01*
X10176429Y-13673000D01*
X10195476Y-13663476D01*
X10347857Y-13844428D02*
X10357381Y-13853952D01*
X10347857Y-13863476D01*
X10338333Y-13853952D01*
X10347857Y-13844428D01*
X10347857Y-13863476D01*
X10481190Y-13663476D02*
X10500238Y-13663476D01*
X10519286Y-13673000D01*
X10528810Y-13682524D01*
X10538333Y-13701571D01*
X10547857Y-13739667D01*
X10547857Y-13787286D01*
X10538333Y-13825381D01*
X10528810Y-13844428D01*
X10519286Y-13853952D01*
X10500238Y-13863476D01*
X10481190Y-13863476D01*
X10462143Y-13853952D01*
X10452619Y-13844428D01*
X10443095Y-13825381D01*
X10433571Y-13787286D01*
X10433571Y-13739667D01*
X10443095Y-13701571D01*
X10452619Y-13682524D01*
X10462143Y-13673000D01*
X10481190Y-13663476D01*
X10738333Y-13863476D02*
X10624048Y-13863476D01*
X10681190Y-13863476D02*
X10681190Y-13663476D01*
X10662143Y-13692048D01*
X10643095Y-13711095D01*
X10624048Y-13720619D01*
X10919286Y-13663476D02*
X10824048Y-13663476D01*
X10814524Y-13758714D01*
X10824048Y-13749190D01*
X10843095Y-13739667D01*
X10890714Y-13739667D01*
X10909762Y-13749190D01*
X10919286Y-13758714D01*
X10928810Y-13777762D01*
X10928810Y-13825381D01*
X10919286Y-13844428D01*
X10909762Y-13853952D01*
X10890714Y-13863476D01*
X10843095Y-13863476D01*
X10824048Y-13853952D01*
X10814524Y-13844428D01*
X10995476Y-13663476D02*
X11128810Y-13663476D01*
X11043095Y-13863476D01*
X11195476Y-13663476D02*
X11195476Y-13701571D01*
X11271667Y-13663476D02*
X11271667Y-13701571D01*
X11566905Y-13939667D02*
X11557381Y-13930143D01*
X11538333Y-13901571D01*
X11528809Y-13882524D01*
X11519286Y-13853952D01*
X11509762Y-13806333D01*
X11509762Y-13768238D01*
X11519286Y-13720619D01*
X11528809Y-13692048D01*
X11538333Y-13673000D01*
X11557381Y-13644428D01*
X11566905Y-13634905D01*
X11728809Y-13730143D02*
X11728809Y-13863476D01*
X11681190Y-13653952D02*
X11633571Y-13796809D01*
X11757381Y-13796809D01*
X11919286Y-13730143D02*
X11919286Y-13863476D01*
X11871667Y-13653952D02*
X11824048Y-13796809D01*
X11947857Y-13796809D01*
X12176428Y-13863476D02*
X12176428Y-13663476D01*
X12262143Y-13863476D02*
X12262143Y-13758714D01*
X12252619Y-13739667D01*
X12233571Y-13730143D01*
X12205000Y-13730143D01*
X12185952Y-13739667D01*
X12176428Y-13749190D01*
X12385952Y-13863476D02*
X12366905Y-13853952D01*
X12357381Y-13844428D01*
X12347857Y-13825381D01*
X12347857Y-13768238D01*
X12357381Y-13749190D01*
X12366905Y-13739667D01*
X12385952Y-13730143D01*
X12414524Y-13730143D01*
X12433571Y-13739667D01*
X12443095Y-13749190D01*
X12452619Y-13768238D01*
X12452619Y-13825381D01*
X12443095Y-13844428D01*
X12433571Y-13853952D01*
X12414524Y-13863476D01*
X12385952Y-13863476D01*
X12566905Y-13863476D02*
X12547857Y-13853952D01*
X12538333Y-13834905D01*
X12538333Y-13663476D01*
X12719286Y-13853952D02*
X12700238Y-13863476D01*
X12662143Y-13863476D01*
X12643095Y-13853952D01*
X12633571Y-13834905D01*
X12633571Y-13758714D01*
X12643095Y-13739667D01*
X12662143Y-13730143D01*
X12700238Y-13730143D01*
X12719286Y-13739667D01*
X12728809Y-13758714D01*
X12728809Y-13777762D01*
X12633571Y-13796809D01*
X12805000Y-13853952D02*
X12824048Y-13863476D01*
X12862143Y-13863476D01*
X12881190Y-13853952D01*
X12890714Y-13834905D01*
X12890714Y-13825381D01*
X12881190Y-13806333D01*
X12862143Y-13796809D01*
X12833571Y-13796809D01*
X12814524Y-13787286D01*
X12805000Y-13768238D01*
X12805000Y-13758714D01*
X12814524Y-13739667D01*
X12833571Y-13730143D01*
X12862143Y-13730143D01*
X12881190Y-13739667D01*
X12957381Y-13939667D02*
X12966905Y-13930143D01*
X12985952Y-13901571D01*
X12995476Y-13882524D01*
X13005000Y-13853952D01*
X13014524Y-13806333D01*
X13014524Y-13768238D01*
X13005000Y-13720619D01*
X12995476Y-13692048D01*
X12985952Y-13673000D01*
X12966905Y-13644428D01*
X12957381Y-13634905D01*
D14*
X7984749Y-14061749D02*
X7984749Y-14012251D01*
X7935251Y-14012251D01*
X7935251Y-14061749D01*
X7984749Y-14061749D01*
D11*
X8290714Y-13927476D02*
X8309762Y-13927476D01*
X8328809Y-13937000D01*
X8338333Y-13946524D01*
X8347857Y-13965571D01*
X8357381Y-14003667D01*
X8357381Y-14051286D01*
X8347857Y-14089381D01*
X8338333Y-14108428D01*
X8328809Y-14117952D01*
X8309762Y-14127476D01*
X8290714Y-14127476D01*
X8271667Y-14117952D01*
X8262143Y-14108428D01*
X8252619Y-14089381D01*
X8243095Y-14051286D01*
X8243095Y-14003667D01*
X8252619Y-13965571D01*
X8262143Y-13946524D01*
X8271667Y-13937000D01*
X8290714Y-13927476D01*
X8443095Y-14108428D02*
X8452619Y-14117952D01*
X8443095Y-14127476D01*
X8433571Y-14117952D01*
X8443095Y-14108428D01*
X8443095Y-14127476D01*
X8519286Y-13927476D02*
X8652619Y-13927476D01*
X8566905Y-14127476D01*
X8766905Y-13927476D02*
X8785952Y-13927476D01*
X8805000Y-13937000D01*
X8814524Y-13946524D01*
X8824048Y-13965571D01*
X8833571Y-14003667D01*
X8833571Y-14051286D01*
X8824048Y-14089381D01*
X8814524Y-14108428D01*
X8805000Y-14117952D01*
X8785952Y-14127476D01*
X8766905Y-14127476D01*
X8747857Y-14117952D01*
X8738333Y-14108428D01*
X8728810Y-14089381D01*
X8719286Y-14051286D01*
X8719286Y-14003667D01*
X8728810Y-13965571D01*
X8738333Y-13946524D01*
X8747857Y-13937000D01*
X8766905Y-13927476D01*
X8957381Y-13927476D02*
X8976429Y-13927476D01*
X8995476Y-13937000D01*
X9005000Y-13946524D01*
X9014524Y-13965571D01*
X9024048Y-14003667D01*
X9024048Y-14051286D01*
X9014524Y-14089381D01*
X9005000Y-14108428D01*
X8995476Y-14117952D01*
X8976429Y-14127476D01*
X8957381Y-14127476D01*
X8938333Y-14117952D01*
X8928810Y-14108428D01*
X8919286Y-14089381D01*
X8909762Y-14051286D01*
X8909762Y-14003667D01*
X8919286Y-13965571D01*
X8928810Y-13946524D01*
X8938333Y-13937000D01*
X8957381Y-13927476D01*
X9109762Y-14127476D02*
X9109762Y-13994143D01*
X9109762Y-14013190D02*
X9119286Y-14003667D01*
X9138333Y-13994143D01*
X9166905Y-13994143D01*
X9185952Y-14003667D01*
X9195476Y-14022714D01*
X9195476Y-14127476D01*
X9195476Y-14022714D02*
X9205000Y-14003667D01*
X9224048Y-13994143D01*
X9252619Y-13994143D01*
X9271667Y-14003667D01*
X9281190Y-14022714D01*
X9281190Y-14127476D01*
X9376429Y-14127476D02*
X9376429Y-13994143D01*
X9376429Y-14013190D02*
X9385952Y-14003667D01*
X9405000Y-13994143D01*
X9433571Y-13994143D01*
X9452619Y-14003667D01*
X9462143Y-14022714D01*
X9462143Y-14127476D01*
X9462143Y-14022714D02*
X9471667Y-14003667D01*
X9490714Y-13994143D01*
X9519286Y-13994143D01*
X9538333Y-14003667D01*
X9547857Y-14022714D01*
X9547857Y-14127476D01*
X9938333Y-13917952D02*
X9766905Y-14175095D01*
X10195476Y-13927476D02*
X10214524Y-13927476D01*
X10233571Y-13937000D01*
X10243095Y-13946524D01*
X10252619Y-13965571D01*
X10262143Y-14003667D01*
X10262143Y-14051286D01*
X10252619Y-14089381D01*
X10243095Y-14108428D01*
X10233571Y-14117952D01*
X10214524Y-14127476D01*
X10195476Y-14127476D01*
X10176429Y-14117952D01*
X10166905Y-14108428D01*
X10157381Y-14089381D01*
X10147857Y-14051286D01*
X10147857Y-14003667D01*
X10157381Y-13965571D01*
X10166905Y-13946524D01*
X10176429Y-13937000D01*
X10195476Y-13927476D01*
X10347857Y-14108428D02*
X10357381Y-14117952D01*
X10347857Y-14127476D01*
X10338333Y-14117952D01*
X10347857Y-14108428D01*
X10347857Y-14127476D01*
X10481190Y-13927476D02*
X10500238Y-13927476D01*
X10519286Y-13937000D01*
X10528810Y-13946524D01*
X10538333Y-13965571D01*
X10547857Y-14003667D01*
X10547857Y-14051286D01*
X10538333Y-14089381D01*
X10528810Y-14108428D01*
X10519286Y-14117952D01*
X10500238Y-14127476D01*
X10481190Y-14127476D01*
X10462143Y-14117952D01*
X10452619Y-14108428D01*
X10443095Y-14089381D01*
X10433571Y-14051286D01*
X10433571Y-14003667D01*
X10443095Y-13965571D01*
X10452619Y-13946524D01*
X10462143Y-13937000D01*
X10481190Y-13927476D01*
X10624048Y-13946524D02*
X10633571Y-13937000D01*
X10652619Y-13927476D01*
X10700238Y-13927476D01*
X10719286Y-13937000D01*
X10728810Y-13946524D01*
X10738333Y-13965571D01*
X10738333Y-13984619D01*
X10728810Y-14013190D01*
X10614524Y-14127476D01*
X10738333Y-14127476D01*
X10805000Y-13927476D02*
X10938333Y-13927476D01*
X10852619Y-14127476D01*
X11100238Y-13927476D02*
X11062143Y-13927476D01*
X11043095Y-13937000D01*
X11033571Y-13946524D01*
X11014524Y-13975095D01*
X11005000Y-14013190D01*
X11005000Y-14089381D01*
X11014524Y-14108428D01*
X11024048Y-14117952D01*
X11043095Y-14127476D01*
X11081190Y-14127476D01*
X11100238Y-14117952D01*
X11109762Y-14108428D01*
X11119286Y-14089381D01*
X11119286Y-14041762D01*
X11109762Y-14022714D01*
X11100238Y-14013190D01*
X11081190Y-14003667D01*
X11043095Y-14003667D01*
X11024048Y-14013190D01*
X11014524Y-14022714D01*
X11005000Y-14041762D01*
X11195476Y-13927476D02*
X11195476Y-13965571D01*
X11271667Y-13927476D02*
X11271667Y-13965571D01*
X11566905Y-14203667D02*
X11557381Y-14194143D01*
X11538333Y-14165571D01*
X11528809Y-14146524D01*
X11519286Y-14117952D01*
X11509762Y-14070333D01*
X11509762Y-14032238D01*
X11519286Y-13984619D01*
X11528809Y-13956048D01*
X11538333Y-13937000D01*
X11557381Y-13908428D01*
X11566905Y-13898905D01*
X11633571Y-13946524D02*
X11643095Y-13937000D01*
X11662143Y-13927476D01*
X11709762Y-13927476D01*
X11728809Y-13937000D01*
X11738333Y-13946524D01*
X11747857Y-13965571D01*
X11747857Y-13984619D01*
X11738333Y-14013190D01*
X11624048Y-14127476D01*
X11747857Y-14127476D01*
X11985952Y-14127476D02*
X11985952Y-13927476D01*
X12071667Y-14127476D02*
X12071667Y-14022714D01*
X12062143Y-14003667D01*
X12043095Y-13994143D01*
X12014524Y-13994143D01*
X11995476Y-14003667D01*
X11985952Y-14013190D01*
X12195476Y-14127476D02*
X12176428Y-14117952D01*
X12166905Y-14108428D01*
X12157381Y-14089381D01*
X12157381Y-14032238D01*
X12166905Y-14013190D01*
X12176428Y-14003667D01*
X12195476Y-13994143D01*
X12224048Y-13994143D01*
X12243095Y-14003667D01*
X12252619Y-14013190D01*
X12262143Y-14032238D01*
X12262143Y-14089381D01*
X12252619Y-14108428D01*
X12243095Y-14117952D01*
X12224048Y-14127476D01*
X12195476Y-14127476D01*
X12376428Y-14127476D02*
X12357381Y-14117952D01*
X12347857Y-14098905D01*
X12347857Y-13927476D01*
X12528809Y-14117952D02*
X12509762Y-14127476D01*
X12471667Y-14127476D01*
X12452619Y-14117952D01*
X12443095Y-14098905D01*
X12443095Y-14022714D01*
X12452619Y-14003667D01*
X12471667Y-13994143D01*
X12509762Y-13994143D01*
X12528809Y-14003667D01*
X12538333Y-14022714D01*
X12538333Y-14041762D01*
X12443095Y-14060809D01*
X12614524Y-14117952D02*
X12633571Y-14127476D01*
X12671667Y-14127476D01*
X12690714Y-14117952D01*
X12700238Y-14098905D01*
X12700238Y-14089381D01*
X12690714Y-14070333D01*
X12671667Y-14060809D01*
X12643095Y-14060809D01*
X12624048Y-14051286D01*
X12614524Y-14032238D01*
X12614524Y-14022714D01*
X12624048Y-14003667D01*
X12643095Y-13994143D01*
X12671667Y-13994143D01*
X12690714Y-14003667D01*
X12766905Y-14203667D02*
X12776428Y-14194143D01*
X12795476Y-14165571D01*
X12805000Y-14146524D01*
X12814524Y-14117952D01*
X12824048Y-14070333D01*
X12824048Y-14032238D01*
X12814524Y-13984619D01*
X12805000Y-13956048D01*
X12795476Y-13937000D01*
X12776428Y-13908428D01*
X12766905Y-13898905D01*
D15*
X7955000Y-14341000D02*
X7995000Y-14301000D01*
X7955000Y-14261000D01*
X7915000Y-14301000D01*
X7955000Y-14341000D01*
D11*
X8290714Y-14191476D02*
X8309762Y-14191476D01*
X8328809Y-14201000D01*
X8338333Y-14210524D01*
X8347857Y-14229571D01*
X8357381Y-14267667D01*
X8357381Y-14315286D01*
X8347857Y-14353381D01*
X8338333Y-14372428D01*
X8328809Y-14381952D01*
X8309762Y-14391476D01*
X8290714Y-14391476D01*
X8271667Y-14381952D01*
X8262143Y-14372428D01*
X8252619Y-14353381D01*
X8243095Y-14315286D01*
X8243095Y-14267667D01*
X8252619Y-14229571D01*
X8262143Y-14210524D01*
X8271667Y-14201000D01*
X8290714Y-14191476D01*
X8443095Y-14372428D02*
X8452619Y-14381952D01*
X8443095Y-14391476D01*
X8433571Y-14381952D01*
X8443095Y-14372428D01*
X8443095Y-14391476D01*
X8566905Y-14277190D02*
X8547857Y-14267667D01*
X8538333Y-14258143D01*
X8528810Y-14239095D01*
X8528810Y-14229571D01*
X8538333Y-14210524D01*
X8547857Y-14201000D01*
X8566905Y-14191476D01*
X8605000Y-14191476D01*
X8624048Y-14201000D01*
X8633571Y-14210524D01*
X8643095Y-14229571D01*
X8643095Y-14239095D01*
X8633571Y-14258143D01*
X8624048Y-14267667D01*
X8605000Y-14277190D01*
X8566905Y-14277190D01*
X8547857Y-14286714D01*
X8538333Y-14296238D01*
X8528810Y-14315286D01*
X8528810Y-14353381D01*
X8538333Y-14372428D01*
X8547857Y-14381952D01*
X8566905Y-14391476D01*
X8605000Y-14391476D01*
X8624048Y-14381952D01*
X8633571Y-14372428D01*
X8643095Y-14353381D01*
X8643095Y-14315286D01*
X8633571Y-14296238D01*
X8624048Y-14286714D01*
X8605000Y-14277190D01*
X8766905Y-14191476D02*
X8785952Y-14191476D01*
X8805000Y-14201000D01*
X8814524Y-14210524D01*
X8824048Y-14229571D01*
X8833571Y-14267667D01*
X8833571Y-14315286D01*
X8824048Y-14353381D01*
X8814524Y-14372428D01*
X8805000Y-14381952D01*
X8785952Y-14391476D01*
X8766905Y-14391476D01*
X8747857Y-14381952D01*
X8738333Y-14372428D01*
X8728810Y-14353381D01*
X8719286Y-14315286D01*
X8719286Y-14267667D01*
X8728810Y-14229571D01*
X8738333Y-14210524D01*
X8747857Y-14201000D01*
X8766905Y-14191476D01*
X8957381Y-14191476D02*
X8976429Y-14191476D01*
X8995476Y-14201000D01*
X9005000Y-14210524D01*
X9014524Y-14229571D01*
X9024048Y-14267667D01*
X9024048Y-14315286D01*
X9014524Y-14353381D01*
X9005000Y-14372428D01*
X8995476Y-14381952D01*
X8976429Y-14391476D01*
X8957381Y-14391476D01*
X8938333Y-14381952D01*
X8928810Y-14372428D01*
X8919286Y-14353381D01*
X8909762Y-14315286D01*
X8909762Y-14267667D01*
X8919286Y-14229571D01*
X8928810Y-14210524D01*
X8938333Y-14201000D01*
X8957381Y-14191476D01*
X9109762Y-14391476D02*
X9109762Y-14258143D01*
X9109762Y-14277190D02*
X9119286Y-14267667D01*
X9138333Y-14258143D01*
X9166905Y-14258143D01*
X9185952Y-14267667D01*
X9195476Y-14286714D01*
X9195476Y-14391476D01*
X9195476Y-14286714D02*
X9205000Y-14267667D01*
X9224048Y-14258143D01*
X9252619Y-14258143D01*
X9271667Y-14267667D01*
X9281190Y-14286714D01*
X9281190Y-14391476D01*
X9376429Y-14391476D02*
X9376429Y-14258143D01*
X9376429Y-14277190D02*
X9385952Y-14267667D01*
X9405000Y-14258143D01*
X9433571Y-14258143D01*
X9452619Y-14267667D01*
X9462143Y-14286714D01*
X9462143Y-14391476D01*
X9462143Y-14286714D02*
X9471667Y-14267667D01*
X9490714Y-14258143D01*
X9519286Y-14258143D01*
X9538333Y-14267667D01*
X9547857Y-14286714D01*
X9547857Y-14391476D01*
X9938333Y-14181952D02*
X9766905Y-14439095D01*
X10195476Y-14191476D02*
X10214524Y-14191476D01*
X10233571Y-14201000D01*
X10243095Y-14210524D01*
X10252619Y-14229571D01*
X10262143Y-14267667D01*
X10262143Y-14315286D01*
X10252619Y-14353381D01*
X10243095Y-14372428D01*
X10233571Y-14381952D01*
X10214524Y-14391476D01*
X10195476Y-14391476D01*
X10176429Y-14381952D01*
X10166905Y-14372428D01*
X10157381Y-14353381D01*
X10147857Y-14315286D01*
X10147857Y-14267667D01*
X10157381Y-14229571D01*
X10166905Y-14210524D01*
X10176429Y-14201000D01*
X10195476Y-14191476D01*
X10347857Y-14372428D02*
X10357381Y-14381952D01*
X10347857Y-14391476D01*
X10338333Y-14381952D01*
X10347857Y-14372428D01*
X10347857Y-14391476D01*
X10481190Y-14191476D02*
X10500238Y-14191476D01*
X10519286Y-14201000D01*
X10528810Y-14210524D01*
X10538333Y-14229571D01*
X10547857Y-14267667D01*
X10547857Y-14315286D01*
X10538333Y-14353381D01*
X10528810Y-14372428D01*
X10519286Y-14381952D01*
X10500238Y-14391476D01*
X10481190Y-14391476D01*
X10462143Y-14381952D01*
X10452619Y-14372428D01*
X10443095Y-14353381D01*
X10433571Y-14315286D01*
X10433571Y-14267667D01*
X10443095Y-14229571D01*
X10452619Y-14210524D01*
X10462143Y-14201000D01*
X10481190Y-14191476D01*
X10614524Y-14191476D02*
X10738333Y-14191476D01*
X10671667Y-14267667D01*
X10700238Y-14267667D01*
X10719286Y-14277190D01*
X10728810Y-14286714D01*
X10738333Y-14305762D01*
X10738333Y-14353381D01*
X10728810Y-14372428D01*
X10719286Y-14381952D01*
X10700238Y-14391476D01*
X10643095Y-14391476D01*
X10624048Y-14381952D01*
X10614524Y-14372428D01*
X10928810Y-14391476D02*
X10814524Y-14391476D01*
X10871667Y-14391476D02*
X10871667Y-14191476D01*
X10852619Y-14220048D01*
X10833571Y-14239095D01*
X10814524Y-14248619D01*
X11109762Y-14191476D02*
X11014524Y-14191476D01*
X11005000Y-14286714D01*
X11014524Y-14277190D01*
X11033571Y-14267667D01*
X11081190Y-14267667D01*
X11100238Y-14277190D01*
X11109762Y-14286714D01*
X11119286Y-14305762D01*
X11119286Y-14353381D01*
X11109762Y-14372428D01*
X11100238Y-14381952D01*
X11081190Y-14391476D01*
X11033571Y-14391476D01*
X11014524Y-14381952D01*
X11005000Y-14372428D01*
X11195476Y-14191476D02*
X11195476Y-14229571D01*
X11271667Y-14191476D02*
X11271667Y-14229571D01*
X11566905Y-14467667D02*
X11557381Y-14458143D01*
X11538333Y-14429571D01*
X11528809Y-14410524D01*
X11519286Y-14381952D01*
X11509762Y-14334333D01*
X11509762Y-14296238D01*
X11519286Y-14248619D01*
X11528809Y-14220048D01*
X11538333Y-14201000D01*
X11557381Y-14172428D01*
X11566905Y-14162905D01*
X11633571Y-14210524D02*
X11643095Y-14201000D01*
X11662143Y-14191476D01*
X11709762Y-14191476D01*
X11728809Y-14201000D01*
X11738333Y-14210524D01*
X11747857Y-14229571D01*
X11747857Y-14248619D01*
X11738333Y-14277190D01*
X11624048Y-14391476D01*
X11747857Y-14391476D01*
X11871667Y-14191476D02*
X11890714Y-14191476D01*
X11909762Y-14201000D01*
X11919286Y-14210524D01*
X11928809Y-14229571D01*
X11938333Y-14267667D01*
X11938333Y-14315286D01*
X11928809Y-14353381D01*
X11919286Y-14372428D01*
X11909762Y-14381952D01*
X11890714Y-14391476D01*
X11871667Y-14391476D01*
X11852619Y-14381952D01*
X11843095Y-14372428D01*
X11833571Y-14353381D01*
X11824048Y-14315286D01*
X11824048Y-14267667D01*
X11833571Y-14229571D01*
X11843095Y-14210524D01*
X11852619Y-14201000D01*
X11871667Y-14191476D01*
X12176428Y-14391476D02*
X12176428Y-14191476D01*
X12262143Y-14391476D02*
X12262143Y-14286714D01*
X12252619Y-14267667D01*
X12233571Y-14258143D01*
X12205000Y-14258143D01*
X12185952Y-14267667D01*
X12176428Y-14277190D01*
X12385952Y-14391476D02*
X12366905Y-14381952D01*
X12357381Y-14372428D01*
X12347857Y-14353381D01*
X12347857Y-14296238D01*
X12357381Y-14277190D01*
X12366905Y-14267667D01*
X12385952Y-14258143D01*
X12414524Y-14258143D01*
X12433571Y-14267667D01*
X12443095Y-14277190D01*
X12452619Y-14296238D01*
X12452619Y-14353381D01*
X12443095Y-14372428D01*
X12433571Y-14381952D01*
X12414524Y-14391476D01*
X12385952Y-14391476D01*
X12566905Y-14391476D02*
X12547857Y-14381952D01*
X12538333Y-14362905D01*
X12538333Y-14191476D01*
X12719286Y-14381952D02*
X12700238Y-14391476D01*
X12662143Y-14391476D01*
X12643095Y-14381952D01*
X12633571Y-14362905D01*
X12633571Y-14286714D01*
X12643095Y-14267667D01*
X12662143Y-14258143D01*
X12700238Y-14258143D01*
X12719286Y-14267667D01*
X12728809Y-14286714D01*
X12728809Y-14305762D01*
X12633571Y-14324809D01*
X12805000Y-14381952D02*
X12824048Y-14391476D01*
X12862143Y-14391476D01*
X12881190Y-14381952D01*
X12890714Y-14362905D01*
X12890714Y-14353381D01*
X12881190Y-14334333D01*
X12862143Y-14324809D01*
X12833571Y-14324809D01*
X12814524Y-14315286D01*
X12805000Y-14296238D01*
X12805000Y-14286714D01*
X12814524Y-14267667D01*
X12833571Y-14258143D01*
X12862143Y-14258143D01*
X12881190Y-14267667D01*
X12957381Y-14467667D02*
X12966905Y-14458143D01*
X12985952Y-14429571D01*
X12995476Y-14410524D01*
X13005000Y-14381952D01*
X13014524Y-14334333D01*
X13014524Y-14296238D01*
X13005000Y-14248619D01*
X12995476Y-14220048D01*
X12985952Y-14201000D01*
X12966905Y-14172428D01*
X12957381Y-14162905D01*
D10*
X7895000Y-14515000D02*
X7995000Y-14615000D01*
X7995000Y-14515000D02*
X7895000Y-14615000D01*
X7995000Y-14565000D02*
G75*
G03*
X7995000Y-14565000I-50000J0D01*
G01*
D11*
X8357381Y-14655476D02*
X8243095Y-14655476D01*
X8300238Y-14655476D02*
X8300238Y-14455476D01*
X8281190Y-14484048D01*
X8262143Y-14503095D01*
X8243095Y-14512619D01*
X8443095Y-14636428D02*
X8452619Y-14645952D01*
X8443095Y-14655476D01*
X8433571Y-14645952D01*
X8443095Y-14636428D01*
X8443095Y-14655476D01*
X8576429Y-14455476D02*
X8595476Y-14455476D01*
X8614524Y-14465000D01*
X8624048Y-14474524D01*
X8633571Y-14493571D01*
X8643095Y-14531667D01*
X8643095Y-14579286D01*
X8633571Y-14617381D01*
X8624048Y-14636428D01*
X8614524Y-14645952D01*
X8595476Y-14655476D01*
X8576429Y-14655476D01*
X8557381Y-14645952D01*
X8547857Y-14636428D01*
X8538333Y-14617381D01*
X8528810Y-14579286D01*
X8528810Y-14531667D01*
X8538333Y-14493571D01*
X8547857Y-14474524D01*
X8557381Y-14465000D01*
X8576429Y-14455476D01*
X8766905Y-14455476D02*
X8785952Y-14455476D01*
X8805000Y-14465000D01*
X8814524Y-14474524D01*
X8824048Y-14493571D01*
X8833571Y-14531667D01*
X8833571Y-14579286D01*
X8824048Y-14617381D01*
X8814524Y-14636428D01*
X8805000Y-14645952D01*
X8785952Y-14655476D01*
X8766905Y-14655476D01*
X8747857Y-14645952D01*
X8738333Y-14636428D01*
X8728810Y-14617381D01*
X8719286Y-14579286D01*
X8719286Y-14531667D01*
X8728810Y-14493571D01*
X8738333Y-14474524D01*
X8747857Y-14465000D01*
X8766905Y-14455476D01*
X8957381Y-14455476D02*
X8976429Y-14455476D01*
X8995476Y-14465000D01*
X9005000Y-14474524D01*
X9014524Y-14493571D01*
X9024048Y-14531667D01*
X9024048Y-14579286D01*
X9014524Y-14617381D01*
X9005000Y-14636428D01*
X8995476Y-14645952D01*
X8976429Y-14655476D01*
X8957381Y-14655476D01*
X8938333Y-14645952D01*
X8928810Y-14636428D01*
X8919286Y-14617381D01*
X8909762Y-14579286D01*
X8909762Y-14531667D01*
X8919286Y-14493571D01*
X8928810Y-14474524D01*
X8938333Y-14465000D01*
X8957381Y-14455476D01*
X9109762Y-14655476D02*
X9109762Y-14522143D01*
X9109762Y-14541190D02*
X9119286Y-14531667D01*
X9138333Y-14522143D01*
X9166905Y-14522143D01*
X9185952Y-14531667D01*
X9195476Y-14550714D01*
X9195476Y-14655476D01*
X9195476Y-14550714D02*
X9205000Y-14531667D01*
X9224048Y-14522143D01*
X9252619Y-14522143D01*
X9271667Y-14531667D01*
X9281190Y-14550714D01*
X9281190Y-14655476D01*
X9376429Y-14655476D02*
X9376429Y-14522143D01*
X9376429Y-14541190D02*
X9385952Y-14531667D01*
X9405000Y-14522143D01*
X9433571Y-14522143D01*
X9452619Y-14531667D01*
X9462143Y-14550714D01*
X9462143Y-14655476D01*
X9462143Y-14550714D02*
X9471667Y-14531667D01*
X9490714Y-14522143D01*
X9519286Y-14522143D01*
X9538333Y-14531667D01*
X9547857Y-14550714D01*
X9547857Y-14655476D01*
X9938333Y-14445952D02*
X9766905Y-14703095D01*
X10195476Y-14455476D02*
X10214524Y-14455476D01*
X10233571Y-14465000D01*
X10243095Y-14474524D01*
X10252619Y-14493571D01*
X10262143Y-14531667D01*
X10262143Y-14579286D01*
X10252619Y-14617381D01*
X10243095Y-14636428D01*
X10233571Y-14645952D01*
X10214524Y-14655476D01*
X10195476Y-14655476D01*
X10176429Y-14645952D01*
X10166905Y-14636428D01*
X10157381Y-14617381D01*
X10147857Y-14579286D01*
X10147857Y-14531667D01*
X10157381Y-14493571D01*
X10166905Y-14474524D01*
X10176429Y-14465000D01*
X10195476Y-14455476D01*
X10347857Y-14636428D02*
X10357381Y-14645952D01*
X10347857Y-14655476D01*
X10338333Y-14645952D01*
X10347857Y-14636428D01*
X10347857Y-14655476D01*
X10481190Y-14455476D02*
X10500238Y-14455476D01*
X10519286Y-14465000D01*
X10528810Y-14474524D01*
X10538333Y-14493571D01*
X10547857Y-14531667D01*
X10547857Y-14579286D01*
X10538333Y-14617381D01*
X10528810Y-14636428D01*
X10519286Y-14645952D01*
X10500238Y-14655476D01*
X10481190Y-14655476D01*
X10462143Y-14645952D01*
X10452619Y-14636428D01*
X10443095Y-14617381D01*
X10433571Y-14579286D01*
X10433571Y-14531667D01*
X10443095Y-14493571D01*
X10452619Y-14474524D01*
X10462143Y-14465000D01*
X10481190Y-14455476D01*
X10614524Y-14455476D02*
X10738333Y-14455476D01*
X10671667Y-14531667D01*
X10700238Y-14531667D01*
X10719286Y-14541190D01*
X10728810Y-14550714D01*
X10738333Y-14569762D01*
X10738333Y-14617381D01*
X10728810Y-14636428D01*
X10719286Y-14645952D01*
X10700238Y-14655476D01*
X10643095Y-14655476D01*
X10624048Y-14645952D01*
X10614524Y-14636428D01*
X10833571Y-14655476D02*
X10871667Y-14655476D01*
X10890714Y-14645952D01*
X10900238Y-14636428D01*
X10919286Y-14607857D01*
X10928810Y-14569762D01*
X10928810Y-14493571D01*
X10919286Y-14474524D01*
X10909762Y-14465000D01*
X10890714Y-14455476D01*
X10852619Y-14455476D01*
X10833571Y-14465000D01*
X10824048Y-14474524D01*
X10814524Y-14493571D01*
X10814524Y-14541190D01*
X10824048Y-14560238D01*
X10833571Y-14569762D01*
X10852619Y-14579286D01*
X10890714Y-14579286D01*
X10909762Y-14569762D01*
X10919286Y-14560238D01*
X10928810Y-14541190D01*
X11100238Y-14522143D02*
X11100238Y-14655476D01*
X11052619Y-14445952D02*
X11005000Y-14588809D01*
X11128810Y-14588809D01*
X11195476Y-14455476D02*
X11195476Y-14493571D01*
X11271667Y-14455476D02*
X11271667Y-14493571D01*
X11566905Y-14731667D02*
X11557381Y-14722143D01*
X11538333Y-14693571D01*
X11528809Y-14674524D01*
X11519286Y-14645952D01*
X11509762Y-14598333D01*
X11509762Y-14560238D01*
X11519286Y-14512619D01*
X11528809Y-14484048D01*
X11538333Y-14465000D01*
X11557381Y-14436428D01*
X11566905Y-14426905D01*
X11728809Y-14455476D02*
X11690714Y-14455476D01*
X11671667Y-14465000D01*
X11662143Y-14474524D01*
X11643095Y-14503095D01*
X11633571Y-14541190D01*
X11633571Y-14617381D01*
X11643095Y-14636428D01*
X11652619Y-14645952D01*
X11671667Y-14655476D01*
X11709762Y-14655476D01*
X11728809Y-14645952D01*
X11738333Y-14636428D01*
X11747857Y-14617381D01*
X11747857Y-14569762D01*
X11738333Y-14550714D01*
X11728809Y-14541190D01*
X11709762Y-14531667D01*
X11671667Y-14531667D01*
X11652619Y-14541190D01*
X11643095Y-14550714D01*
X11633571Y-14569762D01*
X11985952Y-14655476D02*
X11985952Y-14455476D01*
X12071667Y-14655476D02*
X12071667Y-14550714D01*
X12062143Y-14531667D01*
X12043095Y-14522143D01*
X12014524Y-14522143D01*
X11995476Y-14531667D01*
X11985952Y-14541190D01*
X12195476Y-14655476D02*
X12176428Y-14645952D01*
X12166905Y-14636428D01*
X12157381Y-14617381D01*
X12157381Y-14560238D01*
X12166905Y-14541190D01*
X12176428Y-14531667D01*
X12195476Y-14522143D01*
X12224048Y-14522143D01*
X12243095Y-14531667D01*
X12252619Y-14541190D01*
X12262143Y-14560238D01*
X12262143Y-14617381D01*
X12252619Y-14636428D01*
X12243095Y-14645952D01*
X12224048Y-14655476D01*
X12195476Y-14655476D01*
X12376428Y-14655476D02*
X12357381Y-14645952D01*
X12347857Y-14626905D01*
X12347857Y-14455476D01*
X12528809Y-14645952D02*
X12509762Y-14655476D01*
X12471667Y-14655476D01*
X12452619Y-14645952D01*
X12443095Y-14626905D01*
X12443095Y-14550714D01*
X12452619Y-14531667D01*
X12471667Y-14522143D01*
X12509762Y-14522143D01*
X12528809Y-14531667D01*
X12538333Y-14550714D01*
X12538333Y-14569762D01*
X12443095Y-14588809D01*
X12614524Y-14645952D02*
X12633571Y-14655476D01*
X12671667Y-14655476D01*
X12690714Y-14645952D01*
X12700238Y-14626905D01*
X12700238Y-14617381D01*
X12690714Y-14598333D01*
X12671667Y-14588809D01*
X12643095Y-14588809D01*
X12624048Y-14579286D01*
X12614524Y-14560238D01*
X12614524Y-14550714D01*
X12624048Y-14531667D01*
X12643095Y-14522143D01*
X12671667Y-14522143D01*
X12690714Y-14531667D01*
X12766905Y-14731667D02*
X12776428Y-14722143D01*
X12795476Y-14693571D01*
X12805000Y-14674524D01*
X12814524Y-14645952D01*
X12824048Y-14598333D01*
X12824048Y-14560238D01*
X12814524Y-14512619D01*
X12805000Y-14484048D01*
X12795476Y-14465000D01*
X12776428Y-14436428D01*
X12766905Y-14426905D01*
M02*
